<?xml version="1.0" encoding="UTF-8" standalone="no"?>
<!DOCTYPE svg PUBLIC "-//W3C//DTD SVG 1.1//EN"
 "http://www.w3.org/Graphics/SVG/1.1/DTD/svg11.dtd">
<!-- Generated by graphviz version 2.38.0 (20140413.2041)
 -->
<!-- Title: G Pages: 1 -->
<svg width="1317pt" height="236pt"
 viewBox="0.00 0.00 1316.52 236.00" xmlns="http://www.w3.org/2000/svg" xmlns:xlink="http://www.w3.org/1999/xlink">
<g id="graph0" class="graph" transform="scale(1 1) rotate(0) translate(4 232)">
<title>G</title>
<polygon fill="white" stroke="none" points="-4,4 -4,-232 1312.52,-232 1312.52,4 -4,4"/>
<!-- e164f57fb&#45;365f&#45;4728&#45;9973&#45;0def0632eb3b -->
<g id="e164f57fb&#45;365f&#45;4728&#45;9973&#45;0def0632eb3b" class="node"><title>e164f57fb&#45;365f&#45;4728&#45;9973&#45;0def0632eb3b</title>
<ellipse fill="green" stroke="black" cx="18" cy="-100" rx="18" ry="18"/>
</g>
<!-- e35f5adb6&#45;a634&#45;4189&#45;bfc5&#45;329087aaf5f2 -->
<g id="e35f5adb6&#45;a634&#45;4189&#45;bfc5&#45;329087aaf5f2" class="node"><title>e35f5adb6&#45;a634&#45;4189&#45;bfc5&#45;329087aaf5f2</title>
<polygon fill="#eeeeee" stroke="black" points="83,-150 72,-150 72,-114 83,-114 83,-150"/>
</g>
<!-- e164f57fb&#45;365f&#45;4728&#45;9973&#45;0def0632eb3b&#45;&gt;e35f5adb6&#45;a634&#45;4189&#45;bfc5&#45;329087aaf5f2 -->
<g id="ecbe1778e&#45;0092&#45;49b3&#45;a499&#45;40985275ccfe" class="edge"><title>e164f57fb&#45;365f&#45;4728&#45;9973&#45;0def0632eb3b&#45;&gt;e35f5adb6&#45;a634&#45;4189&#45;bfc5&#45;329087aaf5f2</title>
<path fill="none" stroke="black" d="M34.1074,-108.408C43.002,-113.358 54.1644,-119.57 62.8022,-124.377"/>
<polygon fill="black" stroke="black" points="61.324,-127.56 71.764,-129.364 64.728,-121.443 61.324,-127.56"/>
</g>
<!-- e3fa1335e&#45;8f33&#45;4a18&#45;8b0c&#45;de3ae9a5c009 -->
<g id="e3fa1335e&#45;8f33&#45;4a18&#45;8b0c&#45;de3ae9a5c009" class="node"><title>e3fa1335e&#45;8f33&#45;4a18&#45;8b0c&#45;de3ae9a5c009</title>
<polygon fill="#eeeeee" stroke="black" points="83,-87 72,-87 72,-51 83,-51 83,-87"/>
</g>
<!-- e164f57fb&#45;365f&#45;4728&#45;9973&#45;0def0632eb3b&#45;&gt;e3fa1335e&#45;8f33&#45;4a18&#45;8b0c&#45;de3ae9a5c009 -->
<g id="e71664e3c&#45;9276&#45;4846&#45;ad65&#45;d343a5f21b76" class="edge"><title>e164f57fb&#45;365f&#45;4728&#45;9973&#45;0def0632eb3b&#45;&gt;e3fa1335e&#45;8f33&#45;4a18&#45;8b0c&#45;de3ae9a5c009</title>
<path fill="none" stroke="black" d="M34.1074,-91.8551C43.002,-87.0598 54.1644,-81.0418 62.8022,-76.3849"/>
<polygon fill="black" stroke="black" points="64.6227,-79.3797 71.764,-71.5533 61.3008,-73.2182 64.6227,-79.3797"/>
</g>
<!-- e50e4c7d8&#45;aa2c&#45;4340&#45;b57d&#45;6e261eb5d64c -->
<g id="e50e4c7d8&#45;aa2c&#45;4340&#45;b57d&#45;6e261eb5d64c" class="node"><title>e50e4c7d8&#45;aa2c&#45;4340&#45;b57d&#45;6e261eb5d64c</title>
<ellipse fill="red" stroke="black" cx="1290.52" cy="-164" rx="18" ry="18"/>
</g>
<!-- ef7b6ec44&#45;2f1e&#45;43ff&#45;98ce&#45;265c745259b7 -->
<g id="ef7b6ec44&#45;2f1e&#45;43ff&#45;98ce&#45;265c745259b7" class="node"><title>ef7b6ec44&#45;2f1e&#45;43ff&#45;98ce&#45;265c745259b7</title>
<ellipse fill="none" stroke="black" cx="799.098" cy="-186" rx="18" ry="18"/>
</g>
<!-- e5ecf256e&#45;dcf5&#45;48b4&#45;a02f&#45;1f05cdf4b44c -->
<g id="e5ecf256e&#45;dcf5&#45;48b4&#45;a02f&#45;1f05cdf4b44c" class="node"><title>e5ecf256e&#45;dcf5&#45;48b4&#45;a02f&#45;1f05cdf4b44c</title>
<polygon fill="#eeeeee" stroke="black" points="923.598,-228 912.598,-228 912.598,-192 923.598,-192 923.598,-228"/>
</g>
<!-- ef7b6ec44&#45;2f1e&#45;43ff&#45;98ce&#45;265c745259b7&#45;&gt;e5ecf256e&#45;dcf5&#45;48b4&#45;a02f&#45;1f05cdf4b44c -->
<g id="e157e9d88&#45;1e38&#45;47c2&#45;9e87&#45;7da9b7a5ff85" class="edge"><title>ef7b6ec44&#45;2f1e&#45;43ff&#45;98ce&#45;265c745259b7&#45;&gt;e5ecf256e&#45;dcf5&#45;48b4&#45;a02f&#45;1f05cdf4b44c</title>
<path fill="none" stroke="black" d="M816.861,-189.439C839.892,-194.163 880.933,-202.582 902.668,-207.04"/>
<polygon fill="black" stroke="black" points="902.021,-210.48 912.52,-209.061 903.427,-203.623 902.021,-210.48"/>
</g>
<!-- e7d9dc270&#45;7015&#45;4ed2&#45;8c0e&#45;7da76ca2fa64 -->
<g id="e7d9dc270&#45;7015&#45;4ed2&#45;8c0e&#45;7da76ca2fa64" class="node"><title>e7d9dc270&#45;7015&#45;4ed2&#45;8c0e&#45;7da76ca2fa64</title>
<polygon fill="#eeeeee" stroke="black" points="864.098,-176 853.098,-176 853.098,-140 864.098,-140 864.098,-176"/>
</g>
<!-- ef7b6ec44&#45;2f1e&#45;43ff&#45;98ce&#45;265c745259b7&#45;&gt;e7d9dc270&#45;7015&#45;4ed2&#45;8c0e&#45;7da76ca2fa64 -->
<g id="eba37cbf0&#45;5feb&#45;41bd&#45;b2ff&#45;bf06be5512b4" class="edge"><title>ef7b6ec44&#45;2f1e&#45;43ff&#45;98ce&#45;265c745259b7&#45;&gt;e7d9dc270&#45;7015&#45;4ed2&#45;8c0e&#45;7da76ca2fa64</title>
<path fill="none" stroke="black" d="M815.507,-178.497C824.301,-174.214 835.236,-168.889 843.756,-164.74"/>
<polygon fill="black" stroke="black" points="845.455,-167.806 852.913,-160.281 842.39,-161.512 845.455,-167.806"/>
</g>
<!-- e57f0f3e7&#45;c1a5&#45;48ad&#45;a89c&#45;69707224fa5e -->
<g id="e57f0f3e7&#45;c1a5&#45;48ad&#45;a89c&#45;69707224fa5e" class="node"><title>e57f0f3e7&#45;c1a5&#45;48ad&#45;a89c&#45;69707224fa5e</title>
<ellipse fill="none" stroke="black" cx="137" cy="-205" rx="18" ry="18"/>
</g>
<!-- ef8127020&#45;2da3&#45;46c5&#45;91e4&#45;6221eeb55993 -->
<g id="ef8127020&#45;2da3&#45;46c5&#45;91e4&#45;6221eeb55993" class="node"><title>ef8127020&#45;2da3&#45;46c5&#45;91e4&#45;6221eeb55993</title>
<polygon fill="none" stroke="black" points="309.65,-228 212.347,-228 212.347,-192 309.65,-192 309.65,-228"/>
<text text-anchor="middle" x="260.998" y="-205.8" font-family="Times,serif" font-size="14.00">O_CREATED</text>
</g>
<!-- e57f0f3e7&#45;c1a5&#45;48ad&#45;a89c&#45;69707224fa5e&#45;&gt;ef8127020&#45;2da3&#45;46c5&#45;91e4&#45;6221eeb55993 -->
<g id="e0cbcc4bf&#45;4ac2&#45;448a&#45;b145&#45;15c21be7aa38" class="edge"><title>e57f0f3e7&#45;c1a5&#45;48ad&#45;a89c&#45;69707224fa5e&#45;&gt;ef8127020&#45;2da3&#45;46c5&#45;91e4&#45;6221eeb55993</title>
<path fill="none" stroke="black" d="M155.221,-205.706C167.629,-206.214 185.146,-206.932 202.312,-207.636"/>
<polygon fill="black" stroke="black" points="202.203,-211.134 212.338,-208.047 202.49,-204.14 202.203,-211.134"/>
</g>
<!-- ea582b038&#45;7b9a&#45;4264&#45;b159&#45;22b9cd4d304e -->
<g id="ea582b038&#45;7b9a&#45;4264&#45;b159&#45;22b9cd4d304e" class="node"><title>ea582b038&#45;7b9a&#45;4264&#45;b159&#45;22b9cd4d304e</title>
<ellipse fill="none" stroke="black" cx="561.098" cy="-210" rx="18" ry="18"/>
</g>
<!-- e6d8a8eed&#45;64b1&#45;41c7&#45;81ce&#45;91dfa8c4e576 -->
<g id="e6d8a8eed&#45;64b1&#45;41c7&#45;81ce&#45;91dfa8c4e576" class="node"><title>e6d8a8eed&#45;64b1&#45;41c7&#45;81ce&#45;91dfa8c4e576</title>
<polygon fill="#eeeeee" stroke="black" points="745.098,-204 734.098,-204 734.098,-168 745.098,-168 745.098,-204"/>
</g>
<!-- ea582b038&#45;7b9a&#45;4264&#45;b159&#45;22b9cd4d304e&#45;&gt;e6d8a8eed&#45;64b1&#45;41c7&#45;81ce&#45;91dfa8c4e576 -->
<g id="ea75f389f&#45;c22a&#45;4804&#45;b630&#45;0aca3ec807ea" class="edge"><title>ea582b038&#45;7b9a&#45;4264&#45;b159&#45;22b9cd4d304e&#45;&gt;e6d8a8eed&#45;64b1&#45;41c7&#45;81ce&#45;91dfa8c4e576</title>
<path fill="none" stroke="black" d="M579.021,-207.699C613.45,-203.017 691.138,-192.453 723.746,-188.019"/>
<polygon fill="black" stroke="black" points="724.415,-191.461 733.852,-186.645 723.472,-184.525 724.415,-191.461"/>
</g>
<!-- ef593909f&#45;7e99&#45;4a7b&#45;b183&#45;d9dfd52455fb -->
<g id="ef593909f&#45;7e99&#45;4a7b&#45;b183&#45;d9dfd52455fb" class="node"><title>ef593909f&#45;7e99&#45;4a7b&#45;b183&#45;d9dfd52455fb</title>
<ellipse fill="none" stroke="black" cx="137" cy="-132" rx="18" ry="18"/>
</g>
<!-- e12e1a2fb&#45;33ab&#45;4bd6&#45;9d83&#45;f7bc18089e73 -->
<g id="e12e1a2fb&#45;33ab&#45;4bd6&#45;9d83&#45;f7bc18089e73" class="node"><title>e12e1a2fb&#45;33ab&#45;4bd6&#45;9d83&#45;f7bc18089e73</title>
<polygon fill="none" stroke="black" points="312.594,-174 209.403,-174 209.403,-138 312.594,-138 312.594,-174"/>
<text text-anchor="middle" x="260.998" y="-151.8" font-family="Times,serif" font-size="14.00">O_SELECTED</text>
</g>
<!-- ef593909f&#45;7e99&#45;4a7b&#45;b183&#45;d9dfd52455fb&#45;&gt;e12e1a2fb&#45;33ab&#45;4bd6&#45;9d83&#45;f7bc18089e73 -->
<g id="efdb7e3ad&#45;caab&#45;4000&#45;8b66&#45;809f2e138ca8" class="edge"><title>ef593909f&#45;7e99&#45;4a7b&#45;b183&#45;d9dfd52455fb&#45;&gt;e12e1a2fb&#45;33ab&#45;4bd6&#45;9d83&#45;f7bc18089e73</title>
<path fill="none" stroke="black" d="M154.708,-135.287C166.381,-137.583 182.749,-140.803 199.107,-144.021"/>
<polygon fill="black" stroke="black" points="198.761,-147.52 209.248,-146.016 200.112,-140.652 198.761,-147.52"/>
</g>
<!-- e4c2810fb&#45;54e8&#45;4d45&#45;8922&#45;b0479b52dd8d -->
<g id="e4c2810fb&#45;54e8&#45;4d45&#45;8922&#45;b0479b52dd8d" class="node"><title>e4c2810fb&#45;54e8&#45;4d45&#45;8922&#45;b0479b52dd8d</title>
<ellipse fill="none" stroke="black" cx="680.098" cy="-164" rx="18" ry="18"/>
</g>
<!-- e4c2810fb&#45;54e8&#45;4d45&#45;8922&#45;b0479b52dd8d&#45;&gt;e6d8a8eed&#45;64b1&#45;41c7&#45;81ce&#45;91dfa8c4e576 -->
<g id="eda257edc&#45;f4a2&#45;48e5&#45;82ca&#45;825d4cca41cc" class="edge"><title>e4c2810fb&#45;54e8&#45;4d45&#45;8922&#45;b0479b52dd8d&#45;&gt;e6d8a8eed&#45;64b1&#45;41c7&#45;81ce&#45;91dfa8c4e576</title>
<path fill="none" stroke="black" d="M697.115,-170.128C705.705,-173.415 716.195,-177.429 724.477,-180.597"/>
<polygon fill="black" stroke="black" points="723.426,-183.943 734.017,-184.247 725.928,-177.405 723.426,-183.943"/>
</g>
<!-- e827b2b8c&#45;14af&#45;4321&#45;81d2&#45;a0fda6100f86 -->
<g id="e827b2b8c&#45;14af&#45;4321&#45;81d2&#45;a0fda6100f86" class="node"><title>e827b2b8c&#45;14af&#45;4321&#45;81d2&#45;a0fda6100f86</title>
<ellipse fill="none" stroke="black" cx="561.098" cy="-156" rx="18" ry="18"/>
</g>
<!-- ef1a95516&#45;d35a&#45;4188&#45;a64a&#45;2973f367099c -->
<g id="ef1a95516&#45;d35a&#45;4188&#45;a64a&#45;2973f367099c" class="node"><title>ef1a95516&#45;d35a&#45;4188&#45;a64a&#45;2973f367099c</title>
<polygon fill="#eeeeee" stroke="black" points="626.098,-128 615.098,-128 615.098,-92 626.098,-92 626.098,-128"/>
</g>
<!-- e827b2b8c&#45;14af&#45;4321&#45;81d2&#45;a0fda6100f86&#45;&gt;ef1a95516&#45;d35a&#45;4188&#45;a64a&#45;2973f367099c -->
<g id="e34d8430e&#45;d9b8&#45;4a53&#45;8d23&#45;57885ed6b829" class="edge"><title>e827b2b8c&#45;14af&#45;4321&#45;81d2&#45;a0fda6100f86&#45;&gt;ef1a95516&#45;d35a&#45;4188&#45;a64a&#45;2973f367099c</title>
<path fill="none" stroke="black" d="M575.724,-145.099C585.189,-137.527 597.711,-127.509 606.954,-120.115"/>
<polygon fill="black" stroke="black" points="609.247,-122.763 614.869,-113.783 604.874,-117.297 609.247,-122.763"/>
</g>
<!-- e47b9da3d&#45;7855&#45;4073&#45;a99c&#45;ac68279e7f9a -->
<g id="e47b9da3d&#45;7855&#45;4073&#45;a99c&#45;ac68279e7f9a" class="node"><title>e47b9da3d&#45;7855&#45;4073&#45;a99c&#45;ac68279e7f9a</title>
<polygon fill="#eeeeee" stroke="black" points="626.098,-182 615.098,-182 615.098,-146 626.098,-146 626.098,-182"/>
</g>
<!-- e827b2b8c&#45;14af&#45;4321&#45;81d2&#45;a0fda6100f86&#45;&gt;e47b9da3d&#45;7855&#45;4073&#45;a99c&#45;ac68279e7f9a -->
<g id="e3d255840&#45;27c3&#45;4789&#45;976f&#45;11b350f35406" class="edge"><title>e827b2b8c&#45;14af&#45;4321&#45;81d2&#45;a0fda6100f86&#45;&gt;e47b9da3d&#45;7855&#45;4073&#45;a99c&#45;ac68279e7f9a</title>
<path fill="none" stroke="black" d="M579.038,-158.357C587.134,-159.483 596.741,-160.82 604.573,-161.91"/>
<polygon fill="black" stroke="black" points="604.283,-165.403 614.67,-163.314 605.248,-158.47 604.283,-165.403"/>
</g>
<!-- ec44861da&#45;3f65&#45;4949&#45;b6c1&#45;1f193523ce95 -->
<g id="ec44861da&#45;3f65&#45;4949&#45;b6c1&#45;1f193523ce95" class="node"><title>ec44861da&#45;3f65&#45;4949&#45;b6c1&#45;1f193523ce95</title>
<ellipse fill="none" stroke="black" cx="384.997" cy="-156" rx="18" ry="18"/>
</g>
<!-- e1ac6b45c&#45;5aa5&#45;48e8&#45;b483&#45;46a9cee37a95 -->
<g id="e1ac6b45c&#45;5aa5&#45;48e8&#45;b483&#45;46a9cee37a95" class="node"><title>e1ac6b45c&#45;5aa5&#45;48e8&#45;b483&#45;46a9cee37a95</title>
<polygon fill="none" stroke="black" points="507.148,-174 438.946,-174 438.946,-138 507.148,-138 507.148,-174"/>
<text text-anchor="middle" x="473.047" y="-151.8" font-family="Times,serif" font-size="14.00">O_SENT</text>
</g>
<!-- ec44861da&#45;3f65&#45;4949&#45;b6c1&#45;1f193523ce95&#45;&gt;e1ac6b45c&#45;5aa5&#45;48e8&#45;b483&#45;46a9cee37a95 -->
<g id="eed13ce37&#45;ce24&#45;4582&#45;862d&#45;40d4c26aa1ff" class="edge"><title>ec44861da&#45;3f65&#45;4949&#45;b6c1&#45;1f193523ce95&#45;&gt;e1ac6b45c&#45;5aa5&#45;48e8&#45;b483&#45;46a9cee37a95</title>
<path fill="none" stroke="black" d="M402.997,-156C410.4,-156 419.448,-156 428.525,-156"/>
<polygon fill="black" stroke="black" points="428.701,-159.5 438.701,-156 428.701,-152.5 428.701,-159.5"/>
</g>
<!-- ef06cdbe3&#45;3c7e&#45;4638&#45;9340&#45;d1afcb02cd06 -->
<g id="ef06cdbe3&#45;3c7e&#45;4638&#45;9340&#45;d1afcb02cd06" class="node"><title>ef06cdbe3&#45;3c7e&#45;4638&#45;9340&#45;d1afcb02cd06</title>
<ellipse fill="none" stroke="black" cx="1171.52" cy="-156" rx="18" ry="18"/>
</g>
<!-- e26050cb0&#45;2cbc&#45;4bc5&#45;92d4&#45;ff92d2bad7b2 -->
<g id="e26050cb0&#45;2cbc&#45;4bc5&#45;92d4&#45;ff92d2bad7b2" class="node"><title>e26050cb0&#45;2cbc&#45;4bc5&#45;92d4&#45;ff92d2bad7b2</title>
<polygon fill="#eeeeee" stroke="black" points="1236.52,-128 1225.52,-128 1225.52,-92 1236.52,-92 1236.52,-128"/>
</g>
<!-- ef06cdbe3&#45;3c7e&#45;4638&#45;9340&#45;d1afcb02cd06&#45;&gt;e26050cb0&#45;2cbc&#45;4bc5&#45;92d4&#45;ff92d2bad7b2 -->
<g id="ece3da598&#45;36cc&#45;4341&#45;bfff&#45;f0e44f4a4bb1" class="edge"><title>ef06cdbe3&#45;3c7e&#45;4638&#45;9340&#45;d1afcb02cd06&#45;&gt;e26050cb0&#45;2cbc&#45;4bc5&#45;92d4&#45;ff92d2bad7b2</title>
<path fill="none" stroke="black" d="M1186.15,-145.099C1195.61,-137.527 1208.14,-127.509 1217.38,-120.115"/>
<polygon fill="black" stroke="black" points="1219.67,-122.763 1225.3,-113.783 1215.3,-117.297 1219.67,-122.763"/>
</g>
<!-- e1d7b5db3&#45;440e&#45;465d&#45;88b6&#45;4af1330ecc62 -->
<g id="e1d7b5db3&#45;440e&#45;465d&#45;88b6&#45;4af1330ecc62" class="node"><title>e1d7b5db3&#45;440e&#45;465d&#45;88b6&#45;4af1330ecc62</title>
<polygon fill="#eeeeee" stroke="black" points="1236.52,-182 1225.52,-182 1225.52,-146 1236.52,-146 1236.52,-182"/>
</g>
<!-- ef06cdbe3&#45;3c7e&#45;4638&#45;9340&#45;d1afcb02cd06&#45;&gt;e1d7b5db3&#45;440e&#45;465d&#45;88b6&#45;4af1330ecc62 -->
<g id="e3ad7d8cf&#45;60fa&#45;433d&#45;8163&#45;b3cfea8991aa" class="edge"><title>ef06cdbe3&#45;3c7e&#45;4638&#45;9340&#45;d1afcb02cd06&#45;&gt;e1d7b5db3&#45;440e&#45;465d&#45;88b6&#45;4af1330ecc62</title>
<path fill="none" stroke="black" d="M1189.46,-158.357C1197.56,-159.483 1207.17,-160.82 1215,-161.91"/>
<polygon fill="black" stroke="black" points="1214.71,-165.403 1225.1,-163.314 1215.67,-158.47 1214.71,-165.403"/>
</g>
<!-- e4940e12a&#45;2786&#45;43d9&#45;9d8c&#45;396e957cb68b -->
<g id="e4940e12a&#45;2786&#45;43d9&#45;9d8c&#45;396e957cb68b" class="node"><title>e4940e12a&#45;2786&#45;43d9&#45;9d8c&#45;396e957cb68b</title>
<ellipse fill="none" stroke="black" cx="918.098" cy="-156" rx="18" ry="18"/>
</g>
<!-- ec1e159db&#45;8015&#45;4b82&#45;bbda&#45;90f8af6f6094 -->
<g id="ec1e159db&#45;8015&#45;4b82&#45;bbda&#45;90f8af6f6094" class="node"><title>ec1e159db&#45;8015&#45;4b82&#45;bbda&#45;90f8af6f6094</title>
<polygon fill="none" stroke="black" points="1117.74,-174 971.884,-174 971.884,-138 1117.74,-138 1117.74,-174"/>
<text text-anchor="middle" x="1044.81" y="-151.8" font-family="Times,serif" font-size="14.00">W_Valideren aanvraag</text>
</g>
<!-- e4940e12a&#45;2786&#45;43d9&#45;9d8c&#45;396e957cb68b&#45;&gt;ec1e159db&#45;8015&#45;4b82&#45;bbda&#45;90f8af6f6094 -->
<g id="eccf5c218&#45;a9ba&#45;4d0a&#45;8bcd&#45;db5efa7c75cd" class="edge"><title>e4940e12a&#45;2786&#45;43d9&#45;9d8c&#45;396e957cb68b&#45;&gt;ec1e159db&#45;8015&#45;4b82&#45;bbda&#45;90f8af6f6094</title>
<path fill="none" stroke="black" d="M936.177,-156C943.356,-156 952.273,-156 961.879,-156"/>
<polygon fill="black" stroke="black" points="962.095,-159.5 972.095,-156 962.095,-152.5 962.095,-159.5"/>
</g>
<!-- e8a3aa2f5&#45;52c2&#45;49c6&#45;9814&#45;9d94d67bd233 -->
<g id="e8a3aa2f5&#45;52c2&#45;49c6&#45;9814&#45;9d94d67bd233" class="node"><title>e8a3aa2f5&#45;52c2&#45;49c6&#45;9814&#45;9d94d67bd233</title>
<ellipse fill="none" stroke="black" cx="384.997" cy="-64" rx="18" ry="18"/>
</g>
<!-- e19f532ed&#45;780d&#45;46e5&#45;85b4&#45;6ece3f0c19f9 -->
<g id="e19f532ed&#45;780d&#45;46e5&#45;85b4&#45;6ece3f0c19f9" class="node"><title>e19f532ed&#45;780d&#45;46e5&#45;85b4&#45;6ece3f0c19f9</title>
<polygon fill="#eeeeee" stroke="black" points="478.547,-36 467.547,-36 467.547,-0 478.547,-0 478.547,-36"/>
</g>
<!-- e8a3aa2f5&#45;52c2&#45;49c6&#45;9814&#45;9d94d67bd233&#45;&gt;e19f532ed&#45;780d&#45;46e5&#45;85b4&#45;6ece3f0c19f9 -->
<g id="e39c262b2&#45;b5d6&#45;42ac&#45;ad7a&#45;e4e25b678f59" class="edge"><title>e8a3aa2f5&#45;52c2&#45;49c6&#45;9814&#45;9d94d67bd233&#45;&gt;e19f532ed&#45;780d&#45;46e5&#45;85b4&#45;6ece3f0c19f9</title>
<path fill="none" stroke="black" d="M401.381,-55.7761C417.563,-47.1254 442.793,-33.6385 458.322,-25.3372"/>
<polygon fill="black" stroke="black" points="460.123,-28.3428 467.292,-20.5418 456.823,-22.1695 460.123,-28.3428"/>
</g>
<!-- edf2bc3be&#45;4097&#45;4de6&#45;9396&#45;10f6233b370d -->
<g id="edf2bc3be&#45;4097&#45;4de6&#45;9396&#45;10f6233b370d" class="node"><title>edf2bc3be&#45;4097&#45;4de6&#45;9396&#45;10f6233b370d</title>
<polygon fill="#eeeeee" stroke="black" points="685.598,-82 674.598,-82 674.598,-46 685.598,-46 685.598,-82"/>
</g>
<!-- e8a3aa2f5&#45;52c2&#45;49c6&#45;9814&#45;9d94d67bd233&#45;&gt;edf2bc3be&#45;4097&#45;4de6&#45;9396&#45;10f6233b370d -->
<g id="e131939cb&#45;8ac0&#45;403d&#45;8fd5&#45;ade7eb091b2e" class="edge"><title>e8a3aa2f5&#45;52c2&#45;49c6&#45;9814&#45;9d94d67bd233&#45;&gt;edf2bc3be&#45;4097&#45;4de6&#45;9396&#45;10f6233b370d</title>
<path fill="none" stroke="black" d="M403.022,-64C455.509,-64 614.276,-64 664.024,-64"/>
<polygon fill="black" stroke="black" points="664.191,-67.5001 674.191,-64 664.191,-60.5001 664.191,-67.5001"/>
</g>
<!-- e3c75b0df&#45;ea71&#45;4964&#45;a806&#45;6f8e33eecac8 -->
<g id="e3c75b0df&#45;ea71&#45;4964&#45;a806&#45;6f8e33eecac8" class="node"><title>e3c75b0df&#45;ea71&#45;4964&#45;a806&#45;6f8e33eecac8</title>
<ellipse fill="none" stroke="black" cx="137" cy="-64" rx="18" ry="18"/>
</g>
<!-- e6c470209&#45;48cc&#45;4397&#45;940f&#45;6dc5b93d85e5 -->
<g id="e6c470209&#45;48cc&#45;4397&#45;940f&#45;6dc5b93d85e5" class="node"><title>e6c470209&#45;48cc&#45;4397&#45;940f&#45;6dc5b93d85e5</title>
<polygon fill="none" stroke="black" points="330.995,-82 191.002,-82 191.002,-46 330.995,-46 330.995,-82"/>
<text text-anchor="middle" x="260.998" y="-59.8" font-family="Times,serif" font-size="14.00">W_Beoordelen fraude</text>
</g>
<!-- e3c75b0df&#45;ea71&#45;4964&#45;a806&#45;6f8e33eecac8&#45;&gt;e6c470209&#45;48cc&#45;4397&#45;940f&#45;6dc5b93d85e5 -->
<g id="e62c410bb&#45;1713&#45;4c60&#45;a06e&#45;7e01a959a949" class="edge"><title>e3c75b0df&#45;ea71&#45;4964&#45;a806&#45;6f8e33eecac8&#45;&gt;e6c470209&#45;48cc&#45;4397&#45;940f&#45;6dc5b93d85e5</title>
<path fill="none" stroke="black" d="M155.221,-64C162.387,-64 171.256,-64 180.778,-64"/>
<polygon fill="black" stroke="black" points="180.893,-67.5001 190.893,-64 180.893,-60.5001 180.893,-67.5001"/>
</g>
<!-- e35f5adb6&#45;a634&#45;4189&#45;bfc5&#45;329087aaf5f2&#45;&gt;e57f0f3e7&#45;c1a5&#45;48ad&#45;a89c&#45;69707224fa5e -->
<g id="e0cce3e3a&#45;fbd2&#45;4462&#45;8455&#45;f0a35085607f" class="edge"><title>e35f5adb6&#45;a634&#45;4189&#45;bfc5&#45;329087aaf5f2&#45;&gt;e57f0f3e7&#45;c1a5&#45;48ad&#45;a89c&#45;69707224fa5e</title>
<path fill="none" stroke="black" d="M83.0119,-137.728C90.6069,-147.37 106.326,-167.327 118.681,-183.012"/>
<polygon fill="black" stroke="black" points="116.188,-185.504 125.126,-191.194 121.687,-181.173 116.188,-185.504"/>
</g>
<!-- e35f5adb6&#45;a634&#45;4189&#45;bfc5&#45;329087aaf5f2&#45;&gt;ef593909f&#45;7e99&#45;4a7b&#45;b183&#45;d9dfd52455fb -->
<g id="eb9e1e5e1&#45;1f08&#45;4521&#45;b77f&#45;015e759659ee" class="edge"><title>e35f5adb6&#45;a634&#45;4189&#45;bfc5&#45;329087aaf5f2&#45;&gt;ef593909f&#45;7e99&#45;4a7b&#45;b183&#45;d9dfd52455fb</title>
<path fill="none" stroke="black" d="M83.0119,-132C88.6709,-132 98.8402,-132 108.767,-132"/>
<polygon fill="black" stroke="black" points="108.826,-135.5 118.826,-132 108.826,-128.5 108.826,-135.5"/>
</g>
<!-- e6d8a8eed&#45;64b1&#45;41c7&#45;81ce&#45;91dfa8c4e576&#45;&gt;ef7b6ec44&#45;2f1e&#45;43ff&#45;98ce&#45;265c745259b7 -->
<g id="e5583ca0f&#45;2e17&#45;4251&#45;846e&#45;03b73c754dcf" class="edge"><title>e6d8a8eed&#45;64b1&#45;41c7&#45;81ce&#45;91dfa8c4e576&#45;&gt;ef7b6ec44&#45;2f1e&#45;43ff&#45;98ce&#45;265c745259b7</title>
<path fill="none" stroke="black" d="M745.11,-186C750.769,-186 760.938,-186 770.865,-186"/>
<polygon fill="black" stroke="black" points="770.924,-189.5 780.924,-186 770.924,-182.5 770.924,-189.5"/>
</g>
<!-- ef8127020&#45;2da3&#45;46c5&#45;91e4&#45;6221eeb55993&#45;&gt;ea582b038&#45;7b9a&#45;4264&#45;b159&#45;22b9cd4d304e -->
<g id="eb8342538&#45;e03d&#45;455e&#45;ba73&#45;1fb22cd6663e" class="edge"><title>ef8127020&#45;2da3&#45;46c5&#45;91e4&#45;6221eeb55993&#45;&gt;ea582b038&#45;7b9a&#45;4264&#45;b159&#45;22b9cd4d304e</title>
<path fill="none" stroke="black" d="M309.893,-210C373.065,-210 482.14,-210 532.788,-210"/>
<polygon fill="black" stroke="black" points="532.952,-213.5 542.952,-210 532.952,-206.5 532.952,-213.5"/>
</g>
<!-- e12e1a2fb&#45;33ab&#45;4bd6&#45;9d83&#45;f7bc18089e73&#45;&gt;ec44861da&#45;3f65&#45;4949&#45;b6c1&#45;1f193523ce95 -->
<g id="ed1e9566d&#45;7b3e&#45;416b&#45;be93&#45;d6e1e958393a" class="edge"><title>e12e1a2fb&#45;33ab&#45;4bd6&#45;9d83&#45;f7bc18089e73&#45;&gt;ec44861da&#45;3f65&#45;4949&#45;b6c1&#45;1f193523ce95</title>
<path fill="none" stroke="black" d="M312.677,-156C327.816,-156 343.829,-156 356.837,-156"/>
<polygon fill="black" stroke="black" points="356.973,-159.5 366.973,-156 356.973,-152.5 356.973,-159.5"/>
</g>
<!-- e1ac6b45c&#45;5aa5&#45;48e8&#45;b483&#45;46a9cee37a95&#45;&gt;e827b2b8c&#45;14af&#45;4321&#45;81d2&#45;a0fda6100f86 -->
<g id="e64c7c942&#45;fd8b&#45;44ac&#45;af58&#45;0cd89e987eb7" class="edge"><title>e1ac6b45c&#45;5aa5&#45;48e8&#45;b483&#45;46a9cee37a95&#45;&gt;e827b2b8c&#45;14af&#45;4321&#45;81d2&#45;a0fda6100f86</title>
<path fill="none" stroke="black" d="M507.563,-156C515.868,-156 524.672,-156 532.649,-156"/>
<polygon fill="black" stroke="black" points="532.891,-159.5 542.891,-156 532.891,-152.5 532.891,-159.5"/>
</g>
<!-- ef1a95516&#45;d35a&#45;4188&#45;a64a&#45;2973f367099c&#45;&gt;ef593909f&#45;7e99&#45;4a7b&#45;b183&#45;d9dfd52455fb -->
<g id="e65d1a0f1&#45;5d2f&#45;4dbd&#45;942a&#45;12fc8f528f61" class="edge"><title>ef1a95516&#45;d35a&#45;4188&#45;a64a&#45;2973f367099c&#45;&gt;ef593909f&#45;7e99&#45;4a7b&#45;b183&#45;d9dfd52455fb</title>
<path fill="none" stroke="black" d="M615.07,-110C597.175,-110 529.639,-110 474.047,-110 383.997,-110 383.997,-110 383.997,-110 304.178,-110 210.369,-121.633 165.12,-127.98"/>
<polygon fill="black" stroke="black" points="164.357,-124.554 154.953,-129.433 165.347,-131.483 164.357,-124.554"/>
</g>
<!-- e47b9da3d&#45;7855&#45;4073&#45;a99c&#45;ac68279e7f9a&#45;&gt;e4c2810fb&#45;54e8&#45;4d45&#45;8922&#45;b0479b52dd8d -->
<g id="eeff9efed&#45;5984&#45;4d00&#45;8c20&#45;f6db64ef05a8" class="edge"><title>e47b9da3d&#45;7855&#45;4073&#45;a99c&#45;ac68279e7f9a&#45;&gt;e4c2810fb&#45;54e8&#45;4d45&#45;8922&#45;b0479b52dd8d</title>
<path fill="none" stroke="black" d="M626.11,-164C631.769,-164 641.938,-164 651.865,-164"/>
<polygon fill="black" stroke="black" points="651.924,-167.5 661.924,-164 651.924,-160.5 651.924,-167.5"/>
</g>
<!-- e5ecf256e&#45;dcf5&#45;48b4&#45;a02f&#45;1f05cdf4b44c&#45;&gt;e50e4c7d8&#45;aa2c&#45;4340&#45;b57d&#45;6e261eb5d64c -->
<g id="e844dc296&#45;4750&#45;4c31&#45;8e20&#45;0000bb9776bc" class="edge"><title>e5ecf256e&#45;dcf5&#45;48b4&#45;a02f&#45;1f05cdf4b44c&#45;&gt;e50e4c7d8&#45;aa2c&#45;4340&#45;b57d&#45;6e261eb5d64c</title>
<path fill="none" stroke="black" d="M923.685,-210.416C952.651,-212.905 1112.93,-224.604 1236.52,-191 1246.62,-188.254 1257.03,-183.451 1265.92,-178.65"/>
<polygon fill="black" stroke="black" points="1267.93,-181.532 1274.89,-173.538 1264.47,-175.451 1267.93,-181.532"/>
</g>
<!-- e7d9dc270&#45;7015&#45;4ed2&#45;8c0e&#45;7da76ca2fa64&#45;&gt;e4940e12a&#45;2786&#45;43d9&#45;9d8c&#45;396e957cb68b -->
<g id="e3efbb26b&#45;fd46&#45;4d77&#45;a3b6&#45;b7765bf77a98" class="edge"><title>e7d9dc270&#45;7015&#45;4ed2&#45;8c0e&#45;7da76ca2fa64&#45;&gt;e4940e12a&#45;2786&#45;43d9&#45;9d8c&#45;396e957cb68b</title>
<path fill="none" stroke="black" d="M864.11,-157.843C869.769,-157.646 879.938,-157.293 889.865,-156.947"/>
<polygon fill="black" stroke="black" points="890.051,-160.443 899.924,-156.597 889.808,-153.447 890.051,-160.443"/>
</g>
<!-- ec1e159db&#45;8015&#45;4b82&#45;bbda&#45;90f8af6f6094&#45;&gt;ef06cdbe3&#45;3c7e&#45;4638&#45;9340&#45;d1afcb02cd06 -->
<g id="ed9804ec9&#45;4ed0&#45;4fa0&#45;8895&#45;f9b30b77fe01" class="edge"><title>ec1e159db&#45;8015&#45;4b82&#45;bbda&#45;90f8af6f6094&#45;&gt;ef06cdbe3&#45;3c7e&#45;4638&#45;9340&#45;d1afcb02cd06</title>
<path fill="none" stroke="black" d="M1117.63,-156C1126.61,-156 1135.33,-156 1143,-156"/>
<polygon fill="black" stroke="black" points="1143.08,-159.5 1153.08,-156 1143.08,-152.5 1143.08,-159.5"/>
</g>
<!-- e26050cb0&#45;2cbc&#45;4bc5&#45;92d4&#45;ff92d2bad7b2&#45;&gt;e4940e12a&#45;2786&#45;43d9&#45;9d8c&#45;396e957cb68b -->
<g id="e4370bd8b&#45;5f3d&#45;4ef9&#45;84a5&#45;5107e12aa0ed" class="edge"><title>e26050cb0&#45;2cbc&#45;4bc5&#45;92d4&#45;ff92d2bad7b2&#45;&gt;e4940e12a&#45;2786&#45;43d9&#45;9d8c&#45;396e957cb68b</title>
<path fill="none" stroke="black" d="M1225.33,-109.666C1199.38,-107.962 1071.13,-101.342 972.098,-129 962.018,-131.815 951.613,-136.633 942.72,-141.426"/>
<polygon fill="black" stroke="black" points="940.716,-138.539 933.75,-146.522 944.174,-144.625 940.716,-138.539"/>
</g>
<!-- e1d7b5db3&#45;440e&#45;465d&#45;88b6&#45;4af1330ecc62&#45;&gt;e50e4c7d8&#45;aa2c&#45;4340&#45;b57d&#45;6e261eb5d64c -->
<g id="e4657fe9c&#45;1e83&#45;4781&#45;b226&#45;82331fcf061d" class="edge"><title>e1d7b5db3&#45;440e&#45;465d&#45;88b6&#45;4af1330ecc62&#45;&gt;e50e4c7d8&#45;aa2c&#45;4340&#45;b57d&#45;6e261eb5d64c</title>
<path fill="none" stroke="black" d="M1236.54,-164C1242.19,-164 1252.36,-164 1262.29,-164"/>
<polygon fill="black" stroke="black" points="1262.35,-167.5 1272.35,-164 1262.35,-160.5 1262.35,-167.5"/>
</g>
<!-- e3fa1335e&#45;8f33&#45;4a18&#45;8b0c&#45;de3ae9a5c009&#45;&gt;e3c75b0df&#45;ea71&#45;4964&#45;a806&#45;6f8e33eecac8 -->
<g id="e9763d44c&#45;f789&#45;40dc&#45;9932&#45;2117fd960edf" class="edge"><title>e3fa1335e&#45;8f33&#45;4a18&#45;8b0c&#45;de3ae9a5c009&#45;&gt;e3c75b0df&#45;ea71&#45;4964&#45;a806&#45;6f8e33eecac8</title>
<path fill="none" stroke="black" d="M83.0119,-68.6077C88.6709,-68.1156 98.8402,-67.2313 108.767,-66.368"/>
<polygon fill="black" stroke="black" points="109.167,-69.8466 118.826,-65.4934 108.56,-62.8729 109.167,-69.8466"/>
</g>
<!-- e6c470209&#45;48cc&#45;4397&#45;940f&#45;6dc5b93d85e5&#45;&gt;e8a3aa2f5&#45;52c2&#45;49c6&#45;9814&#45;9d94d67bd233 -->
<g id="ec602f1fd&#45;3d2b&#45;4a45&#45;80e7&#45;f33612ca580b" class="edge"><title>e6c470209&#45;48cc&#45;4397&#45;940f&#45;6dc5b93d85e5&#45;&gt;e8a3aa2f5&#45;52c2&#45;49c6&#45;9814&#45;9d94d67bd233</title>
<path fill="none" stroke="black" d="M331.196,-64C340.115,-64 348.796,-64 356.457,-64"/>
<polygon fill="black" stroke="black" points="356.527,-67.5001 366.527,-64 356.527,-60.5001 356.527,-67.5001"/>
</g>
<!-- e19f532ed&#45;780d&#45;46e5&#45;85b4&#45;6ece3f0c19f9&#45;&gt;e3c75b0df&#45;ea71&#45;4964&#45;a806&#45;6f8e33eecac8 -->
<g id="e4cf3cc75&#45;8468&#45;435c&#45;b46e&#45;d6f5ee8d0584" class="edge"><title>e19f532ed&#45;780d&#45;46e5&#45;85b4&#45;6ece3f0c19f9&#45;&gt;e3c75b0df&#45;ea71&#45;4964&#45;a806&#45;6f8e33eecac8</title>
<path fill="none" stroke="black" d="M467.294,-17.622C439.882,-15.5839 299.425,-7.0703 191,-37 180.912,-39.7847 170.505,-44.596 161.613,-49.3929"/>
<polygon fill="black" stroke="black" points="159.606,-46.5081 152.645,-54.4958 163.067,-52.5921 159.606,-46.5081"/>
</g>
<!-- edf2bc3be&#45;4097&#45;4de6&#45;9396&#45;10f6233b370d&#45;&gt;e50e4c7d8&#45;aa2c&#45;4340&#45;b57d&#45;6e261eb5d64c -->
<g id="e055e9d66&#45;d993&#45;4dcc&#45;9cc9&#45;e0119d54aaf6" class="edge"><title>edf2bc3be&#45;4097&#45;4de6&#45;9396&#45;10f6233b370d&#45;&gt;e50e4c7d8&#45;aa2c&#45;4340&#45;b57d&#45;6e261eb5d64c</title>
<path fill="none" stroke="black" d="M686.002,-64C702.076,-64 754.629,-64 798.098,-64 798.098,-64 798.098,-64 1172.52,-64 1202.19,-64 1212.72,-65.2806 1236.52,-83 1255.52,-97.1412 1269.66,-120.255 1278.54,-138.18"/>
<polygon fill="black" stroke="black" points="1275.5,-139.953 1282.92,-147.514 1281.84,-136.975 1275.5,-139.953"/>
</g>
</g>
</svg>
