<?xml version="1.0" encoding="UTF-8" standalone="no"?>
<!DOCTYPE svg PUBLIC "-//W3C//DTD SVG 1.1//EN"
 "http://www.w3.org/Graphics/SVG/1.1/DTD/svg11.dtd">
<!-- Generated by graphviz version 2.38.0 (20140413.2041)
 -->
<!-- Title: G Pages: 1 -->
<svg width="2006pt" height="417pt"
 viewBox="0.00 0.00 2005.94 417.00" xmlns="http://www.w3.org/2000/svg" xmlns:xlink="http://www.w3.org/1999/xlink">
<g id="graph0" class="graph" transform="scale(1 1) rotate(0) translate(4 413)">
<title>G</title>
<polygon fill="white" stroke="none" points="-4,4 -4,-413 2001.94,-413 2001.94,4 -4,4"/>
<!-- e97657b52&#45;646e&#45;4f0b&#45;a481&#45;f3c7674188fb -->
<g id="e97657b52&#45;646e&#45;4f0b&#45;a481&#45;f3c7674188fb" class="node"><title>e97657b52&#45;646e&#45;4f0b&#45;a481&#45;f3c7674188fb</title>
<ellipse fill="green" stroke="black" cx="18" cy="-291" rx="18" ry="18"/>
</g>
<!-- ee3e66124&#45;09ee&#45;4191&#45;a23f&#45;4f8e194d5753 -->
<g id="ee3e66124&#45;09ee&#45;4191&#45;a23f&#45;4f8e194d5753" class="node"><title>ee3e66124&#45;09ee&#45;4191&#45;a23f&#45;4f8e194d5753</title>
<polygon fill="none" stroke="black" points="185.303,-309 71.8988,-309 71.8988,-273 185.303,-273 185.303,-309"/>
<text text-anchor="middle" x="128.601" y="-286.8" font-family="Times,serif" font-size="14.00">A_SUBMITTED</text>
</g>
<!-- e97657b52&#45;646e&#45;4f0b&#45;a481&#45;f3c7674188fb&#45;&gt;ee3e66124&#45;09ee&#45;4191&#45;a23f&#45;4f8e194d5753 -->
<g id="ed034611e&#45;9ec6&#45;4098&#45;99c3&#45;d8819808bf73" class="edge"><title>e97657b52&#45;646e&#45;4f0b&#45;a481&#45;f3c7674188fb&#45;&gt;ee3e66124&#45;09ee&#45;4191&#45;a23f&#45;4f8e194d5753</title>
<path fill="none" stroke="black" d="M36.4486,-291C43.5819,-291 52.3216,-291 61.5361,-291"/>
<polygon fill="black" stroke="black" points="61.6677,-294.5 71.6676,-291 61.6676,-287.5 61.6677,-294.5"/>
</g>
<!-- e16a93b3b&#45;c14d&#45;4a94&#45;8c73&#45;20ae0974dc1d -->
<g id="e16a93b3b&#45;c14d&#45;4a94&#45;8c73&#45;20ae0974dc1d" class="node"><title>e16a93b3b&#45;c14d&#45;4a94&#45;8c73&#45;20ae0974dc1d</title>
<ellipse fill="red" stroke="black" cx="1979.94" cy="-365" rx="18" ry="18"/>
</g>
<!-- ed24bbe18&#45;0b9f&#45;4cea&#45;9c0d&#45;ab2444fb90c7 -->
<g id="ed24bbe18&#45;0b9f&#45;4cea&#45;9c0d&#45;ab2444fb90c7" class="node"><title>ed24bbe18&#45;0b9f&#45;4cea&#45;9c0d&#45;ab2444fb90c7</title>
<ellipse fill="none" stroke="black" cx="239.202" cy="-291" rx="18" ry="18"/>
</g>
<!-- ec0d09575&#45;f740&#45;4537&#45;9542&#45;1266ee268744 -->
<g id="ec0d09575&#45;f740&#45;4537&#45;9542&#45;1266ee268744" class="node"><title>ec0d09575&#45;f740&#45;4537&#45;9542&#45;1266ee268744</title>
<polygon fill="#eeeeee" stroke="black" points="304.202,-309 293.202,-309 293.202,-273 304.202,-273 304.202,-309"/>
</g>
<!-- ed24bbe18&#45;0b9f&#45;4cea&#45;9c0d&#45;ab2444fb90c7&#45;&gt;ec0d09575&#45;f740&#45;4537&#45;9542&#45;1266ee268744 -->
<g id="ed04f0d87&#45;6beb&#45;4c45&#45;9a36&#45;f57c3f3f1ba9" class="edge"><title>ed24bbe18&#45;0b9f&#45;4cea&#45;9c0d&#45;ab2444fb90c7&#45;&gt;ec0d09575&#45;f740&#45;4537&#45;9542&#45;1266ee268744</title>
<path fill="none" stroke="black" d="M257.454,-291C265.443,-291 274.85,-291 282.56,-291"/>
<polygon fill="black" stroke="black" points="282.831,-294.5 292.831,-291 282.831,-287.5 282.831,-294.5"/>
</g>
<!-- ea0cebe55&#45;b8b6&#45;4f92&#45;bcb7&#45;e0c21fa99e8e -->
<g id="ea0cebe55&#45;b8b6&#45;4f92&#45;bcb7&#45;e0c21fa99e8e" class="node"><title>ea0cebe55&#45;b8b6&#45;4f92&#45;bcb7&#45;e0c21fa99e8e</title>
<ellipse fill="none" stroke="black" cx="358.202" cy="-328" rx="18" ry="18"/>
</g>
<!-- e41d1cd94&#45;2eaf&#45;463a&#45;afff&#45;80676ce70e3e -->
<g id="e41d1cd94&#45;2eaf&#45;463a&#45;afff&#45;80676ce70e3e" class="node"><title>e41d1cd94&#45;2eaf&#45;463a&#45;afff&#45;80676ce70e3e</title>
<polygon fill="#eeeeee" stroke="black" points="482.702,-409 471.702,-409 471.702,-373 482.702,-373 482.702,-409"/>
</g>
<!-- ea0cebe55&#45;b8b6&#45;4f92&#45;bcb7&#45;e0c21fa99e8e&#45;&gt;e41d1cd94&#45;2eaf&#45;463a&#45;afff&#45;80676ce70e3e -->
<g id="eeba3ad23&#45;c92d&#45;4fd1&#45;b805&#45;ace832660315" class="edge"><title>ea0cebe55&#45;b8b6&#45;4f92&#45;bcb7&#45;e0c21fa99e8e&#45;&gt;e41d1cd94&#45;2eaf&#45;463a&#45;afff&#45;80676ce70e3e</title>
<path fill="none" stroke="black" d="M374.498,-336.236C397.494,-348.619 440.614,-371.837 462.583,-383.667"/>
<polygon fill="black" stroke="black" points="461.025,-386.803 471.489,-388.462 464.343,-380.639 461.025,-386.803"/>
</g>
<!-- e8d8e3fa2&#45;d3a2&#45;44ce&#45;82f8&#45;fc89d24ec14c -->
<g id="e8d8e3fa2&#45;d3a2&#45;44ce&#45;82f8&#45;fc89d24ec14c" class="node"><title>e8d8e3fa2&#45;d3a2&#45;44ce&#45;82f8&#45;fc89d24ec14c</title>
<polygon fill="#eeeeee" stroke="black" points="423.202,-346 412.202,-346 412.202,-310 423.202,-310 423.202,-346"/>
</g>
<!-- ea0cebe55&#45;b8b6&#45;4f92&#45;bcb7&#45;e0c21fa99e8e&#45;&gt;e8d8e3fa2&#45;d3a2&#45;44ce&#45;82f8&#45;fc89d24ec14c -->
<g id="e6b621cb8&#45;ad67&#45;43f4&#45;8355&#45;acf728547eaf" class="edge"><title>ea0cebe55&#45;b8b6&#45;4f92&#45;bcb7&#45;e0c21fa99e8e&#45;&gt;e8d8e3fa2&#45;d3a2&#45;44ce&#45;82f8&#45;fc89d24ec14c</title>
<path fill="none" stroke="black" d="M376.454,-328C384.443,-328 393.85,-328 401.56,-328"/>
<polygon fill="black" stroke="black" points="401.831,-331.5 411.831,-328 401.831,-324.5 401.831,-331.5"/>
</g>
<!-- e680bc9b9&#45;62ec&#45;4f05&#45;9292&#45;5864e0ab8e69 -->
<g id="e680bc9b9&#45;62ec&#45;4f05&#45;9292&#45;5864e0ab8e69" class="node"><title>e680bc9b9&#45;62ec&#45;4f05&#45;9292&#45;5864e0ab8e69</title>
<ellipse fill="none" stroke="black" cx="866.748" cy="-388" rx="18" ry="18"/>
</g>
<!-- ec314429b&#45;ea19&#45;4107&#45;ba4d&#45;2eb41e317902 -->
<g id="ec314429b&#45;ea19&#45;4107&#45;ba4d&#45;2eb41e317902" class="node"><title>ec314429b&#45;ea19&#45;4107&#45;ba4d&#45;2eb41e317902</title>
<polygon fill="#eeeeee" stroke="black" points="1925.94,-383 1914.94,-383 1914.94,-347 1925.94,-347 1925.94,-383"/>
</g>
<!-- e680bc9b9&#45;62ec&#45;4f05&#45;9292&#45;5864e0ab8e69&#45;&gt;ec314429b&#45;ea19&#45;4107&#45;ba4d&#45;2eb41e317902 -->
<g id="e98705699&#45;81aa&#45;4293&#45;9068&#45;6ba39ef101a9" class="edge"><title>e680bc9b9&#45;62ec&#45;4f05&#45;9292&#45;5864e0ab8e69&#45;&gt;ec314429b&#45;ea19&#45;4107&#45;ba4d&#45;2eb41e317902</title>
<path fill="none" stroke="black" d="M884.8,-388C907.58,-388 949.202,-388 984.748,-388 984.748,-388 984.748,-388 1750.95,-388 1808.3,-388 1875.63,-374.758 1904.77,-368.369"/>
<polygon fill="black" stroke="black" points="1905.8,-371.725 1914.78,-366.109 1904.26,-364.897 1905.8,-371.725"/>
</g>
<!-- ef42c6651&#45;724f&#45;4d6f&#45;b253&#45;46f94bfca0f5 -->
<g id="ef42c6651&#45;724f&#45;4d6f&#45;b253&#45;46f94bfca0f5" class="node"><title>ef42c6651&#45;724f&#45;4d6f&#45;b253&#45;46f94bfca0f5</title>
<ellipse fill="none" stroke="black" cx="747.748" cy="-347" rx="18" ry="18"/>
</g>
<!-- ee59123c1&#45;4dfb&#45;4864&#45;b33c&#45;4e93574942d4 -->
<g id="ee59123c1&#45;4dfb&#45;4864&#45;b33c&#45;4e93574942d4" class="node"><title>ee59123c1&#45;4dfb&#45;4864&#45;b33c&#45;4e93574942d4</title>
<polygon fill="#eeeeee" stroke="black" points="812.748,-319 801.748,-319 801.748,-283 812.748,-283 812.748,-319"/>
</g>
<!-- ef42c6651&#45;724f&#45;4d6f&#45;b253&#45;46f94bfca0f5&#45;&gt;ee59123c1&#45;4dfb&#45;4864&#45;b33c&#45;4e93574942d4 -->
<g id="efa7828f5&#45;345e&#45;458d&#45;a365&#45;90f36486d145" class="edge"><title>ef42c6651&#45;724f&#45;4d6f&#45;b253&#45;46f94bfca0f5&#45;&gt;ee59123c1&#45;4dfb&#45;4864&#45;b33c&#45;4e93574942d4</title>
<path fill="none" stroke="black" d="M762.375,-336.099C771.84,-328.527 784.362,-318.509 793.605,-311.115"/>
<polygon fill="black" stroke="black" points="795.898,-313.763 801.52,-304.783 791.525,-308.297 795.898,-313.763"/>
</g>
<!-- e5f1d6a02&#45;c2e9&#45;4563&#45;a971&#45;5eccd717e0b1 -->
<g id="e5f1d6a02&#45;c2e9&#45;4563&#45;a971&#45;5eccd717e0b1" class="node"><title>e5f1d6a02&#45;c2e9&#45;4563&#45;a971&#45;5eccd717e0b1</title>
<polygon fill="#eeeeee" stroke="black" points="812.748,-373 801.748,-373 801.748,-337 812.748,-337 812.748,-373"/>
</g>
<!-- ef42c6651&#45;724f&#45;4d6f&#45;b253&#45;46f94bfca0f5&#45;&gt;e5f1d6a02&#45;c2e9&#45;4563&#45;a971&#45;5eccd717e0b1 -->
<g id="ef313f6e3&#45;fd19&#45;4cd2&#45;b30c&#45;057d5bdc9b44" class="edge"><title>ef42c6651&#45;724f&#45;4d6f&#45;b253&#45;46f94bfca0f5&#45;&gt;e5f1d6a02&#45;c2e9&#45;4563&#45;a971&#45;5eccd717e0b1</title>
<path fill="none" stroke="black" d="M765.689,-349.357C773.785,-350.483 783.392,-351.82 791.224,-352.91"/>
<polygon fill="black" stroke="black" points="790.934,-356.403 801.321,-354.314 791.899,-349.47 790.934,-356.403"/>
</g>
<!-- e1ece095d&#45;e2ce&#45;48b7&#45;b199&#45;20d266ff67cd -->
<g id="e1ece095d&#45;e2ce&#45;48b7&#45;b199&#45;20d266ff67cd" class="node"><title>e1ece095d&#45;e2ce&#45;48b7&#45;b199&#45;20d266ff67cd</title>
<ellipse fill="none" stroke="black" cx="477.202" cy="-328" rx="18" ry="18"/>
</g>
<!-- ebeb6ccde&#45;70c2&#45;421d&#45;9901&#45;bca2cb962e51 -->
<g id="ebeb6ccde&#45;70c2&#45;421d&#45;9901&#45;bca2cb962e51" class="node"><title>ebeb6ccde&#45;70c2&#45;421d&#45;9901&#45;bca2cb962e51</title>
<polygon fill="none" stroke="black" points="693.522,-365 531.428,-365 531.428,-329 693.522,-329 693.522,-365"/>
<text text-anchor="middle" x="612.475" y="-342.8" font-family="Times,serif" font-size="14.00">W_Completeren aanvraag</text>
</g>
<!-- e1ece095d&#45;e2ce&#45;48b7&#45;b199&#45;20d266ff67cd&#45;&gt;ebeb6ccde&#45;70c2&#45;421d&#45;9901&#45;bca2cb962e51 -->
<g id="e10f67e44&#45;9bc3&#45;44b4&#45;a8d9&#45;0c9bd98751ca" class="edge"><title>e1ece095d&#45;e2ce&#45;48b7&#45;b199&#45;20d266ff67cd&#45;&gt;ebeb6ccde&#45;70c2&#45;421d&#45;9901&#45;bca2cb962e51</title>
<path fill="none" stroke="black" d="M495.081,-330.406C502.331,-331.44 511.405,-332.734 521.271,-334.14"/>
<polygon fill="black" stroke="black" points="520.969,-337.632 531.363,-335.579 521.957,-330.702 520.969,-337.632"/>
</g>
<!-- e4bcdd1c9&#45;9b42&#45;4b66&#45;80b3&#45;1e78c3048561 -->
<g id="e4bcdd1c9&#45;9b42&#45;4b66&#45;80b3&#45;1e78c3048561" class="node"><title>e4bcdd1c9&#45;9b42&#45;4b66&#45;80b3&#45;1e78c3048561</title>
<ellipse fill="none" stroke="black" cx="358.202" cy="-255" rx="18" ry="18"/>
</g>
<!-- e07c2c08b&#45;3b57&#45;4dba&#45;92b7&#45;5afdc43a8409 -->
<g id="e07c2c08b&#45;3b57&#45;4dba&#45;92b7&#45;5afdc43a8409" class="node"><title>e07c2c08b&#45;3b57&#45;4dba&#45;92b7&#45;5afdc43a8409</title>
<polygon fill="#eeeeee" stroke="black" points="617.975,-273 606.975,-273 606.975,-237 617.975,-237 617.975,-273"/>
</g>
<!-- e4bcdd1c9&#45;9b42&#45;4b66&#45;80b3&#45;1e78c3048561&#45;&gt;e07c2c08b&#45;3b57&#45;4dba&#45;92b7&#45;5afdc43a8409 -->
<g id="eb5f4e993&#45;ce04&#45;41b3&#45;94e3&#45;d0a54b312f3e" class="edge"><title>e4bcdd1c9&#45;9b42&#45;4b66&#45;80b3&#45;1e78c3048561&#45;&gt;e07c2c08b&#45;3b57&#45;4dba&#45;92b7&#45;5afdc43a8409</title>
<path fill="none" stroke="black" d="M376.542,-255C423.451,-255 552.286,-255 596.415,-255"/>
<polygon fill="black" stroke="black" points="596.663,-258.5 606.663,-255 596.663,-251.5 596.663,-258.5"/>
</g>
<!-- ea10478b6&#45;402d&#45;4151&#45;8623&#45;2778a64b5562 -->
<g id="ea10478b6&#45;402d&#45;4151&#45;8623&#45;2778a64b5562" class="node"><title>ea10478b6&#45;402d&#45;4151&#45;8623&#45;2778a64b5562</title>
<polygon fill="#eeeeee" stroke="black" points="423.202,-223 412.202,-223 412.202,-187 423.202,-187 423.202,-223"/>
</g>
<!-- e4bcdd1c9&#45;9b42&#45;4b66&#45;80b3&#45;1e78c3048561&#45;&gt;ea10478b6&#45;402d&#45;4151&#45;8623&#45;2778a64b5562 -->
<g id="ed4b32c29&#45;38c7&#45;4f6a&#45;98a7&#45;58dab8f2a211" class="edge"><title>e4bcdd1c9&#45;9b42&#45;4b66&#45;80b3&#45;1e78c3048561&#45;&gt;ea10478b6&#45;402d&#45;4151&#45;8623&#45;2778a64b5562</title>
<path fill="none" stroke="black" d="M372.25,-243.654C381.892,-235.27 394.933,-223.929 404.395,-215.702"/>
<polygon fill="black" stroke="black" points="406.893,-218.168 412.142,-208.965 402.299,-212.886 406.893,-218.168"/>
</g>
<!-- e6005f90a&#45;ce99&#45;4ebe&#45;bb3e&#45;9f3908a56ddd -->
<g id="e6005f90a&#45;ce99&#45;4ebe&#45;bb3e&#45;9f3908a56ddd" class="node"><title>e6005f90a&#45;ce99&#45;4ebe&#45;bb3e&#45;9f3908a56ddd</title>
<ellipse fill="none" stroke="black" cx="1860.94" cy="-342" rx="18" ry="18"/>
</g>
<!-- e6005f90a&#45;ce99&#45;4ebe&#45;bb3e&#45;9f3908a56ddd&#45;&gt;ec314429b&#45;ea19&#45;4107&#45;ba4d&#45;2eb41e317902 -->
<g id="ebfc1b657&#45;4e90&#45;4c73&#45;9e3d&#45;318c42be292b" class="edge"><title>e6005f90a&#45;ce99&#45;4ebe&#45;bb3e&#45;9f3908a56ddd&#45;&gt;ec314429b&#45;ea19&#45;4107&#45;ba4d&#45;2eb41e317902</title>
<path fill="none" stroke="black" d="M1877.96,-348.407C1886.55,-351.843 1897.04,-356.039 1905.32,-359.352"/>
<polygon fill="black" stroke="black" points="1904.27,-362.703 1914.86,-363.168 1906.87,-356.204 1904.27,-362.703"/>
</g>
<!-- ee6641687&#45;2191&#45;420e&#45;830c&#45;90b122c59b19 -->
<g id="ee6641687&#45;2191&#45;420e&#45;830c&#45;90b122c59b19" class="node"><title>ee6641687&#45;2191&#45;420e&#45;830c&#45;90b122c59b19</title>
<ellipse fill="none" stroke="black" cx="866.748" cy="-217" rx="18" ry="18"/>
</g>
<!-- ea0245b2b&#45;65db&#45;40d5&#45;87f5&#45;433c7b8512a2 -->
<g id="ea0245b2b&#45;65db&#45;40d5&#45;87f5&#45;433c7b8512a2" class="node"><title>ea0245b2b&#45;65db&#45;40d5&#45;87f5&#45;433c7b8512a2</title>
<polygon fill="#eeeeee" stroke="black" points="991.248,-268 980.248,-268 980.248,-232 991.248,-232 991.248,-268"/>
</g>
<!-- ee6641687&#45;2191&#45;420e&#45;830c&#45;90b122c59b19&#45;&gt;ea0245b2b&#45;65db&#45;40d5&#45;87f5&#45;433c7b8512a2 -->
<g id="e32c66688&#45;53c5&#45;44af&#45;be4e&#45;3675c3dad165" class="edge"><title>ee6641687&#45;2191&#45;420e&#45;830c&#45;90b122c59b19&#45;&gt;ea0245b2b&#45;65db&#45;40d5&#45;87f5&#45;433c7b8512a2</title>
<path fill="none" stroke="black" d="M884.263,-221.658C907.224,-228.134 948.42,-239.754 970.251,-245.911"/>
<polygon fill="black" stroke="black" points="969.574,-249.356 980.148,-248.703 971.474,-242.619 969.574,-249.356"/>
</g>
<!-- e742bbde5&#45;8727&#45;40d3&#45;bb16&#45;a4d3d8531a2d -->
<g id="e742bbde5&#45;8727&#45;40d3&#45;bb16&#45;a4d3d8531a2d" class="node"><title>e742bbde5&#45;8727&#45;40d3&#45;bb16&#45;a4d3d8531a2d</title>
<polygon fill="#eeeeee" stroke="black" points="931.748,-216 920.748,-216 920.748,-180 931.748,-180 931.748,-216"/>
</g>
<!-- ee6641687&#45;2191&#45;420e&#45;830c&#45;90b122c59b19&#45;&gt;e742bbde5&#45;8727&#45;40d3&#45;bb16&#45;a4d3d8531a2d -->
<g id="ed4ae3d99&#45;e304&#45;40c1&#45;b3cd&#45;b496e0a3218e" class="edge"><title>ee6641687&#45;2191&#45;420e&#45;830c&#45;90b122c59b19&#45;&gt;e742bbde5&#45;8727&#45;40d3&#45;bb16&#45;a4d3d8531a2d</title>
<path fill="none" stroke="black" d="M884.072,-211.606C892.557,-208.802 902.831,-205.408 910.993,-202.71"/>
<polygon fill="black" stroke="black" points="912.322,-205.958 920.718,-199.497 910.125,-199.311 912.322,-205.958"/>
</g>
<!-- e0850bca7&#45;a87b&#45;45f4&#45;acdc&#45;0204520fe05e -->
<g id="e0850bca7&#45;a87b&#45;45f4&#45;acdc&#45;0204520fe05e" class="node"><title>e0850bca7&#45;a87b&#45;45f4&#45;acdc&#45;0204520fe05e</title>
<ellipse fill="none" stroke="black" cx="747.748" cy="-201" rx="18" ry="18"/>
</g>
<!-- e32619e74&#45;103a&#45;49fb&#45;a8f0&#45;16a7b6cded51 -->
<g id="e32619e74&#45;103a&#45;49fb&#45;a8f0&#45;16a7b6cded51" class="node"><title>e32619e74&#45;103a&#45;49fb&#45;a8f0&#45;16a7b6cded51</title>
<polygon fill="#eeeeee" stroke="black" points="812.748,-173 801.748,-173 801.748,-137 812.748,-137 812.748,-173"/>
</g>
<!-- e0850bca7&#45;a87b&#45;45f4&#45;acdc&#45;0204520fe05e&#45;&gt;e32619e74&#45;103a&#45;49fb&#45;a8f0&#45;16a7b6cded51 -->
<g id="ed315b113&#45;2d17&#45;4e37&#45;be0d&#45;2c5bd4334d52" class="edge"><title>e0850bca7&#45;a87b&#45;45f4&#45;acdc&#45;0204520fe05e&#45;&gt;e32619e74&#45;103a&#45;49fb&#45;a8f0&#45;16a7b6cded51</title>
<path fill="none" stroke="black" d="M762.375,-190.099C771.84,-182.527 784.362,-172.509 793.605,-165.115"/>
<polygon fill="black" stroke="black" points="795.898,-167.763 801.52,-158.783 791.525,-162.297 795.898,-167.763"/>
</g>
<!-- e9967d79b&#45;47ff&#45;4d5b&#45;9af1&#45;4e283782108b -->
<g id="e9967d79b&#45;47ff&#45;4d5b&#45;9af1&#45;4e283782108b" class="node"><title>e9967d79b&#45;47ff&#45;4d5b&#45;9af1&#45;4e283782108b</title>
<polygon fill="#eeeeee" stroke="black" points="812.748,-227 801.748,-227 801.748,-191 812.748,-191 812.748,-227"/>
</g>
<!-- e0850bca7&#45;a87b&#45;45f4&#45;acdc&#45;0204520fe05e&#45;&gt;e9967d79b&#45;47ff&#45;4d5b&#45;9af1&#45;4e283782108b -->
<g id="e55b0deda&#45;6c9b&#45;4390&#45;ab0d&#45;c9f43032c9d5" class="edge"><title>e0850bca7&#45;a87b&#45;45f4&#45;acdc&#45;0204520fe05e&#45;&gt;e9967d79b&#45;47ff&#45;4d5b&#45;9af1&#45;4e283782108b</title>
<path fill="none" stroke="black" d="M765.689,-203.357C773.785,-204.483 783.392,-205.82 791.224,-206.91"/>
<polygon fill="black" stroke="black" points="790.934,-210.403 801.321,-208.314 791.899,-203.47 790.934,-210.403"/>
</g>
<!-- e05409623&#45;d2c6&#45;48ee&#45;a62f&#45;a7566982d5fb -->
<g id="e05409623&#45;d2c6&#45;48ee&#45;a62f&#45;a7566982d5fb" class="node"><title>e05409623&#45;d2c6&#45;48ee&#45;a62f&#45;a7566982d5fb</title>
<ellipse fill="none" stroke="black" cx="477.202" cy="-201" rx="18" ry="18"/>
</g>
<!-- e0f95ecc0&#45;59ee&#45;4787&#45;a07c&#45;091308f3bddc -->
<g id="e0f95ecc0&#45;59ee&#45;4787&#45;a07c&#45;091308f3bddc" class="node"><title>e0f95ecc0&#45;59ee&#45;4787&#45;a07c&#45;091308f3bddc</title>
<polygon fill="none" stroke="black" points="679.256,-219 545.694,-219 545.694,-183 679.256,-183 679.256,-219"/>
<text text-anchor="middle" x="612.475" y="-196.8" font-family="Times,serif" font-size="14.00">W_Afhandelen leads</text>
</g>
<!-- e05409623&#45;d2c6&#45;48ee&#45;a62f&#45;a7566982d5fb&#45;&gt;e0f95ecc0&#45;59ee&#45;4787&#45;a07c&#45;091308f3bddc -->
<g id="efb7b6673&#45;f58a&#45;4648&#45;9b89&#45;08b8480006fc" class="edge"><title>e05409623&#45;d2c6&#45;48ee&#45;a62f&#45;a7566982d5fb&#45;&gt;e0f95ecc0&#45;59ee&#45;4787&#45;a07c&#45;091308f3bddc</title>
<path fill="none" stroke="black" d="M495.352,-201C505.863,-201 520.136,-201 535.078,-201"/>
<polygon fill="black" stroke="black" points="535.491,-204.5 545.491,-201 535.491,-197.5 535.491,-204.5"/>
</g>
<!-- e308948ed&#45;a03f&#45;4701&#45;b1d9&#45;6736082d6674 -->
<g id="e308948ed&#45;a03f&#45;4701&#45;b1d9&#45;6736082d6674" class="node"><title>e308948ed&#45;a03f&#45;4701&#45;b1d9&#45;6736082d6674</title>
<ellipse fill="none" stroke="black" cx="1638.95" cy="-177" rx="18" ry="18"/>
</g>
<!-- e4bc323e5&#45;8656&#45;42ff&#45;ac55&#45;996cc4fe5d16 -->
<g id="e4bc323e5&#45;8656&#45;42ff&#45;ac55&#45;996cc4fe5d16" class="node"><title>e4bc323e5&#45;8656&#45;42ff&#45;ac55&#45;996cc4fe5d16</title>
<polygon fill="none" stroke="black" points="1806.93,-107 1692.96,-107 1692.96,-71 1806.93,-71 1806.93,-107"/>
<text text-anchor="middle" x="1749.95" y="-84.8" font-family="Times,serif" font-size="14.00">O_SENT_BACK</text>
</g>
<!-- e308948ed&#45;a03f&#45;4701&#45;b1d9&#45;6736082d6674&#45;&gt;e4bc323e5&#45;8656&#45;42ff&#45;ac55&#45;996cc4fe5d16 -->
<g id="ed2048f0d&#45;4383&#45;4367&#45;815f&#45;3846af5fad28" class="edge"><title>e308948ed&#45;a03f&#45;4701&#45;b1d9&#45;6736082d6674&#45;&gt;e4bc323e5&#45;8656&#45;42ff&#45;ac55&#45;996cc4fe5d16</title>
<path fill="none" stroke="black" d="M1653.76,-165.855C1670.01,-152.732 1697.48,-130.549 1718.75,-113.379"/>
<polygon fill="black" stroke="black" points="1720.98,-116.079 1726.56,-107.074 1716.58,-110.632 1720.98,-116.079"/>
</g>
<!-- e8f2de0d8&#45;80b9&#45;45c7&#45;842d&#45;d4ef0f011f7a -->
<g id="e8f2de0d8&#45;80b9&#45;45c7&#45;842d&#45;d4ef0f011f7a" class="node"><title>e8f2de0d8&#45;80b9&#45;45c7&#45;842d&#45;d4ef0f011f7a</title>
<polygon fill="#eeeeee" stroke="black" points="1755.45,-257 1744.45,-257 1744.45,-221 1755.45,-221 1755.45,-257"/>
</g>
<!-- e308948ed&#45;a03f&#45;4701&#45;b1d9&#45;6736082d6674&#45;&gt;e8f2de0d8&#45;80b9&#45;45c7&#45;842d&#45;d4ef0f011f7a -->
<g id="ebe887ed6&#45;041e&#45;42ca&#45;af69&#45;e4739a95ce9c" class="edge"><title>e308948ed&#45;a03f&#45;4701&#45;b1d9&#45;6736082d6674&#45;&gt;e8f2de0d8&#45;80b9&#45;45c7&#45;842d&#45;d4ef0f011f7a</title>
<path fill="none" stroke="black" d="M1655.11,-185.621C1676.43,-197.748 1714.94,-219.659 1735.37,-231.279"/>
<polygon fill="black" stroke="black" points="1733.8,-234.409 1744.22,-236.311 1737.26,-228.324 1733.8,-234.409"/>
</g>
<!-- eedaf0493&#45;fc58&#45;45b6&#45;a69e&#45;736b1ae496ff -->
<g id="eedaf0493&#45;fc58&#45;45b6&#45;a69e&#45;736b1ae496ff" class="node"><title>eedaf0493&#45;fc58&#45;45b6&#45;a69e&#45;736b1ae496ff</title>
<ellipse fill="none" stroke="black" cx="985.748" cy="-184" rx="18" ry="18"/>
</g>
<!-- e8e9409e3&#45;bddf&#45;4503&#45;b288&#45;66453f5823f6 -->
<g id="e8e9409e3&#45;bddf&#45;4503&#45;b288&#45;66453f5823f6" class="node"><title>e8e9409e3&#45;bddf&#45;4503&#45;b288&#45;66453f5823f6</title>
<polygon fill="#eeeeee" stroke="black" points="1050.75,-202 1039.75,-202 1039.75,-166 1050.75,-166 1050.75,-202"/>
</g>
<!-- eedaf0493&#45;fc58&#45;45b6&#45;a69e&#45;736b1ae496ff&#45;&gt;e8e9409e3&#45;bddf&#45;4503&#45;b288&#45;66453f5823f6 -->
<g id="e43498cd7&#45;9e55&#45;4441&#45;9bc9&#45;655c85a7365e" class="edge"><title>eedaf0493&#45;fc58&#45;45b6&#45;a69e&#45;736b1ae496ff&#45;&gt;e8e9409e3&#45;bddf&#45;4503&#45;b288&#45;66453f5823f6</title>
<path fill="none" stroke="black" d="M1004,-184C1011.99,-184 1021.4,-184 1029.11,-184"/>
<polygon fill="black" stroke="black" points="1029.38,-187.5 1039.38,-184 1029.38,-180.5 1029.38,-187.5"/>
</g>
<!-- ec61097b1&#45;1d3c&#45;411f&#45;a010&#45;61f00e387e16 -->
<g id="ec61097b1&#45;1d3c&#45;411f&#45;a010&#45;61f00e387e16" class="node"><title>ec61097b1&#45;1d3c&#45;411f&#45;a010&#45;61f00e387e16</title>
<ellipse fill="none" stroke="black" cx="1104.75" cy="-254" rx="18" ry="18"/>
</g>
<!-- edb622f2d&#45;ba00&#45;4fc8&#45;8668&#45;f06984d2f539 -->
<g id="edb622f2d&#45;ba00&#45;4fc8&#45;8668&#45;f06984d2f539" class="node"><title>edb622f2d&#45;ba00&#45;4fc8&#45;8668&#45;f06984d2f539</title>
<polygon fill="none" stroke="black" points="1319.34,-318 1186.36,-318 1186.36,-282 1319.34,-282 1319.34,-318"/>
<text text-anchor="middle" x="1252.85" y="-295.8" font-family="Times,serif" font-size="14.00">W_Nabellen offertes</text>
</g>
<!-- ec61097b1&#45;1d3c&#45;411f&#45;a010&#45;61f00e387e16&#45;&gt;edb622f2d&#45;ba00&#45;4fc8&#45;8668&#45;f06984d2f539 -->
<g id="eddebf9d0&#45;9f50&#45;4778&#45;b617&#45;661665d58a14" class="edge"><title>ec61097b1&#45;1d3c&#45;411f&#45;a010&#45;61f00e387e16&#45;&gt;edb622f2d&#45;ba00&#45;4fc8&#45;8668&#45;f06984d2f539</title>
<path fill="none" stroke="black" d="M1122.22,-259.187C1137.57,-264.019 1161.5,-271.552 1184.64,-278.838"/>
<polygon fill="black" stroke="black" points="1183.89,-282.272 1194.48,-281.937 1185.99,-275.595 1183.89,-282.272"/>
</g>
<!-- e4000490d&#45;f62f&#45;4f22&#45;b801&#45;024fa75509be -->
<g id="e4000490d&#45;f62f&#45;4f22&#45;b801&#45;024fa75509be" class="node"><title>e4000490d&#45;f62f&#45;4f22&#45;b801&#45;024fa75509be</title>
<ellipse fill="none" stroke="black" cx="1519.95" cy="-262" rx="18" ry="18"/>
</g>
<!-- edacc2618&#45;91d4&#45;4f9b&#45;8ef7&#45;2adaf243ba5b -->
<g id="edacc2618&#45;91d4&#45;4f9b&#45;8ef7&#45;2adaf243ba5b" class="node"><title>edacc2618&#45;91d4&#45;4f9b&#45;8ef7&#45;2adaf243ba5b</title>
<polygon fill="#eeeeee" stroke="black" points="1584.95,-195 1573.95,-195 1573.95,-159 1584.95,-159 1584.95,-195"/>
</g>
<!-- e4000490d&#45;f62f&#45;4f22&#45;b801&#45;024fa75509be&#45;&gt;edacc2618&#45;91d4&#45;4f9b&#45;8ef7&#45;2adaf243ba5b -->
<g id="ee65476ce&#45;1c77&#45;4f1d&#45;bc60&#45;7e4b1ca422ab" class="edge"><title>e4000490d&#45;f62f&#45;4f22&#45;b801&#45;024fa75509be&#45;&gt;edacc2618&#45;91d4&#45;4f9b&#45;8ef7&#45;2adaf243ba5b</title>
<path fill="none" stroke="black" d="M1530.97,-247.194C1541.41,-231.753 1557.7,-207.675 1568.23,-192.119"/>
<polygon fill="black" stroke="black" points="1571.22,-193.931 1573.93,-183.688 1565.43,-190.009 1571.22,-193.931"/>
</g>
<!-- efb38d9d2&#45;d681&#45;4ba7&#45;9e9b&#45;adfae5880933 -->
<g id="efb38d9d2&#45;d681&#45;4ba7&#45;9e9b&#45;adfae5880933" class="node"><title>efb38d9d2&#45;d681&#45;4ba7&#45;9e9b&#45;adfae5880933</title>
<ellipse fill="none" stroke="black" cx="1400.95" cy="-300" rx="18" ry="18"/>
</g>
<!-- e7746444f&#45;2040&#45;4780&#45;aefc&#45;435f8e5b95eb -->
<g id="e7746444f&#45;2040&#45;4780&#45;aefc&#45;435f8e5b95eb" class="node"><title>e7746444f&#45;2040&#45;4780&#45;aefc&#45;435f8e5b95eb</title>
<polygon fill="#eeeeee" stroke="black" points="1465.95,-264 1454.95,-264 1454.95,-228 1465.95,-228 1465.95,-264"/>
</g>
<!-- efb38d9d2&#45;d681&#45;4ba7&#45;9e9b&#45;adfae5880933&#45;&gt;e7746444f&#45;2040&#45;4780&#45;aefc&#45;435f8e5b95eb -->
<g id="ef3394f8d&#45;e33c&#45;408c&#45;8a1b&#45;6a7f8780c088" class="edge"><title>efb38d9d2&#45;d681&#45;4ba7&#45;9e9b&#45;adfae5880933&#45;&gt;e7746444f&#45;2040&#45;4780&#45;aefc&#45;435f8e5b95eb</title>
<path fill="none" stroke="black" d="M1414.71,-288.016C1424.44,-278.88 1437.75,-266.383 1447.32,-257.396"/>
<polygon fill="black" stroke="black" points="1449.95,-259.725 1454.84,-250.328 1445.16,-254.622 1449.95,-259.725"/>
</g>
<!-- e2a05554c&#45;61d3&#45;441b&#45;b38d&#45;4e668a3230a6 -->
<g id="e2a05554c&#45;61d3&#45;441b&#45;b38d&#45;4e668a3230a6" class="node"><title>e2a05554c&#45;61d3&#45;441b&#45;b38d&#45;4e668a3230a6</title>
<polygon fill="#eeeeee" stroke="black" points="1465.95,-318 1454.95,-318 1454.95,-282 1465.95,-282 1465.95,-318"/>
</g>
<!-- efb38d9d2&#45;d681&#45;4ba7&#45;9e9b&#45;adfae5880933&#45;&gt;e2a05554c&#45;61d3&#45;441b&#45;b38d&#45;4e668a3230a6 -->
<g id="e56c3b1c4&#45;aac7&#45;46ff&#45;b834&#45;eec8a2006b28" class="edge"><title>efb38d9d2&#45;d681&#45;4ba7&#45;9e9b&#45;adfae5880933&#45;&gt;e2a05554c&#45;61d3&#45;441b&#45;b38d&#45;4e668a3230a6</title>
<path fill="none" stroke="black" d="M1419.2,-300C1427.19,-300 1436.6,-300 1444.31,-300"/>
<polygon fill="black" stroke="black" points="1444.58,-303.5 1454.58,-300 1444.58,-296.5 1444.58,-303.5"/>
</g>
<!-- e9da29cc3&#45;101d&#45;47c7&#45;b6e4&#45;354110e20a81 -->
<g id="e9da29cc3&#45;101d&#45;47c7&#45;b6e4&#45;354110e20a81" class="node"><title>e9da29cc3&#45;101d&#45;47c7&#45;b6e4&#45;354110e20a81</title>
<ellipse fill="none" stroke="black" cx="1104.75" cy="-184" rx="18" ry="18"/>
</g>
<!-- e36c2e1bf&#45;a310&#45;4bc2&#45;9c48&#45;0655aeb9d563 -->
<g id="e36c2e1bf&#45;a310&#45;4bc2&#45;9c48&#45;0655aeb9d563" class="node"><title>e36c2e1bf&#45;a310&#45;4bc2&#45;9c48&#45;0655aeb9d563</title>
<polygon fill="#eeeeee" stroke="black" points="1258.35,-226 1247.35,-226 1247.35,-190 1258.35,-190 1258.35,-226"/>
</g>
<!-- e9da29cc3&#45;101d&#45;47c7&#45;b6e4&#45;354110e20a81&#45;&gt;e36c2e1bf&#45;a310&#45;4bc2&#45;9c48&#45;0655aeb9d563 -->
<g id="ee5ce42eb&#45;faba&#45;4f0d&#45;9a98&#45;6aaf4feee737" class="edge"><title>e9da29cc3&#45;101d&#45;47c7&#45;b6e4&#45;354110e20a81&#45;&gt;e36c2e1bf&#45;a310&#45;4bc2&#45;9c48&#45;0655aeb9d563</title>
<path fill="none" stroke="black" d="M1122.79,-186.8C1151.65,-191.54 1209.63,-201.064 1236.96,-205.553"/>
<polygon fill="black" stroke="black" points="1236.7,-209.059 1247.14,-207.226 1237.84,-202.151 1236.7,-209.059"/>
</g>
<!-- e5625f60f&#45;77e0&#45;4b1c&#45;869d&#45;753a14d4385a -->
<g id="e5625f60f&#45;77e0&#45;4b1c&#45;869d&#45;753a14d4385a" class="node"><title>e5625f60f&#45;77e0&#45;4b1c&#45;869d&#45;753a14d4385a</title>
<polygon fill="none" stroke="black" points="1347.05,-172 1158.65,-172 1158.65,-136 1347.05,-136 1347.05,-172"/>
<text text-anchor="middle" x="1252.85" y="-149.8" font-family="Times,serif" font-size="14.00">W_Wijzigen contractgegevens</text>
</g>
<!-- e9da29cc3&#45;101d&#45;47c7&#45;b6e4&#45;354110e20a81&#45;&gt;e5625f60f&#45;77e0&#45;4b1c&#45;869d&#45;753a14d4385a -->
<g id="e99a37f6f&#45;323f&#45;42ce&#45;9644&#45;26a0d3f78928" class="edge"><title>e9da29cc3&#45;101d&#45;47c7&#45;b6e4&#45;354110e20a81&#45;&gt;e5625f60f&#45;77e0&#45;4b1c&#45;869d&#45;753a14d4385a</title>
<path fill="none" stroke="black" d="M1122.51,-180.559C1131.02,-178.81 1142.13,-176.529 1154.26,-174.039"/>
<polygon fill="black" stroke="black" points="1155.08,-177.443 1164.17,-172.003 1153.67,-170.586 1155.08,-177.443"/>
</g>
<!-- e9e2a099e&#45;0101&#45;484b&#45;8196&#45;285e532dfc6e -->
<g id="e9e2a099e&#45;0101&#45;484b&#45;8196&#45;285e532dfc6e" class="node"><title>e9e2a099e&#45;0101&#45;484b&#45;8196&#45;285e532dfc6e</title>
<ellipse fill="none" stroke="black" cx="1400.95" cy="-177" rx="18" ry="18"/>
</g>
<!-- e9e2a099e&#45;0101&#45;484b&#45;8196&#45;285e532dfc6e&#45;&gt;edacc2618&#45;91d4&#45;4f9b&#45;8ef7&#45;2adaf243ba5b -->
<g id="e54f1fa4b&#45;30d7&#45;42b6&#45;b28b&#45;df46c666d6eb" class="edge"><title>e9e2a099e&#45;0101&#45;484b&#45;8196&#45;285e532dfc6e&#45;&gt;edacc2618&#45;91d4&#45;4f9b&#45;8ef7&#45;2adaf243ba5b</title>
<path fill="none" stroke="black" d="M1419.2,-177C1453.81,-177 1531.2,-177 1563.67,-177"/>
<polygon fill="black" stroke="black" points="1563.73,-180.5 1573.73,-177 1563.73,-173.5 1563.73,-180.5"/>
</g>
<!-- e443d2120&#45;9e96&#45;4dfb&#45;94ac&#45;1f229d20bd37 -->
<g id="e443d2120&#45;9e96&#45;4dfb&#45;94ac&#45;1f229d20bd37" class="node"><title>e443d2120&#45;9e96&#45;4dfb&#45;94ac&#45;1f229d20bd37</title>
<ellipse fill="none" stroke="black" cx="1104.75" cy="-100" rx="18" ry="18"/>
</g>
<!-- e35d687f4&#45;df26&#45;4e7b&#45;9dc1&#45;93b6a5508087 -->
<g id="e35d687f4&#45;df26&#45;4e7b&#45;9dc1&#45;93b6a5508087" class="node"><title>e35d687f4&#45;df26&#45;4e7b&#45;9dc1&#45;93b6a5508087</title>
<polygon fill="#eeeeee" stroke="black" points="1258.35,-118 1247.35,-118 1247.35,-82 1258.35,-82 1258.35,-118"/>
</g>
<!-- e443d2120&#45;9e96&#45;4dfb&#45;94ac&#45;1f229d20bd37&#45;&gt;e35d687f4&#45;df26&#45;4e7b&#45;9dc1&#45;93b6a5508087 -->
<g id="e2ba856c1&#45;ba7e&#45;45cb&#45;a77d&#45;023f734a541a" class="edge"><title>e443d2120&#45;9e96&#45;4dfb&#45;94ac&#45;1f229d20bd37&#45;&gt;e35d687f4&#45;df26&#45;4e7b&#45;9dc1&#45;93b6a5508087</title>
<path fill="none" stroke="black" d="M1122.79,-100C1151.65,-100 1209.63,-100 1236.96,-100"/>
<polygon fill="black" stroke="black" points="1237.14,-103.5 1247.14,-100 1237.14,-96.5001 1237.14,-103.5"/>
</g>
<!-- e73f2dbc8&#45;552f&#45;4dcb&#45;97b4&#45;ed10d45f70de -->
<g id="e73f2dbc8&#45;552f&#45;4dcb&#45;97b4&#45;ed10d45f70de" class="node"><title>e73f2dbc8&#45;552f&#45;4dcb&#45;97b4&#45;ed10d45f70de</title>
<polygon fill="none" stroke="black" points="1312,-64 1193.7,-64 1193.7,-28 1312,-28 1312,-64"/>
<text text-anchor="middle" x="1252.85" y="-41.8" font-family="Times,serif" font-size="14.00">A_REGISTERED</text>
</g>
<!-- e443d2120&#45;9e96&#45;4dfb&#45;94ac&#45;1f229d20bd37&#45;&gt;e73f2dbc8&#45;552f&#45;4dcb&#45;97b4&#45;ed10d45f70de -->
<g id="e6c515992&#45;40ee&#45;4e32&#45;80a6&#45;ab17352d8d3a" class="edge"><title>e443d2120&#45;9e96&#45;4dfb&#45;94ac&#45;1f229d20bd37&#45;&gt;e73f2dbc8&#45;552f&#45;4dcb&#45;97b4&#45;ed10d45f70de</title>
<path fill="none" stroke="black" d="M1120.7,-91.4202C1131.13,-85.6787 1145.5,-78.2423 1158.75,-73 1166.82,-69.8063 1175.42,-66.8034 1184.01,-64.044"/>
<polygon fill="black" stroke="black" points="1185.16,-67.3506 1193.67,-61.0349 1183.08,-60.6674 1185.16,-67.3506"/>
</g>
<!-- eb78f346e&#45;3ac4&#45;4c3d&#45;bae2&#45;3799a68eeaeb -->
<g id="eb78f346e&#45;3ac4&#45;4c3d&#45;bae2&#45;3799a68eeaeb" class="node"><title>eb78f346e&#45;3ac4&#45;4c3d&#45;bae2&#45;3799a68eeaeb</title>
<ellipse fill="none" stroke="black" cx="1400.95" cy="-100" rx="18" ry="18"/>
</g>
<!-- eb78f346e&#45;3ac4&#45;4c3d&#45;bae2&#45;3799a68eeaeb&#45;&gt;edacc2618&#45;91d4&#45;4f9b&#45;8ef7&#45;2adaf243ba5b -->
<g id="e53888582&#45;1a17&#45;4379&#45;a04d&#45;9cc96ae763b8" class="edge"><title>eb78f346e&#45;3ac4&#45;4c3d&#45;bae2&#45;3799a68eeaeb&#45;&gt;edacc2618&#45;91d4&#45;4f9b&#45;8ef7&#45;2adaf243ba5b</title>
<path fill="none" stroke="black" d="M1417.62,-106.833C1451.73,-121.715 1532.27,-156.851 1564.63,-170.97"/>
<polygon fill="black" stroke="black" points="1563.35,-174.23 1573.92,-175.02 1566.15,-167.814 1563.35,-174.23"/>
</g>
<!-- ee3e66124&#45;09ee&#45;4191&#45;a23f&#45;4f8e194d5753&#45;&gt;ed24bbe18&#45;0b9f&#45;4cea&#45;9c0d&#45;ab2444fb90c7 -->
<g id="e0f7dce86&#45;d59f&#45;442d&#45;b0d6&#45;a98f87a4face" class="edge"><title>ee3e66124&#45;09ee&#45;4191&#45;a23f&#45;4f8e194d5753&#45;&gt;ed24bbe18&#45;0b9f&#45;4cea&#45;9c0d&#45;ab2444fb90c7</title>
<path fill="none" stroke="black" d="M185.492,-291C194.253,-291 202.958,-291 210.695,-291"/>
<polygon fill="black" stroke="black" points="210.893,-294.5 220.893,-291 210.893,-287.5 210.893,-294.5"/>
</g>
<!-- ec0d09575&#45;f740&#45;4537&#45;9542&#45;1266ee268744&#45;&gt;ea0cebe55&#45;b8b6&#45;4f92&#45;bcb7&#45;e0c21fa99e8e -->
<g id="e113dd2db&#45;a755&#45;45f7&#45;9231&#45;923bd84175f7" class="edge"><title>ec0d09575&#45;f740&#45;4537&#45;9542&#45;1266ee268744&#45;&gt;ea0cebe55&#45;b8b6&#45;4f92&#45;bcb7&#45;e0c21fa99e8e</title>
<path fill="none" stroke="black" d="M304.214,-293.903C310.648,-298.044 322.913,-305.936 334.023,-313.085"/>
<polygon fill="black" stroke="black" points="332.249,-316.106 342.553,-318.574 336.037,-310.219 332.249,-316.106"/>
</g>
<!-- ec0d09575&#45;f740&#45;4537&#45;9542&#45;1266ee268744&#45;&gt;e4bcdd1c9&#45;9b42&#45;4b66&#45;80b3&#45;1e78c3048561 -->
<g id="e7eb4f3b0&#45;d23f&#45;4a14&#45;9b4b&#45;69907faed3ac" class="edge"><title>ec0d09575&#45;f740&#45;4537&#45;9542&#45;1266ee268744&#45;&gt;e4bcdd1c9&#45;9b42&#45;4b66&#45;80b3&#45;1e78c3048561</title>
<path fill="none" stroke="black" d="M304.214,-288.175C310.648,-284.147 322.913,-276.468 334.023,-269.512"/>
<polygon fill="black" stroke="black" points="335.934,-272.445 342.553,-264.172 332.22,-266.512 335.934,-272.445"/>
</g>
<!-- ec314429b&#45;ea19&#45;4107&#45;ba4d&#45;2eb41e317902&#45;&gt;e16a93b3b&#45;c14d&#45;4a94&#45;8c73&#45;20ae0974dc1d -->
<g id="e3a20ef76&#45;b38b&#45;4677&#45;86a8&#45;54c5450c97f4" class="edge"><title>ec314429b&#45;ea19&#45;4107&#45;ba4d&#45;2eb41e317902&#45;&gt;e16a93b3b&#45;c14d&#45;4a94&#45;8c73&#45;20ae0974dc1d</title>
<path fill="none" stroke="black" d="M1925.95,-365C1931.61,-365 1941.78,-365 1951.71,-365"/>
<polygon fill="black" stroke="black" points="1951.77,-368.5 1961.77,-365 1951.77,-361.5 1951.77,-368.5"/>
</g>
<!-- e41d1cd94&#45;2eaf&#45;463a&#45;afff&#45;80676ce70e3e&#45;&gt;e680bc9b9&#45;62ec&#45;4f05&#45;9292&#45;5864e0ab8e69 -->
<g id="eae219369&#45;affd&#45;4161&#45;8159&#45;5d81c9cdffd8" class="edge"><title>e41d1cd94&#45;2eaf&#45;463a&#45;afff&#45;80676ce70e3e&#45;&gt;e680bc9b9&#45;62ec&#45;4f05&#45;9292&#45;5864e0ab8e69</title>
<path fill="none" stroke="black" d="M482.824,-390.964C518.949,-390.685 756.761,-388.844 838.339,-388.212"/>
<polygon fill="black" stroke="black" points="838.377,-391.712 848.349,-388.135 838.323,-384.712 838.377,-391.712"/>
</g>
<!-- e8d8e3fa2&#45;d3a2&#45;44ce&#45;82f8&#45;fc89d24ec14c&#45;&gt;e1ece095d&#45;e2ce&#45;48b7&#45;b199&#45;20d266ff67cd -->
<g id="e10808864&#45;d5a2&#45;4196&#45;af58&#45;31e3f1daf4bd" class="edge"><title>e8d8e3fa2&#45;d3a2&#45;44ce&#45;82f8&#45;fc89d24ec14c&#45;&gt;e1ece095d&#45;e2ce&#45;48b7&#45;b199&#45;20d266ff67cd</title>
<path fill="none" stroke="black" d="M423.214,-328C428.873,-328 439.042,-328 448.969,-328"/>
<polygon fill="black" stroke="black" points="449.028,-331.5 459.028,-328 449.028,-324.5 449.028,-331.5"/>
</g>
<!-- ebeb6ccde&#45;70c2&#45;421d&#45;9901&#45;bca2cb962e51&#45;&gt;ef42c6651&#45;724f&#45;4d6f&#45;b253&#45;46f94bfca0f5 -->
<g id="ed500a7f3&#45;607d&#45;4d82&#45;9dfa&#45;fcf0ec63c399" class="edge"><title>ebeb6ccde&#45;70c2&#45;421d&#45;9901&#45;bca2cb962e51&#45;&gt;ef42c6651&#45;724f&#45;4d6f&#45;b253&#45;46f94bfca0f5</title>
<path fill="none" stroke="black" d="M693.692,-347C702.835,-347 711.621,-347 719.323,-347"/>
<polygon fill="black" stroke="black" points="719.413,-350.5 729.413,-347 719.413,-343.5 719.413,-350.5"/>
</g>
<!-- ee59123c1&#45;4dfb&#45;4864&#45;b33c&#45;4e93574942d4&#45;&gt;e1ece095d&#45;e2ce&#45;48b7&#45;b199&#45;20d266ff67cd -->
<g id="e766fa369&#45;a2be&#45;4fe5&#45;be37&#45;82d7c45189ca" class="edge"><title>ee59123c1&#45;4dfb&#45;4864&#45;b33c&#45;4e93574942d4&#45;&gt;e1ece095d&#45;e2ce&#45;48b7&#45;b199&#45;20d266ff67cd</title>
<path fill="none" stroke="black" d="M801.7,-301.176C775.445,-302.222 640.633,-307.981 531.202,-320 522.747,-320.929 513.573,-322.214 505.271,-323.483"/>
<polygon fill="black" stroke="black" points="504.672,-320.034 495.342,-325.054 505.766,-326.948 504.672,-320.034"/>
</g>
<!-- e5f1d6a02&#45;c2e9&#45;4563&#45;a971&#45;5eccd717e0b1&#45;&gt;e680bc9b9&#45;62ec&#45;4f05&#45;9292&#45;5864e0ab8e69 -->
<g id="e2282dc47&#45;6c7f&#45;45a6&#45;a149&#45;874cab3a2ff1" class="edge"><title>e5f1d6a02&#45;c2e9&#45;4563&#45;a971&#45;5eccd717e0b1&#45;&gt;e680bc9b9&#45;62ec&#45;4f05&#45;9292&#45;5864e0ab8e69</title>
<path fill="none" stroke="black" d="M812.76,-357.589C819.048,-361.198 830.904,-368.002 841.809,-374.261"/>
<polygon fill="black" stroke="black" points="840.188,-377.366 850.603,-379.308 843.672,-371.295 840.188,-377.366"/>
</g>
<!-- e07c2c08b&#45;3b57&#45;4dba&#45;92b7&#45;5afdc43a8409&#45;&gt;ee6641687&#45;2191&#45;420e&#45;830c&#45;90b122c59b19 -->
<g id="e2075a678&#45;25cf&#45;457e&#45;8e8e&#45;e0f32023a9e0" class="edge"><title>e07c2c08b&#45;3b57&#45;4dba&#45;92b7&#45;5afdc43a8409&#45;&gt;ee6641687&#45;2191&#45;420e&#45;830c&#45;90b122c59b19</title>
<path fill="none" stroke="black" d="M618.177,-254.981C640.332,-254.803 736.433,-253.037 812.748,-236 821.937,-233.949 831.713,-230.752 840.334,-227.561"/>
<polygon fill="black" stroke="black" points="841.759,-230.763 849.82,-223.888 839.231,-224.235 841.759,-230.763"/>
</g>
<!-- ea10478b6&#45;402d&#45;4151&#45;8623&#45;2778a64b5562&#45;&gt;e05409623&#45;d2c6&#45;48ee&#45;a62f&#45;a7566982d5fb -->
<g id="edd66c428&#45;fa1c&#45;4e85&#45;972e&#45;a67b1f7cd93d" class="edge"><title>ea10478b6&#45;402d&#45;4151&#45;8623&#45;2778a64b5562&#45;&gt;e05409623&#45;d2c6&#45;48ee&#45;a62f&#45;a7566982d5fb</title>
<path fill="none" stroke="black" d="M423.214,-204.686C428.873,-204.292 439.042,-203.585 448.969,-202.894"/>
<polygon fill="black" stroke="black" points="449.295,-206.38 459.028,-202.195 448.809,-199.397 449.295,-206.38"/>
</g>
<!-- e0f95ecc0&#45;59ee&#45;4787&#45;a07c&#45;091308f3bddc&#45;&gt;e0850bca7&#45;a87b&#45;45f4&#45;acdc&#45;0204520fe05e -->
<g id="e6f52e62f&#45;e64a&#45;415e&#45;a90d&#45;f405a0c32d16" class="edge"><title>e0f95ecc0&#45;59ee&#45;4787&#45;a07c&#45;091308f3bddc&#45;&gt;e0850bca7&#45;a87b&#45;45f4&#45;acdc&#45;0204520fe05e</title>
<path fill="none" stroke="black" d="M679.331,-201C693.445,-201 707.605,-201 719.28,-201"/>
<polygon fill="black" stroke="black" points="719.628,-204.5 729.628,-201 719.628,-197.5 719.628,-204.5"/>
</g>
<!-- e32619e74&#45;103a&#45;49fb&#45;a8f0&#45;16a7b6cded51&#45;&gt;e05409623&#45;d2c6&#45;48ee&#45;a62f&#45;a7566982d5fb -->
<g id="ee7486804&#45;73fe&#45;4f19&#45;9b50&#45;492a75a1c57e" class="edge"><title>e32619e74&#45;103a&#45;49fb&#45;a8f0&#45;16a7b6cded51&#45;&gt;e05409623&#45;d2c6&#45;48ee&#45;a62f&#45;a7566982d5fb</title>
<path fill="none" stroke="black" d="M801.597,-154.639C774.768,-152.697 637.301,-144.629 531.202,-174 521.116,-176.792 510.71,-181.605 501.817,-186.401"/>
<polygon fill="black" stroke="black" points="499.811,-183.516 492.849,-191.502 503.272,-189.6 499.811,-183.516"/>
</g>
<!-- e9967d79b&#45;47ff&#45;4d5b&#45;9af1&#45;4e283782108b&#45;&gt;ee6641687&#45;2191&#45;420e&#45;830c&#45;90b122c59b19 -->
<g id="e8da5bd7f&#45;c66c&#45;4fbd&#45;b414&#45;885beed2eb2c" class="edge"><title>e9967d79b&#45;47ff&#45;4d5b&#45;9af1&#45;4e283782108b&#45;&gt;ee6641687&#45;2191&#45;420e&#45;830c&#45;90b122c59b19</title>
<path fill="none" stroke="black" d="M812.76,-209.628C818.459,-210.421 828.73,-211.85 838.723,-213.24"/>
<polygon fill="black" stroke="black" points="838.445,-216.735 848.832,-214.646 839.409,-209.802 838.445,-216.735"/>
</g>
<!-- ea0245b2b&#45;65db&#45;40d5&#45;87f5&#45;433c7b8512a2&#45;&gt;e6005f90a&#45;ce99&#45;4ebe&#45;bb3e&#45;9f3908a56ddd -->
<g id="e4196f2c2&#45;b48f&#45;4b25&#45;9910&#45;2ddbc3a3af78" class="edge"><title>ea0245b2b&#45;65db&#45;40d5&#45;87f5&#45;433c7b8512a2&#45;&gt;e6005f90a&#45;ce99&#45;4ebe&#45;bb3e&#45;9f3908a56ddd</title>
<path fill="none" stroke="black" d="M991.379,-258.185C1005.19,-281.4 1048.57,-346 1103.75,-346 1103.75,-346 1103.75,-346 1639.95,-346 1709.38,-346 1791.12,-343.984 1832.68,-342.814"/>
<polygon fill="black" stroke="black" points="1832.93,-346.309 1842.83,-342.523 1832.73,-339.311 1832.93,-346.309"/>
</g>
<!-- e742bbde5&#45;8727&#45;40d3&#45;bb16&#45;a4d3d8531a2d&#45;&gt;eedaf0493&#45;fc58&#45;45b6&#45;a69e&#45;736b1ae496ff -->
<g id="e701bea94&#45;d3f8&#45;4f87&#45;a834&#45;7cdfa125de6d" class="edge"><title>e742bbde5&#45;8727&#45;40d3&#45;bb16&#45;a4d3d8531a2d&#45;&gt;eedaf0493&#45;fc58&#45;45b6&#45;a69e&#45;736b1ae496ff</title>
<path fill="none" stroke="black" d="M931.76,-196.901C937.558,-195.49 948.091,-192.925 958.247,-190.453"/>
<polygon fill="black" stroke="black" points="959.2,-193.823 968.088,-188.056 957.544,-187.022 959.2,-193.823"/>
</g>
<!-- e8e9409e3&#45;bddf&#45;4503&#45;b288&#45;66453f5823f6&#45;&gt;ec61097b1&#45;1d3c&#45;411f&#45;a010&#45;61f00e387e16 -->
<g id="e77e3f996&#45;d77e&#45;4f01&#45;b775&#45;8a49991c83b1" class="edge"><title>e8e9409e3&#45;bddf&#45;4503&#45;b288&#45;66453f5823f6&#45;&gt;ec61097b1&#45;1d3c&#45;411f&#45;a010&#45;61f00e387e16</title>
<path fill="none" stroke="black" d="M1050.76,-189.493C1058.31,-198.684 1073.89,-217.65 1086.21,-232.65"/>
<polygon fill="black" stroke="black" points="1083.6,-234.982 1092.65,-240.488 1089.01,-230.539 1083.6,-234.982"/>
</g>
<!-- e8e9409e3&#45;bddf&#45;4503&#45;b288&#45;66453f5823f6&#45;&gt;e9da29cc3&#45;101d&#45;47c7&#45;b6e4&#45;354110e20a81 -->
<g id="e2e9f0b2f&#45;ad14&#45;45eb&#45;9138&#45;592920ed2907" class="edge"><title>e8e9409e3&#45;bddf&#45;4503&#45;b288&#45;66453f5823f6&#45;&gt;e9da29cc3&#45;101d&#45;47c7&#45;b6e4&#45;354110e20a81</title>
<path fill="none" stroke="black" d="M1050.76,-184C1056.42,-184 1066.59,-184 1076.52,-184"/>
<polygon fill="black" stroke="black" points="1076.57,-187.5 1086.57,-184 1076.57,-180.5 1076.57,-187.5"/>
</g>
<!-- e8e9409e3&#45;bddf&#45;4503&#45;b288&#45;66453f5823f6&#45;&gt;e443d2120&#45;9e96&#45;4dfb&#45;94ac&#45;1f229d20bd37 -->
<g id="efdc6f6e7&#45;8cc9&#45;43be&#45;a141&#45;d5c292aef485" class="edge"><title>e8e9409e3&#45;bddf&#45;4503&#45;b288&#45;66453f5823f6&#45;&gt;e443d2120&#45;9e96&#45;4dfb&#45;94ac&#45;1f229d20bd37</title>
<path fill="none" stroke="black" d="M1050.76,-177.409C1058.68,-165.842 1075.42,-141.377 1087.98,-123.029"/>
<polygon fill="black" stroke="black" points="1091,-124.825 1093.76,-114.596 1085.22,-120.871 1091,-124.825"/>
</g>
<!-- edacc2618&#45;91d4&#45;4f9b&#45;8ef7&#45;2adaf243ba5b&#45;&gt;e308948ed&#45;a03f&#45;4701&#45;b1d9&#45;6736082d6674 -->
<g id="ec43fbaa1&#45;9321&#45;44f7&#45;9dee&#45;b22e516f17ff" class="edge"><title>edacc2618&#45;91d4&#45;4f9b&#45;8ef7&#45;2adaf243ba5b&#45;&gt;e308948ed&#45;a03f&#45;4701&#45;b1d9&#45;6736082d6674</title>
<path fill="none" stroke="black" d="M1584.96,-177C1590.62,-177 1600.79,-177 1610.72,-177"/>
<polygon fill="black" stroke="black" points="1610.78,-180.5 1620.78,-177 1610.78,-173.5 1610.78,-180.5"/>
</g>
<!-- edb622f2d&#45;ba00&#45;4fc8&#45;8668&#45;f06984d2f539&#45;&gt;efb38d9d2&#45;d681&#45;4ba7&#45;9e9b&#45;adfae5880933 -->
<g id="e0b0f8c63&#45;2282&#45;4921&#45;b5ac&#45;bd322dd1946b" class="edge"><title>edb622f2d&#45;ba00&#45;4fc8&#45;8668&#45;f06984d2f539&#45;&gt;efb38d9d2&#45;d681&#45;4ba7&#45;9e9b&#45;adfae5880933</title>
<path fill="none" stroke="black" d="M1319.64,-300C1338.29,-300 1357.57,-300 1372.57,-300"/>
<polygon fill="black" stroke="black" points="1372.67,-303.5 1382.67,-300 1372.67,-296.5 1372.67,-303.5"/>
</g>
<!-- e7746444f&#45;2040&#45;4780&#45;aefc&#45;435f8e5b95eb&#45;&gt;ec61097b1&#45;1d3c&#45;411f&#45;a010&#45;61f00e387e16 -->
<g id="efd225c79&#45;07c6&#45;4cb9&#45;904b&#45;bd897f1124d0" class="edge"><title>e7746444f&#45;2040&#45;4780&#45;aefc&#45;435f8e5b95eb&#45;&gt;ec61097b1&#45;1d3c&#45;411f&#45;a010&#45;61f00e387e16</title>
<path fill="none" stroke="black" d="M1454.8,-246.105C1420.76,-246.875 1209.18,-251.661 1133.02,-253.383"/>
<polygon fill="black" stroke="black" points="1132.73,-249.889 1122.81,-253.614 1132.88,-256.887 1132.73,-249.889"/>
</g>
<!-- e2a05554c&#45;61d3&#45;441b&#45;b38d&#45;4e668a3230a6&#45;&gt;e4000490d&#45;f62f&#45;4f22&#45;b801&#45;024fa75509be -->
<g id="e60af3f5d&#45;ef1d&#45;4428&#45;a3fa&#45;14a12d4cb409" class="edge"><title>e2a05554c&#45;61d3&#45;441b&#45;b38d&#45;4e668a3230a6&#45;&gt;e4000490d&#45;f62f&#45;4f22&#45;b801&#45;024fa75509be</title>
<path fill="none" stroke="black" d="M1465.96,-297.018C1472.4,-292.766 1484.66,-284.661 1495.77,-277.318"/>
<polygon fill="black" stroke="black" points="1497.89,-280.115 1504.3,-271.681 1494.03,-274.275 1497.89,-280.115"/>
</g>
<!-- e36c2e1bf&#45;a310&#45;4bc2&#45;9c48&#45;0655aeb9d563&#45;&gt;e9e2a099e&#45;0101&#45;484b&#45;8196&#45;285e532dfc6e -->
<g id="e0ce463a2&#45;8ae6&#45;4edc&#45;bd71&#45;f2189bf53ceb" class="edge"><title>e36c2e1bf&#45;a310&#45;4bc2&#45;9c48&#45;0655aeb9d563&#45;&gt;e9e2a099e&#45;0101&#45;484b&#45;8196&#45;285e532dfc6e</title>
<path fill="none" stroke="black" d="M1258.38,-207.038C1275.52,-203.401 1337.23,-190.308 1373.27,-182.662"/>
<polygon fill="black" stroke="black" points="1374.07,-186.07 1383.12,-180.571 1372.62,-179.222 1374.07,-186.07"/>
</g>
<!-- e5625f60f&#45;77e0&#45;4b1c&#45;869d&#45;753a14d4385a&#45;&gt;e9e2a099e&#45;0101&#45;484b&#45;8196&#45;285e532dfc6e -->
<g id="e8ed85435&#45;f7e7&#45;44fc&#45;99af&#45;5d1525287e22" class="edge"><title>e5625f60f&#45;77e0&#45;4b1c&#45;869d&#45;753a14d4385a&#45;&gt;e9e2a099e&#45;0101&#45;484b&#45;8196&#45;285e532dfc6e</title>
<path fill="none" stroke="black" d="M1347.21,-168.696C1356.48,-170.157 1365.28,-171.542 1372.94,-172.748"/>
<polygon fill="black" stroke="black" points="1372.52,-176.224 1382.94,-174.322 1373.61,-169.31 1372.52,-176.224"/>
</g>
<!-- e35d687f4&#45;df26&#45;4e7b&#45;9dc1&#45;93b6a5508087&#45;&gt;eb78f346e&#45;3ac4&#45;4c3d&#45;bae2&#45;3799a68eeaeb -->
<g id="e52e98530&#45;5f3a&#45;477a&#45;80b5&#45;7e60e9e20204" class="edge"><title>e35d687f4&#45;df26&#45;4e7b&#45;9dc1&#45;93b6a5508087&#45;&gt;eb78f346e&#45;3ac4&#45;4c3d&#45;bae2&#45;3799a68eeaeb</title>
<path fill="none" stroke="black" d="M1258.38,-100C1275.41,-100 1336.39,-100 1372.53,-100"/>
<polygon fill="black" stroke="black" points="1372.87,-103.5 1382.87,-100 1372.87,-96.5001 1372.87,-103.5"/>
</g>
<!-- e73f2dbc8&#45;552f&#45;4dcb&#45;97b4&#45;ed10d45f70de&#45;&gt;eb78f346e&#45;3ac4&#45;4c3d&#45;bae2&#45;3799a68eeaeb -->
<g id="efd3700a4&#45;21a7&#45;49ff&#45;a100&#45;72bdc3bb8166" class="edge"><title>e73f2dbc8&#45;552f&#45;4dcb&#45;97b4&#45;ed10d45f70de&#45;&gt;eb78f346e&#45;3ac4&#45;4c3d&#45;bae2&#45;3799a68eeaeb</title>
<path fill="none" stroke="black" d="M1312.03,-61.0349C1323.73,-64.5701 1335.84,-68.6044 1346.95,-73 1356.68,-76.8499 1367.02,-81.8829 1375.95,-86.5591"/>
<polygon fill="black" stroke="black" points="1374.53,-89.7709 1385,-91.4202 1377.85,-83.6044 1374.53,-89.7709"/>
</g>
<!-- e4bc323e5&#45;8656&#45;42ff&#45;ac55&#45;996cc4fe5d16&#45;&gt;eedaf0493&#45;fc58&#45;45b6&#45;a69e&#45;736b1ae496ff -->
<g id="e661afc08&#45;492a&#45;472c&#45;b6cd&#45;590c0709e6f1" class="edge"><title>e4bc323e5&#45;8656&#45;42ff&#45;ac55&#45;996cc4fe5d16&#45;&gt;eedaf0493&#45;fc58&#45;45b6&#45;a69e&#45;736b1ae496ff</title>
<path fill="none" stroke="black" d="M1729.94,-70.9895C1700.42,-44.9835 1640.66,-0 1580.45,-0 1103.75,-0 1103.75,-0 1103.75,-0 1030.59,-0 1001.21,-104.856 991.204,-156.257"/>
<polygon fill="black" stroke="black" points="987.713,-155.89 989.354,-166.357 994.599,-157.152 987.713,-155.89"/>
</g>
<!-- e8f2de0d8&#45;80b9&#45;45c7&#45;842d&#45;d4ef0f011f7a&#45;&gt;e6005f90a&#45;ce99&#45;4ebe&#45;bb3e&#45;9f3908a56ddd -->
<g id="e56636b7e&#45;3e20&#45;479f&#45;bcc6&#45;8f681e64336f" class="edge"><title>e8f2de0d8&#45;80b9&#45;45c7&#45;842d&#45;d4ef0f011f7a&#45;&gt;e6005f90a&#45;ce99&#45;4ebe&#45;bb3e&#45;9f3908a56ddd</title>
<path fill="none" stroke="black" d="M1755.63,-243.426C1769.96,-256.965 1813.8,-298.4 1839.87,-323.029"/>
<polygon fill="black" stroke="black" points="1837.66,-325.759 1847.33,-330.084 1842.47,-320.672 1837.66,-325.759"/>
</g>
</g>
</svg>
