<?xml version="1.0" encoding="UTF-8" standalone="no"?>
<!DOCTYPE svg PUBLIC "-//W3C//DTD SVG 1.1//EN"
 "http://www.w3.org/Graphics/SVG/1.1/DTD/svg11.dtd">
<!-- Generated by graphviz version 2.38.0 (20140413.2041)
 -->
<!-- Title: G Pages: 1 -->
<svg width="1870pt" height="252pt"
 viewBox="0.00 0.00 1869.61 252.00" xmlns="http://www.w3.org/2000/svg" xmlns:xlink="http://www.w3.org/1999/xlink">
<g id="graph0" class="graph" transform="scale(1 1) rotate(0) translate(4 248)">
<title>G</title>
<polygon fill="white" stroke="none" points="-4,4 -4,-248 1865.61,-248 1865.61,4 -4,4"/>
<!-- e80dde7e9&#45;f02b&#45;4f51&#45;9d37&#45;9fb1f868318c -->
<g id="e80dde7e9&#45;f02b&#45;4f51&#45;9d37&#45;9fb1f868318c" class="node"><title>e80dde7e9&#45;f02b&#45;4f51&#45;9d37&#45;9fb1f868318c</title>
<ellipse fill="green" stroke="black" cx="18" cy="-92" rx="18" ry="18"/>
</g>
<!-- edf1df0aa&#45;9253&#45;4b1b&#45;91d5&#45;8a32f30adb5a -->
<g id="edf1df0aa&#45;9253&#45;4b1b&#45;91d5&#45;8a32f30adb5a" class="node"><title>edf1df0aa&#45;9253&#45;4b1b&#45;91d5&#45;8a32f30adb5a</title>
<polygon fill="none" stroke="black" points="185.303,-110 71.8988,-110 71.8988,-74 185.303,-74 185.303,-110"/>
<text text-anchor="middle" x="128.601" y="-87.8" font-family="Times,serif" font-size="14.00">A_SUBMITTED</text>
</g>
<!-- e80dde7e9&#45;f02b&#45;4f51&#45;9d37&#45;9fb1f868318c&#45;&gt;edf1df0aa&#45;9253&#45;4b1b&#45;91d5&#45;8a32f30adb5a -->
<g id="e4b908535&#45;27b9&#45;42f0&#45;ae22&#45;645f76af3cbe" class="edge"><title>e80dde7e9&#45;f02b&#45;4f51&#45;9d37&#45;9fb1f868318c&#45;&gt;edf1df0aa&#45;9253&#45;4b1b&#45;91d5&#45;8a32f30adb5a</title>
<path fill="none" stroke="black" d="M36.4486,-92C43.5819,-92 52.3216,-92 61.5361,-92"/>
<polygon fill="black" stroke="black" points="61.6677,-95.5001 71.6676,-92 61.6676,-88.5001 61.6677,-95.5001"/>
</g>
<!-- e433dd715&#45;a301&#45;4503&#45;abb8&#45;0aa4f5be4225 -->
<g id="e433dd715&#45;a301&#45;4503&#45;abb8&#45;0aa4f5be4225" class="node"><title>e433dd715&#45;a301&#45;4503&#45;abb8&#45;0aa4f5be4225</title>
<ellipse fill="red" stroke="black" cx="1843.61" cy="-72" rx="18" ry="18"/>
</g>
<!-- ead01c56c&#45;5e80&#45;4309&#45;b635&#45;e97b12951e7f -->
<g id="ead01c56c&#45;5e80&#45;4309&#45;b635&#45;e97b12951e7f" class="node"><title>ead01c56c&#45;5e80&#45;4309&#45;b635&#45;e97b12951e7f</title>
<ellipse fill="none" stroke="black" cx="239.202" cy="-92" rx="18" ry="18"/>
</g>
<!-- ed5559370&#45;6d8c&#45;472a&#45;ab04&#45;f659123d291c -->
<g id="ed5559370&#45;6d8c&#45;472a&#45;ab04&#45;f659123d291c" class="node"><title>ed5559370&#45;6d8c&#45;472a&#45;ab04&#45;f659123d291c</title>
<polygon fill="none" stroke="black" points="460.662,-110 293.382,-110 293.382,-74 460.662,-74 460.662,-110"/>
<text text-anchor="middle" x="377.022" y="-87.8" font-family="Times,serif" font-size="14.00">A_PARTLYSUBMITTED</text>
</g>
<!-- ead01c56c&#45;5e80&#45;4309&#45;b635&#45;e97b12951e7f&#45;&gt;ed5559370&#45;6d8c&#45;472a&#45;ab04&#45;f659123d291c -->
<g id="edabd8ac8&#45;d6d5&#45;4b4b&#45;ab18&#45;f5e109e48067" class="edge"><title>ead01c56c&#45;5e80&#45;4309&#45;b635&#45;e97b12951e7f&#45;&gt;ed5559370&#45;6d8c&#45;472a&#45;ab04&#45;f659123d291c</title>
<path fill="none" stroke="black" d="M257.404,-92C264.503,-92 273.32,-92 282.919,-92"/>
<polygon fill="black" stroke="black" points="283.166,-95.5001 293.166,-92 283.166,-88.5001 283.166,-95.5001"/>
</g>
<!-- e104d1267&#45;5342&#45;4210&#45;9dff&#45;73a3eea02a17 -->
<g id="e104d1267&#45;5342&#45;4210&#45;9dff&#45;73a3eea02a17" class="node"><title>e104d1267&#45;5342&#45;4210&#45;9dff&#45;73a3eea02a17</title>
<ellipse fill="none" stroke="black" cx="514.842" cy="-92" rx="18" ry="18"/>
</g>
<!-- e792bea46&#45;5afe&#45;47dd&#45;9aa5&#45;17fab411569c -->
<g id="e792bea46&#45;5afe&#45;47dd&#45;9aa5&#45;17fab411569c" class="node"><title>e792bea46&#45;5afe&#45;47dd&#45;9aa5&#45;17fab411569c</title>
<polygon fill="#eeeeee" stroke="black" points="759.447,-136 748.447,-136 748.447,-100 759.447,-100 759.447,-136"/>
</g>
<!-- e104d1267&#45;5342&#45;4210&#45;9dff&#45;73a3eea02a17&#45;&gt;e792bea46&#45;5afe&#45;47dd&#45;9aa5&#45;17fab411569c -->
<g id="ebbce8b7b&#45;6cca&#45;4329&#45;91e4&#45;4f6bee9f1e53" class="edge"><title>e104d1267&#45;5342&#45;4210&#45;9dff&#45;73a3eea02a17&#45;&gt;e792bea46&#45;5afe&#45;47dd&#45;9aa5&#45;17fab411569c</title>
<path fill="none" stroke="black" d="M532.894,-93.8699C577.35,-98.7447 696.242,-111.782 738.109,-116.373"/>
<polygon fill="black" stroke="black" points="737.788,-119.859 748.11,-117.47 738.551,-112.9 737.788,-119.859"/>
</g>
<!-- eed9e68b6&#45;5578&#45;400c&#45;a86c&#45;79619f5f578b -->
<g id="eed9e68b6&#45;5578&#45;400c&#45;a86c&#45;79619f5f578b" class="node"><title>eed9e68b6&#45;5578&#45;400c&#45;a86c&#45;79619f5f578b</title>
<polygon fill="none" stroke="black" points="699.999,-86 568.789,-86 568.789,-50 699.999,-50 699.999,-86"/>
<text text-anchor="middle" x="634.394" y="-63.8" font-family="Times,serif" font-size="14.00">A_PREACCEPTED</text>
</g>
<!-- e104d1267&#45;5342&#45;4210&#45;9dff&#45;73a3eea02a17&#45;&gt;eed9e68b6&#45;5578&#45;400c&#45;a86c&#45;79619f5f578b -->
<g id="ef4102a19&#45;728f&#45;4eca&#45;9175&#45;6c3f27570434" class="edge"><title>e104d1267&#45;5342&#45;4210&#45;9dff&#45;73a3eea02a17&#45;&gt;eed9e68b6&#45;5578&#45;400c&#45;a86c&#45;79619f5f578b</title>
<path fill="none" stroke="black" d="M532.684,-88.5614C539.969,-87.0741 549.047,-85.2206 558.749,-83.2399"/>
<polygon fill="black" stroke="black" points="559.517,-86.6553 568.615,-81.2255 558.117,-79.7967 559.517,-86.6553"/>
</g>
<!-- ea28a52bf&#45;db60&#45;4e1c&#45;a40b&#45;0c9a95e934c6 -->
<g id="ea28a52bf&#45;db60&#45;4e1c&#45;a40b&#45;0c9a95e934c6" class="node"><title>ea28a52bf&#45;db60&#45;4e1c&#45;a40b&#45;0c9a95e934c6</title>
<ellipse fill="none" stroke="black" cx="1181.57" cy="-72" rx="18" ry="18"/>
</g>
<!-- e73dc7903&#45;78c3&#45;4602&#45;8cc5&#45;11956121b99f -->
<g id="e73dc7903&#45;78c3&#45;4602&#45;8cc5&#45;11956121b99f" class="node"><title>e73dc7903&#45;78c3&#45;4602&#45;8cc5&#45;11956121b99f</title>
<polygon fill="#eeeeee" stroke="black" points="1299.22,-163 1288.22,-163 1288.22,-127 1299.22,-127 1299.22,-163"/>
</g>
<!-- ea28a52bf&#45;db60&#45;4e1c&#45;a40b&#45;0c9a95e934c6&#45;&gt;e73dc7903&#45;78c3&#45;4602&#45;8cc5&#45;11956121b99f -->
<g id="e25acb6e1&#45;48e3&#45;4bfb&#45;bab4&#45;9957ca9e74f9" class="edge"><title>ea28a52bf&#45;db60&#45;4e1c&#45;a40b&#45;0c9a95e934c6&#45;&gt;e73dc7903&#45;78c3&#45;4602&#45;8cc5&#45;11956121b99f</title>
<path fill="none" stroke="black" d="M1196.97,-81.5435C1218.42,-95.7585 1258.47,-122.298 1279.32,-136.119"/>
<polygon fill="black" stroke="black" points="1277.58,-139.165 1287.85,-141.772 1281.45,-133.33 1277.58,-139.165"/>
</g>
<!-- e062c6d2f&#45;f438&#45;438c&#45;9eca&#45;5264e95e2e2c -->
<g id="e062c6d2f&#45;f438&#45;438c&#45;9eca&#45;5264e95e2e2c" class="node"><title>e062c6d2f&#45;f438&#45;438c&#45;9eca&#45;5264e95e2e2c</title>
<polygon fill="none" stroke="black" points="1789.65,-90 1686.48,-90 1686.48,-54 1789.65,-54 1789.65,-90"/>
<text text-anchor="middle" x="1738.07" y="-67.8" font-family="Times,serif" font-size="14.00">A_DECLINED</text>
</g>
<!-- ea28a52bf&#45;db60&#45;4e1c&#45;a40b&#45;0c9a95e934c6&#45;&gt;e062c6d2f&#45;f438&#45;438c&#45;9eca&#45;5264e95e2e2c -->
<g id="e4409950f&#45;9813&#45;4cd0&#45;b1c1&#45;4c96fcbdb086" class="edge"><title>ea28a52bf&#45;db60&#45;4e1c&#45;a40b&#45;0c9a95e934c6&#45;&gt;e062c6d2f&#45;f438&#45;438c&#45;9eca&#45;5264e95e2e2c</title>
<path fill="none" stroke="black" d="M1199.58,-72C1236.8,-72 1328.27,-72 1404.88,-72 1404.88,-72 1404.88,-72 1520.2,-72 1572.83,-72 1632.65,-72 1676.11,-72"/>
<polygon fill="black" stroke="black" points="1676.24,-75.5001 1686.24,-72 1676.24,-68.5001 1676.24,-75.5001"/>
</g>
<!-- e9e8ef43b&#45;5190&#45;481e&#45;a16d&#45;d4fc05040a3a -->
<g id="e9e8ef43b&#45;5190&#45;481e&#45;a16d&#45;d4fc05040a3a" class="node"><title>e9e8ef43b&#45;5190&#45;481e&#45;a16d&#45;d4fc05040a3a</title>
<polygon fill="none" stroke="black" points="1352.03,-44 1235.41,-44 1235.41,-8 1352.03,-8 1352.03,-44"/>
<text text-anchor="middle" x="1293.72" y="-21.8" font-family="Times,serif" font-size="14.00">A_CANCELLED</text>
</g>
<!-- ea28a52bf&#45;db60&#45;4e1c&#45;a40b&#45;0c9a95e934c6&#45;&gt;e9e8ef43b&#45;5190&#45;481e&#45;a16d&#45;d4fc05040a3a -->
<g id="e31cb3824&#45;84d5&#45;4b2d&#45;9cfc&#45;7fc57c87d303" class="edge"><title>ea28a52bf&#45;db60&#45;4e1c&#45;a40b&#45;0c9a95e934c6&#45;&gt;e9e8ef43b&#45;5190&#45;481e&#45;a16d&#45;d4fc05040a3a</title>
<path fill="none" stroke="black" d="M1198.35,-65.4093C1209.39,-60.801 1224.81,-54.3589 1240,-48.0166"/>
<polygon fill="black" stroke="black" points="1241.51,-51.1811 1249.38,-44.0979 1238.81,-44.7217 1241.51,-51.1811"/>
</g>
<!-- e9e3ff87c&#45;21d2&#45;434e&#45;bd7b&#45;898931729158 -->
<g id="e9e3ff87c&#45;21d2&#45;434e&#45;bd7b&#45;898931729158" class="node"><title>e9e3ff87c&#45;21d2&#45;434e&#45;bd7b&#45;898931729158</title>
<ellipse fill="none" stroke="black" cx="753.947" cy="-64" rx="18" ry="18"/>
</g>
<!-- e0f21cd0e&#45;827f&#45;483e&#45;8e6a&#45;10e3a6084290 -->
<g id="e0f21cd0e&#45;827f&#45;483e&#45;8e6a&#45;10e3a6084290" class="node"><title>e0f21cd0e&#45;827f&#45;483e&#45;8e6a&#45;10e3a6084290</title>
<polygon fill="#eeeeee" stroke="black" points="866.163,-90 855.163,-90 855.163,-54 866.163,-54 866.163,-90"/>
</g>
<!-- e9e3ff87c&#45;21d2&#45;434e&#45;bd7b&#45;898931729158&#45;&gt;e0f21cd0e&#45;827f&#45;483e&#45;8e6a&#45;10e3a6084290 -->
<g id="e987e389d&#45;a0e1&#45;45de&#45;855b&#45;d38db4e8c6b5" class="edge"><title>e9e3ff87c&#45;21d2&#45;434e&#45;bd7b&#45;898931729158&#45;&gt;e0f21cd0e&#45;827f&#45;483e&#45;8e6a&#45;10e3a6084290</title>
<path fill="none" stroke="black" d="M772.239,-65.321C792.54,-66.872 825.857,-69.4173 844.964,-70.877"/>
<polygon fill="black" stroke="black" points="844.749,-74.3707 854.986,-71.6427 845.282,-67.391 844.749,-74.3707"/>
</g>
<!-- eb01e7a66&#45;bc4d&#45;4fe3&#45;8696&#45;2223a856a6c4 -->
<g id="eb01e7a66&#45;bc4d&#45;4fe3&#45;8696&#45;2223a856a6c4" class="node"><title>eb01e7a66&#45;bc4d&#45;4fe3&#45;8696&#45;2223a856a6c4</title>
<polygon fill="none" stroke="black" points="913.598,-36 807.729,-36 807.729,-0 913.598,-0 913.598,-36"/>
<text text-anchor="middle" x="860.663" y="-13.8" font-family="Times,serif" font-size="14.00">A_ACCEPTED</text>
</g>
<!-- e9e3ff87c&#45;21d2&#45;434e&#45;bd7b&#45;898931729158&#45;&gt;eb01e7a66&#45;bc4d&#45;4fe3&#45;8696&#45;2223a856a6c4 -->
<g id="ea1d71c1f&#45;8777&#45;41eb&#45;92ed&#45;be30d541b7e9" class="edge"><title>e9e3ff87c&#45;21d2&#45;434e&#45;bd7b&#45;898931729158&#45;&gt;eb01e7a66&#45;bc4d&#45;4fe3&#45;8696&#45;2223a856a6c4</title>
<path fill="none" stroke="black" d="M770.851,-57.0136C781.078,-52.521 794.989,-46.4101 808.766,-40.3585"/>
<polygon fill="black" stroke="black" points="810.486,-43.4254 818.234,-36.199 807.671,-37.0165 810.486,-43.4254"/>
</g>
<!-- eccae88f8&#45;a117&#45;4703&#45;b54d&#45;599a98382834 -->
<g id="eccae88f8&#45;a117&#45;4703&#45;b54d&#45;599a98382834" class="node"><title>eccae88f8&#45;a117&#45;4703&#45;b54d&#45;599a98382834</title>
<ellipse fill="none" stroke="black" cx="967.38" cy="-45" rx="18" ry="18"/>
</g>
<!-- e8d0d0b06&#45;a3e6&#45;4559&#45;9e19&#45;2958bb746dfa -->
<g id="e8d0d0b06&#45;a3e6&#45;4559&#45;9e19&#45;2958bb746dfa" class="node"><title>e8d0d0b06&#45;a3e6&#45;4559&#45;9e19&#45;2958bb746dfa</title>
<polygon fill="#eeeeee" stroke="black" points="1079.97,-90 1068.97,-90 1068.97,-54 1079.97,-54 1079.97,-90"/>
</g>
<!-- eccae88f8&#45;a117&#45;4703&#45;b54d&#45;599a98382834&#45;&gt;e8d0d0b06&#45;a3e6&#45;4559&#45;9e19&#45;2958bb746dfa -->
<g id="ee6094bd4&#45;5790&#45;4747&#45;9e1c&#45;411ba3db0749" class="edge"><title>eccae88f8&#45;a117&#45;4703&#45;b54d&#45;599a98382834&#45;&gt;e8d0d0b06&#45;a3e6&#45;4559&#45;9e19&#45;2958bb746dfa</title>
<path fill="none" stroke="black" d="M985.265,-49.338C1005.64,-54.5722 1039.55,-63.2854 1058.86,-68.2442"/>
<polygon fill="black" stroke="black" points="1058.18,-71.6834 1068.73,-70.7819 1059.92,-64.9036 1058.18,-71.6834"/>
</g>
<!-- e57c1e246&#45;3235&#45;4635&#45;be33&#45;f78cfec4aec5 -->
<g id="e57c1e246&#45;3235&#45;4635&#45;be33&#45;f78cfec4aec5" class="node"><title>e57c1e246&#45;3235&#45;4635&#45;be33&#45;f78cfec4aec5</title>
<polygon fill="none" stroke="black" points="1127.66,-36 1021.29,-36 1021.29,-0 1127.66,-0 1127.66,-36"/>
<text text-anchor="middle" x="1074.47" y="-13.8" font-family="Times,serif" font-size="14.00">A_FINALIZED</text>
</g>
<!-- eccae88f8&#45;a117&#45;4703&#45;b54d&#45;599a98382834&#45;&gt;e57c1e246&#45;3235&#45;4635&#45;be33&#45;f78cfec4aec5 -->
<g id="e476f42ea&#45;1a46&#45;4c70&#45;baa6&#45;1c35cb0f6e8f" class="edge"><title>eccae88f8&#45;a117&#45;4703&#45;b54d&#45;599a98382834&#45;&gt;e57c1e246&#45;3235&#45;4635&#45;be33&#45;f78cfec4aec5</title>
<path fill="none" stroke="black" d="M985.265,-40.662C992.663,-38.7614 1001.85,-36.402 1011.47,-33.9303"/>
<polygon fill="black" stroke="black" points="1012.37,-37.3122 1021.18,-31.4339 1010.63,-30.5324 1012.37,-37.3122"/>
</g>
<!-- ef333daf5&#45;2b96&#45;4837&#45;a040&#45;5ff0fce01cb7 -->
<g id="ef333daf5&#45;2b96&#45;4837&#45;a040&#45;5ff0fce01cb7" class="node"><title>ef333daf5&#45;2b96&#45;4837&#45;a040&#45;5ff0fce01cb7</title>
<ellipse fill="none" stroke="black" cx="1405.88" cy="-226" rx="18" ry="18"/>
</g>
<!-- ee2c43664&#45;0fb8&#45;4d23&#45;b1ed&#45;747e55a7b3b9 -->
<g id="ee2c43664&#45;0fb8&#45;4d23&#45;b1ed&#45;747e55a7b3b9" class="node"><title>ee2c43664&#45;0fb8&#45;4d23&#45;b1ed&#45;747e55a7b3b9</title>
<polygon fill="none" stroke="black" points="1578.35,-244 1460.05,-244 1460.05,-208 1578.35,-208 1578.35,-244"/>
<text text-anchor="middle" x="1519.2" y="-221.8" font-family="Times,serif" font-size="14.00">A_REGISTERED</text>
</g>
<!-- ef333daf5&#45;2b96&#45;4837&#45;a040&#45;5ff0fce01cb7&#45;&gt;ee2c43664&#45;0fb8&#45;4d23&#45;b1ed&#45;747e55a7b3b9 -->
<g id="e7c018291&#45;1f0c&#45;4b67&#45;a809&#45;1740b5659508" class="edge"><title>ef333daf5&#45;2b96&#45;4837&#45;a040&#45;5ff0fce01cb7&#45;&gt;ee2c43664&#45;0fb8&#45;4d23&#45;b1ed&#45;747e55a7b3b9</title>
<path fill="none" stroke="black" d="M1424.27,-226C1431.46,-226 1440.29,-226 1449.64,-226"/>
<polygon fill="black" stroke="black" points="1449.93,-229.5 1459.93,-226 1449.93,-222.5 1449.93,-229.5"/>
</g>
<!-- e331006fe&#45;ecab&#45;4b1e&#45;bd1b&#45;e74cbbdf1b1e -->
<g id="e331006fe&#45;ecab&#45;4b1e&#45;bd1b&#45;e74cbbdf1b1e" class="node"><title>e331006fe&#45;ecab&#45;4b1e&#45;bd1b&#45;e74cbbdf1b1e</title>
<ellipse fill="none" stroke="black" cx="1632.52" cy="-226" rx="18" ry="18"/>
</g>
<!-- e8bb58e3a&#45;c5bb&#45;4ee0&#45;8b55&#45;484491c62c3a -->
<g id="e8bb58e3a&#45;c5bb&#45;4ee0&#45;8b55&#45;484491c62c3a" class="node"><title>e8bb58e3a&#45;c5bb&#45;4ee0&#45;8b55&#45;484491c62c3a</title>
<polygon fill="#eeeeee" stroke="black" points="1743.57,-167 1732.57,-167 1732.57,-131 1743.57,-131 1743.57,-167"/>
</g>
<!-- e331006fe&#45;ecab&#45;4b1e&#45;bd1b&#45;e74cbbdf1b1e&#45;&gt;e8bb58e3a&#45;c5bb&#45;4ee0&#45;8b55&#45;484491c62c3a -->
<g id="eaeb62bf4&#45;7dee&#45;4cf9&#45;b895&#45;53d527e56068" class="edge"><title>e331006fe&#45;ecab&#45;4b1e&#45;bd1b&#45;e74cbbdf1b1e&#45;&gt;e8bb58e3a&#45;c5bb&#45;4ee0&#45;8b55&#45;484491c62c3a</title>
<path fill="none" stroke="black" d="M1647.49,-215.615C1667.7,-200.585 1704.81,-172.985 1724.32,-158.479"/>
<polygon fill="black" stroke="black" points="1726.6,-161.148 1732.53,-152.372 1722.42,-155.531 1726.6,-161.148"/>
</g>
<!-- e0327f330&#45;b45f&#45;4653&#45;a8e8&#45;61cb6750a78a -->
<g id="e0327f330&#45;b45f&#45;4653&#45;a8e8&#45;61cb6750a78a" class="node"><title>e0327f330&#45;b45f&#45;4653&#45;a8e8&#45;61cb6750a78a</title>
<ellipse fill="none" stroke="black" cx="1405.88" cy="-172" rx="18" ry="18"/>
</g>
<!-- e746a3e8a&#45;182a&#45;46f7&#45;817a&#45;d86509994565 -->
<g id="e746a3e8a&#45;182a&#45;46f7&#45;817a&#45;d86509994565" class="node"><title>e746a3e8a&#45;182a&#45;46f7&#45;817a&#45;d86509994565</title>
<polygon fill="none" stroke="black" points="1572.69,-190 1465.71,-190 1465.71,-154 1572.69,-154 1572.69,-190"/>
<text text-anchor="middle" x="1519.2" y="-167.8" font-family="Times,serif" font-size="14.00">A_APPROVED</text>
</g>
<!-- e0327f330&#45;b45f&#45;4653&#45;a8e8&#45;61cb6750a78a&#45;&gt;e746a3e8a&#45;182a&#45;46f7&#45;817a&#45;d86509994565 -->
<g id="e5e5e57bb&#45;e33e&#45;4d41&#45;bd85&#45;5e147ba3cb9b" class="edge"><title>e0327f330&#45;b45f&#45;4653&#45;a8e8&#45;61cb6750a78a&#45;&gt;e746a3e8a&#45;182a&#45;46f7&#45;817a&#45;d86509994565</title>
<path fill="none" stroke="black" d="M1424.27,-172C1432.88,-172 1443.86,-172 1455.24,-172"/>
<polygon fill="black" stroke="black" points="1455.31,-175.5 1465.31,-172 1455.31,-168.5 1455.31,-175.5"/>
</g>
<!-- e82cefd6a&#45;2b5f&#45;4420&#45;9ecc&#45;7ca756672d13 -->
<g id="e82cefd6a&#45;2b5f&#45;4420&#45;9ecc&#45;7ca756672d13" class="node"><title>e82cefd6a&#45;2b5f&#45;4420&#45;9ecc&#45;7ca756672d13</title>
<ellipse fill="none" stroke="black" cx="1632.52" cy="-172" rx="18" ry="18"/>
</g>
<!-- e82cefd6a&#45;2b5f&#45;4420&#45;9ecc&#45;7ca756672d13&#45;&gt;e8bb58e3a&#45;c5bb&#45;4ee0&#45;8b55&#45;484491c62c3a -->
<g id="e2c134731&#45;d2b4&#45;4f29&#45;bc1e&#45;c85f1ca81b6e" class="edge"><title>e82cefd6a&#45;2b5f&#45;4420&#45;9ecc&#45;7ca756672d13&#45;&gt;e8bb58e3a&#45;c5bb&#45;4ee0&#45;8b55&#45;484491c62c3a</title>
<path fill="none" stroke="black" d="M1650.16,-168.305C1670.14,-163.867 1703.33,-156.494 1722.39,-152.259"/>
<polygon fill="black" stroke="black" points="1723.39,-155.623 1732.39,-150.038 1721.87,-148.789 1723.39,-155.623"/>
</g>
<!-- ea06cf5a4&#45;6dae&#45;465c&#45;ad1a&#45;72f67b228230 -->
<g id="ea06cf5a4&#45;6dae&#45;465c&#45;ad1a&#45;72f67b228230" class="node"><title>ea06cf5a4&#45;6dae&#45;465c&#45;ad1a&#45;72f67b228230</title>
<ellipse fill="none" stroke="black" cx="1405.88" cy="-118" rx="18" ry="18"/>
</g>
<!-- e530606a6&#45;2892&#45;4702&#45;8de2&#45;ccebf82473f4 -->
<g id="e530606a6&#45;2892&#45;4702&#45;8de2&#45;ccebf82473f4" class="node"><title>e530606a6&#45;2892&#45;4702&#45;8de2&#45;ccebf82473f4</title>
<polygon fill="none" stroke="black" points="1575.89,-136 1462.51,-136 1462.51,-100 1575.89,-100 1575.89,-136"/>
<text text-anchor="middle" x="1519.2" y="-113.8" font-family="Times,serif" font-size="14.00">A_ACTIVATED</text>
</g>
<!-- ea06cf5a4&#45;6dae&#45;465c&#45;ad1a&#45;72f67b228230&#45;&gt;e530606a6&#45;2892&#45;4702&#45;8de2&#45;ccebf82473f4 -->
<g id="e1107217a&#45;72a0&#45;42c9&#45;8b8d&#45;c89a540c3c39" class="edge"><title>ea06cf5a4&#45;6dae&#45;465c&#45;ad1a&#45;72f67b228230&#45;&gt;e530606a6&#45;2892&#45;4702&#45;8de2&#45;ccebf82473f4</title>
<path fill="none" stroke="black" d="M1424.27,-118C1432.15,-118 1442.01,-118 1452.36,-118"/>
<polygon fill="black" stroke="black" points="1452.38,-121.5 1462.38,-118 1452.38,-114.5 1452.38,-121.5"/>
</g>
<!-- e86981fd3&#45;510f&#45;4e6e&#45;89d3&#45;94c8cbe67113 -->
<g id="e86981fd3&#45;510f&#45;4e6e&#45;89d3&#45;94c8cbe67113" class="node"><title>e86981fd3&#45;510f&#45;4e6e&#45;89d3&#45;94c8cbe67113</title>
<ellipse fill="none" stroke="black" cx="1632.52" cy="-118" rx="18" ry="18"/>
</g>
<!-- e86981fd3&#45;510f&#45;4e6e&#45;89d3&#45;94c8cbe67113&#45;&gt;e8bb58e3a&#45;c5bb&#45;4ee0&#45;8b55&#45;484491c62c3a -->
<g id="ef8026e37&#45;42fe&#45;4f26&#45;aeae&#45;54fef894e072" class="edge"><title>e86981fd3&#45;510f&#45;4e6e&#45;89d3&#45;94c8cbe67113&#45;&gt;e8bb58e3a&#45;c5bb&#45;4ee0&#45;8b55&#45;484491c62c3a</title>
<path fill="none" stroke="black" d="M1650.16,-122.981C1670.23,-128.99 1703.65,-138.994 1722.66,-144.688"/>
<polygon fill="black" stroke="black" points="1721.81,-148.086 1732.39,-147.601 1723.82,-141.38 1721.81,-148.086"/>
</g>
<!-- edf1df0aa&#45;9253&#45;4b1b&#45;91d5&#45;8a32f30adb5a&#45;&gt;ead01c56c&#45;5e80&#45;4309&#45;b635&#45;e97b12951e7f -->
<g id="ed35f6c0d&#45;4fbb&#45;4b99&#45;9afa&#45;3117b1d3226e" class="edge"><title>edf1df0aa&#45;9253&#45;4b1b&#45;91d5&#45;8a32f30adb5a&#45;&gt;ead01c56c&#45;5e80&#45;4309&#45;b635&#45;e97b12951e7f</title>
<path fill="none" stroke="black" d="M185.492,-92C194.253,-92 202.958,-92 210.695,-92"/>
<polygon fill="black" stroke="black" points="210.893,-95.5001 220.893,-92 210.893,-88.5001 210.893,-95.5001"/>
</g>
<!-- ed5559370&#45;6d8c&#45;472a&#45;ab04&#45;f659123d291c&#45;&gt;e104d1267&#45;5342&#45;4210&#45;9dff&#45;73a3eea02a17 -->
<g id="e8d3821e4&#45;bf60&#45;4a8f&#45;8c99&#45;a9ac3e1f9224" class="edge"><title>ed5559370&#45;6d8c&#45;472a&#45;ab04&#45;f659123d291c&#45;&gt;e104d1267&#45;5342&#45;4210&#45;9dff&#45;73a3eea02a17</title>
<path fill="none" stroke="black" d="M460.941,-92C470.101,-92 478.877,-92 486.557,-92"/>
<polygon fill="black" stroke="black" points="486.61,-95.5001 496.61,-92 486.61,-88.5001 486.61,-95.5001"/>
</g>
<!-- e792bea46&#45;5afe&#45;47dd&#45;9aa5&#45;17fab411569c&#45;&gt;ea28a52bf&#45;db60&#45;4e1c&#45;a40b&#45;0c9a95e934c6 -->
<g id="ebbeab36e&#45;10da&#45;457a&#45;8967&#45;6c8213ffebc8" class="edge"><title>e792bea46&#45;5afe&#45;47dd&#45;9aa5&#45;17fab411569c&#45;&gt;ea28a52bf&#45;db60&#45;4e1c&#45;a40b&#45;0c9a95e934c6</title>
<path fill="none" stroke="black" d="M759.485,-118.47C791.07,-121.599 981.13,-138.121 1127.57,-99 1137.79,-96.2701 1148.31,-91.4028 1157.26,-86.5453"/>
<polygon fill="black" stroke="black" points="1159,-89.5824 1165.94,-81.5768 1155.53,-83.5073 1159,-89.5824"/>
</g>
<!-- eed9e68b6&#45;5578&#45;400c&#45;a86c&#45;79619f5f578b&#45;&gt;e9e3ff87c&#45;21d2&#45;434e&#45;bd7b&#45;898931729158 -->
<g id="ef443d5ba&#45;c521&#45;453b&#45;94a5&#45;3fdde22b2986" class="edge"><title>eed9e68b6&#45;5578&#45;400c&#45;a86c&#45;79619f5f578b&#45;&gt;e9e3ff87c&#45;21d2&#45;434e&#45;bd7b&#45;898931729158</title>
<path fill="none" stroke="black" d="M700.017,-65.8011C709.01,-65.4951 717.818,-65.1953 725.589,-64.9309"/>
<polygon fill="black" stroke="black" points="725.92,-68.4218 735.795,-64.5836 725.681,-61.4258 725.92,-68.4218"/>
</g>
<!-- e0f21cd0e&#45;827f&#45;483e&#45;8e6a&#45;10e3a6084290&#45;&gt;eccae88f8&#45;a117&#45;4703&#45;b54d&#45;599a98382834 -->
<g id="e44524f74&#45;c889&#45;4560&#45;a14c&#45;9b78795a04d0" class="edge"><title>e0f21cd0e&#45;827f&#45;483e&#45;8e6a&#45;10e3a6084290&#45;&gt;eccae88f8&#45;a117&#45;4703&#45;b54d&#45;599a98382834</title>
<path fill="none" stroke="black" d="M866.435,-70.7697C879.179,-67.4839 914.743,-58.314 939.805,-51.8521"/>
<polygon fill="black" stroke="black" points="940.996,-55.1595 949.806,-49.2736 939.248,-48.3812 940.996,-55.1595"/>
</g>
<!-- eb01e7a66&#45;bc4d&#45;4fe3&#45;8696&#45;2223a856a6c4&#45;&gt;eccae88f8&#45;a117&#45;4703&#45;b54d&#45;599a98382834 -->
<g id="e6b763824&#45;802a&#45;4ce0&#45;a4c1&#45;130b47a66492" class="edge"><title>eb01e7a66&#45;bc4d&#45;4fe3&#45;8696&#45;2223a856a6c4&#45;&gt;eccae88f8&#45;a117&#45;4703&#45;b54d&#45;599a98382834</title>
<path fill="none" stroke="black" d="M913.408,-31.3418C922.58,-33.7067 931.777,-36.078 939.873,-38.1655"/>
<polygon fill="black" stroke="black" points="939.23,-41.6141 949.788,-40.7218 940.978,-34.8358 939.23,-41.6141"/>
</g>
<!-- e8d0d0b06&#45;a3e6&#45;4559&#45;9e19&#45;2958bb746dfa&#45;&gt;ea28a52bf&#45;db60&#45;4e1c&#45;a40b&#45;0c9a95e934c6 -->
<g id="e39dae3c9&#45;e0ef&#45;4f62&#45;8923&#45;0168ebdf650a" class="edge"><title>e8d0d0b06&#45;a3e6&#45;4559&#45;9e19&#45;2958bb746dfa&#45;&gt;ea28a52bf&#45;db60&#45;4e1c&#45;a40b&#45;0c9a95e934c6</title>
<path fill="none" stroke="black" d="M1079.99,-72C1092.43,-72 1127.98,-72 1153.27,-72"/>
<polygon fill="black" stroke="black" points="1153.39,-75.5001 1163.39,-72 1153.39,-68.5001 1153.39,-75.5001"/>
</g>
<!-- e57c1e246&#45;3235&#45;4635&#45;be33&#45;f78cfec4aec5&#45;&gt;ea28a52bf&#45;db60&#45;4e1c&#45;a40b&#45;0c9a95e934c6 -->
<g id="eb65d232a&#45;1579&#45;4898&#45;82fd&#45;78d9331e4cf9" class="edge"><title>e57c1e246&#45;3235&#45;4635&#45;be33&#45;f78cfec4aec5&#45;&gt;ea28a52bf&#45;db60&#45;4e1c&#45;a40b&#45;0c9a95e934c6</title>
<path fill="none" stroke="black" d="M1110.76,-36.1314C1125.64,-43.7746 1142.59,-52.4845 1156.06,-59.4072"/>
<polygon fill="black" stroke="black" points="1154.68,-62.6343 1165.18,-64.0915 1157.88,-56.4081 1154.68,-62.6343"/>
</g>
<!-- e73dc7903&#45;78c3&#45;4602&#45;8cc5&#45;11956121b99f&#45;&gt;ef333daf5&#45;2b96&#45;4837&#45;a040&#45;5ff0fce01cb7 -->
<g id="ed1cd58ab&#45;c3a1&#45;47e3&#45;a47b&#45;a981cf5cc39f" class="edge"><title>e73dc7903&#45;78c3&#45;4602&#45;8cc5&#45;11956121b99f&#45;&gt;ef333daf5&#45;2b96&#45;4837&#45;a040&#45;5ff0fce01cb7</title>
<path fill="none" stroke="black" d="M1299.46,-148.48C1313.59,-158.873 1356.14,-190.165 1382.67,-209.667"/>
<polygon fill="black" stroke="black" points="1380.85,-212.678 1390.98,-215.782 1385,-207.038 1380.85,-212.678"/>
</g>
<!-- e73dc7903&#45;78c3&#45;4602&#45;8cc5&#45;11956121b99f&#45;&gt;e0327f330&#45;b45f&#45;4653&#45;a8e8&#45;61cb6750a78a -->
<g id="e0d1302c0&#45;3228&#45;4b16&#45;a350&#45;9e4c39e75c18" class="edge"><title>e73dc7903&#45;78c3&#45;4602&#45;8cc5&#45;11956121b99f&#45;&gt;e0327f330&#45;b45f&#45;4653&#45;a8e8&#45;61cb6750a78a</title>
<path fill="none" stroke="black" d="M1299.46,-146.16C1312.83,-149.439 1351.68,-158.961 1378.29,-165.482"/>
<polygon fill="black" stroke="black" points="1377.6,-168.918 1388.15,-167.899 1379.27,-162.119 1377.6,-168.918"/>
</g>
<!-- e73dc7903&#45;78c3&#45;4602&#45;8cc5&#45;11956121b99f&#45;&gt;ea06cf5a4&#45;6dae&#45;465c&#45;ad1a&#45;72f67b228230 -->
<g id="eaa0a58ba&#45;37fb&#45;4b90&#45;8187&#45;ec37ff356ba4" class="edge"><title>e73dc7903&#45;78c3&#45;4602&#45;8cc5&#45;11956121b99f&#45;&gt;ea06cf5a4&#45;6dae&#45;465c&#45;ad1a&#45;72f67b228230</title>
<path fill="none" stroke="black" d="M1299.46,-143.84C1312.83,-140.561 1351.68,-131.039 1378.29,-124.518"/>
<polygon fill="black" stroke="black" points="1379.27,-127.881 1388.15,-122.101 1377.6,-121.082 1379.27,-127.881"/>
</g>
<!-- e8bb58e3a&#45;c5bb&#45;4ee0&#45;8b55&#45;484491c62c3a&#45;&gt;e433dd715&#45;a301&#45;4503&#45;abb8&#45;0aa4f5be4225 -->
<g id="ecf3b6999&#45;1433&#45;4668&#45;8084&#45;cf8e843cc812" class="edge"><title>e8bb58e3a&#45;c5bb&#45;4ee0&#45;8b55&#45;484491c62c3a&#45;&gt;e433dd715&#45;a301&#45;4503&#45;abb8&#45;0aa4f5be4225</title>
<path fill="none" stroke="black" d="M1743.78,-145.491C1757.09,-135.596 1795.56,-106.987 1820.39,-88.5209"/>
<polygon fill="black" stroke="black" points="1822.61,-91.2357 1828.54,-82.4597 1818.43,-85.6186 1822.61,-91.2357"/>
</g>
<!-- ee2c43664&#45;0fb8&#45;4d23&#45;b1ed&#45;747e55a7b3b9&#45;&gt;e331006fe&#45;ecab&#45;4b1e&#45;bd1b&#45;e74cbbdf1b1e -->
<g id="efb7209d8&#45;b3b0&#45;4aaf&#45;8c85&#45;939e443a6604" class="edge"><title>ee2c43664&#45;0fb8&#45;4d23&#45;b1ed&#45;747e55a7b3b9&#45;&gt;e331006fe&#45;ecab&#45;4b1e&#45;bd1b&#45;e74cbbdf1b1e</title>
<path fill="none" stroke="black" d="M1578.47,-226C1587.34,-226 1596.12,-226 1603.91,-226"/>
<polygon fill="black" stroke="black" points="1604.16,-229.5 1614.16,-226 1604.16,-222.5 1604.16,-229.5"/>
</g>
<!-- e746a3e8a&#45;182a&#45;46f7&#45;817a&#45;d86509994565&#45;&gt;e82cefd6a&#45;2b5f&#45;4420&#45;9ecc&#45;7ca756672d13 -->
<g id="e945e8b4a&#45;675d&#45;4d14&#45;9a6e&#45;dbf553972817" class="edge"><title>e746a3e8a&#45;182a&#45;46f7&#45;817a&#45;d86509994565&#45;&gt;e82cefd6a&#45;2b5f&#45;4420&#45;9ecc&#45;7ca756672d13</title>
<path fill="none" stroke="black" d="M1572.93,-172C1583.67,-172 1594.56,-172 1603.99,-172"/>
<polygon fill="black" stroke="black" points="1604.3,-175.5 1614.3,-172 1604.3,-168.5 1604.3,-175.5"/>
</g>
<!-- e530606a6&#45;2892&#45;4702&#45;8de2&#45;ccebf82473f4&#45;&gt;e86981fd3&#45;510f&#45;4e6e&#45;89d3&#45;94c8cbe67113 -->
<g id="e6b2e21b9&#45;5021&#45;4434&#45;a1c2&#45;f246f18c4830" class="edge"><title>e530606a6&#45;2892&#45;4702&#45;8de2&#45;ccebf82473f4&#45;&gt;e86981fd3&#45;510f&#45;4e6e&#45;89d3&#45;94c8cbe67113</title>
<path fill="none" stroke="black" d="M1575.86,-118C1585.65,-118 1595.43,-118 1604.01,-118"/>
<polygon fill="black" stroke="black" points="1604.13,-121.5 1614.13,-118 1604.13,-114.5 1604.13,-121.5"/>
</g>
<!-- e062c6d2f&#45;f438&#45;438c&#45;9eca&#45;5264e95e2e2c&#45;&gt;e433dd715&#45;a301&#45;4503&#45;abb8&#45;0aa4f5be4225 -->
<g id="e90ddc758&#45;9fd5&#45;4d93&#45;8c33&#45;e80a9f78f695" class="edge"><title>e062c6d2f&#45;f438&#45;438c&#45;9eca&#45;5264e95e2e2c&#45;&gt;e433dd715&#45;a301&#45;4503&#45;abb8&#45;0aa4f5be4225</title>
<path fill="none" stroke="black" d="M1789.62,-72C1798.52,-72 1807.46,-72 1815.4,-72"/>
<polygon fill="black" stroke="black" points="1815.5,-75.5001 1825.5,-72 1815.5,-68.5001 1815.5,-75.5001"/>
</g>
<!-- e9e8ef43b&#45;5190&#45;481e&#45;a16d&#45;d4fc05040a3a&#45;&gt;e433dd715&#45;a301&#45;4503&#45;abb8&#45;0aa4f5be4225 -->
<g id="e8b23fc47&#45;3fe4&#45;4d35&#45;a267&#45;c7f8ba8eb7e9" class="edge"><title>e9e8ef43b&#45;5190&#45;481e&#45;a16d&#45;d4fc05040a3a&#45;&gt;e433dd715&#45;a301&#45;4503&#45;abb8&#45;0aa4f5be4225</title>
<path fill="none" stroke="black" d="M1352.14,-26C1397.28,-26 1461.75,-26 1518.2,-26 1518.2,-26 1518.2,-26 1633.52,-26 1703.41,-26 1722.77,-24.6057 1789.61,-45 1799.62,-48.0542 1810.01,-52.9216 1818.91,-57.6879"/>
<polygon fill="black" stroke="black" points="1817.46,-60.8887 1827.89,-62.7297 1820.88,-54.784 1817.46,-60.8887"/>
</g>
</g>
</svg>
