<?xml version="1.0" encoding="UTF-8" standalone="no"?>
<!DOCTYPE svg PUBLIC "-//W3C//DTD SVG 1.1//EN"
 "http://www.w3.org/Graphics/SVG/1.1/DTD/svg11.dtd">
<!-- Generated by graphviz version 2.38.0 (20140413.2041)
 -->
<!-- Title: G Pages: 1 -->
<svg width="1535pt" height="250pt"
 viewBox="0.00 0.00 1534.83 250.00" xmlns="http://www.w3.org/2000/svg" xmlns:xlink="http://www.w3.org/1999/xlink">
<g id="graph0" class="graph" transform="scale(1 1) rotate(0) translate(4 246)">
<title>G</title>
<polygon fill="white" stroke="none" points="-4,4 -4,-246 1530.83,-246 1530.83,4 -4,4"/>
<!-- ebdcc7842&#45;5712&#45;49ac&#45;8d75&#45;29739beeba3f -->
<g id="ebdcc7842&#45;5712&#45;49ac&#45;8d75&#45;29739beeba3f" class="node"><title>ebdcc7842&#45;5712&#45;49ac&#45;8d75&#45;29739beeba3f</title>
<ellipse fill="green" stroke="black" cx="18" cy="-150" rx="18" ry="18"/>
</g>
<!-- efe76f37a&#45;c821&#45;4cfe&#45;8dc8&#45;45f4afa741c0 -->
<g id="efe76f37a&#45;c821&#45;4cfe&#45;8dc8&#45;45f4afa741c0" class="node"><title>efe76f37a&#45;c821&#45;4cfe&#45;8dc8&#45;45f4afa741c0</title>
<polygon fill="#eeeeee" stroke="black" points="83,-168 72,-168 72,-132 83,-132 83,-168"/>
</g>
<!-- ebdcc7842&#45;5712&#45;49ac&#45;8d75&#45;29739beeba3f&#45;&gt;efe76f37a&#45;c821&#45;4cfe&#45;8dc8&#45;45f4afa741c0 -->
<g id="e0f7cd059&#45;f1e9&#45;4656&#45;9ddb&#45;e91c70ef6234" class="edge"><title>ebdcc7842&#45;5712&#45;49ac&#45;8d75&#45;29739beeba3f&#45;&gt;efe76f37a&#45;c821&#45;4cfe&#45;8dc8&#45;45f4afa741c0</title>
<path fill="none" stroke="black" d="M36.2519,-150C44.2407,-150 53.6477,-150 61.3576,-150"/>
<polygon fill="black" stroke="black" points="61.6286,-153.5 71.6286,-150 61.6285,-146.5 61.6286,-153.5"/>
</g>
<!-- eb94db35b&#45;b56c&#45;4f27&#45;8957&#45;e3b1887c31b8 -->
<g id="eb94db35b&#45;b56c&#45;4f27&#45;8957&#45;e3b1887c31b8" class="node"><title>eb94db35b&#45;b56c&#45;4f27&#45;8957&#45;e3b1887c31b8</title>
<ellipse fill="red" stroke="black" cx="1508.83" cy="-170" rx="18" ry="18"/>
</g>
<!-- e631f413d&#45;9f34&#45;4a42&#45;93e0&#45;52272432b38d -->
<g id="e631f413d&#45;9f34&#45;4a42&#45;93e0&#45;52272432b38d" class="node"><title>e631f413d&#45;9f34&#45;4a42&#45;93e0&#45;52272432b38d</title>
<ellipse fill="none" stroke="black" cx="1073.41" cy="-170" rx="18" ry="18"/>
</g>
<!-- ee5cf25c5&#45;d09d&#45;49ab&#45;9ac7&#45;033cf969c243 -->
<g id="ee5cf25c5&#45;d09d&#45;49ab&#45;9ac7&#45;033cf969c243" class="node"><title>ee5cf25c5&#45;d09d&#45;49ab&#45;9ac7&#45;033cf969c243</title>
<polygon fill="#eeeeee" stroke="black" points="1189.9,-215 1178.9,-215 1178.9,-179 1189.9,-179 1189.9,-215"/>
</g>
<!-- e631f413d&#45;9f34&#45;4a42&#45;93e0&#45;52272432b38d&#45;&gt;ee5cf25c5&#45;d09d&#45;49ab&#45;9ac7&#45;033cf969c243 -->
<g id="e303c8d38&#45;de77&#45;4421&#45;ac6b&#45;7319242e6262" class="edge"><title>e631f413d&#45;9f34&#45;4a42&#45;93e0&#45;52272432b38d&#45;&gt;ee5cf25c5&#45;d09d&#45;49ab&#45;9ac7&#45;033cf969c243</title>
<path fill="none" stroke="black" d="M1090.96,-174.101C1112.27,-179.379 1148.93,-188.462 1169.09,-193.455"/>
<polygon fill="black" stroke="black" points="1168.26,-196.856 1178.81,-195.863 1169.94,-190.061 1168.26,-196.856"/>
</g>
<!-- edee460f4&#45;890a&#45;4f05&#45;a9ac&#45;84fbf33b0aec -->
<g id="edee460f4&#45;890a&#45;4f05&#45;a9ac&#45;84fbf33b0aec" class="node"><title>edee460f4&#45;890a&#45;4f05&#45;a9ac&#45;84fbf33b0aec</title>
<polygon fill="none" stroke="black" points="1241.39,-161 1127.41,-161 1127.41,-125 1241.39,-125 1241.39,-161"/>
<text text-anchor="middle" x="1184.4" y="-138.8" font-family="Times,serif" font-size="14.00">O_SENT_BACK</text>
</g>
<!-- e631f413d&#45;9f34&#45;4a42&#45;93e0&#45;52272432b38d&#45;&gt;edee460f4&#45;890a&#45;4f05&#45;a9ac&#45;84fbf33b0aec -->
<g id="e22b6486e&#45;5cea&#45;496b&#45;a42b&#45;cf6c244781fb" class="edge"><title>e631f413d&#45;9f34&#45;4a42&#45;93e0&#45;52272432b38d&#45;&gt;edee460f4&#45;890a&#45;4f05&#45;a9ac&#45;84fbf33b0aec</title>
<path fill="none" stroke="black" d="M1090.96,-165.899C1098.37,-164.063 1107.65,-161.765 1117.44,-159.34"/>
<polygon fill="black" stroke="black" points="1118.49,-162.686 1127.35,-156.884 1116.81,-155.891 1118.49,-162.686"/>
</g>
<!-- e2cadd4b5&#45;6112&#45;48ea&#45;a086&#45;20dcc76e62ee -->
<g id="e2cadd4b5&#45;6112&#45;48ea&#45;a086&#45;20dcc76e62ee" class="node"><title>e2cadd4b5&#45;6112&#45;48ea&#45;a086&#45;20dcc76e62ee</title>
<ellipse fill="none" stroke="black" cx="137" cy="-178" rx="18" ry="18"/>
</g>
<!-- e84526b8d&#45;dd3e&#45;4da7&#45;b378&#45;8c2d878770f0 -->
<g id="e84526b8d&#45;dd3e&#45;4da7&#45;b378&#45;8c2d878770f0" class="node"><title>e84526b8d&#45;dd3e&#45;4da7&#45;b378&#45;8c2d878770f0</title>
<polygon fill="none" stroke="black" points="276.649,-199 208.447,-199 208.447,-163 276.649,-163 276.649,-199"/>
<text text-anchor="middle" x="242.548" y="-176.8" font-family="Times,serif" font-size="14.00">O_SENT</text>
</g>
<!-- e2cadd4b5&#45;6112&#45;48ea&#45;a086&#45;20dcc76e62ee&#45;&gt;e84526b8d&#45;dd3e&#45;4da7&#45;b378&#45;8c2d878770f0 -->
<g id="e59d5bbc1&#45;71b4&#45;47d6&#45;8bc5&#45;1bf40ca6cb94" class="edge"><title>e2cadd4b5&#45;6112&#45;48ea&#45;a086&#45;20dcc76e62ee&#45;&gt;e84526b8d&#45;dd3e&#45;4da7&#45;b378&#45;8c2d878770f0</title>
<path fill="none" stroke="black" d="M155.099,-178.495C166.767,-178.833 182.783,-179.297 197.861,-179.734"/>
<polygon fill="black" stroke="black" points="197.988,-183.239 208.085,-180.031 198.191,-176.242 197.988,-183.239"/>
</g>
<!-- eec03f460&#45;da4b&#45;425a&#45;856f&#45;7790669a6709 -->
<g id="eec03f460&#45;da4b&#45;425a&#45;856f&#45;7790669a6709" class="node"><title>eec03f460&#45;da4b&#45;425a&#45;856f&#45;7790669a6709</title>
<ellipse fill="none" stroke="black" cx="420.095" cy="-198" rx="18" ry="18"/>
</g>
<!-- ec0cbe78f&#45;ec72&#45;41d9&#45;b7e7&#45;379065add156 -->
<g id="ec0cbe78f&#45;ec72&#45;41d9&#45;b7e7&#45;379065add156" class="node"><title>ec0cbe78f&#45;ec72&#45;41d9&#45;b7e7&#45;379065add156</title>
<polygon fill="#eeeeee" stroke="black" points="1019.41,-188 1008.41,-188 1008.41,-152 1019.41,-152 1019.41,-188"/>
</g>
<!-- eec03f460&#45;da4b&#45;425a&#45;856f&#45;7790669a6709&#45;&gt;ec0cbe78f&#45;ec72&#45;41d9&#45;b7e7&#45;379065add156 -->
<g id="ec783527d&#45;8037&#45;4779&#45;9a0b&#45;2fef30504f83" class="edge"><title>eec03f460&#45;da4b&#45;425a&#45;856f&#45;7790669a6709&#45;&gt;ec0cbe78f&#45;ec72&#45;41d9&#45;b7e7&#45;379065add156</title>
<path fill="none" stroke="black" d="M438.172,-198.312C470.427,-198.875 542.528,-200 603.25,-200 603.25,-200 603.25,-200 895.905,-200 934.119,-200 977.216,-184.798 998.879,-176.037"/>
<polygon fill="black" stroke="black" points="1000.25,-179.257 1008.11,-172.158 997.54,-172.804 1000.25,-179.257"/>
</g>
<!-- e18aaba31&#45;df54&#45;47b9&#45;8097&#45;9f6917c66f16 -->
<g id="e18aaba31&#45;df54&#45;47b9&#45;8097&#45;9f6917c66f16" class="node"><title>e18aaba31&#45;df54&#45;47b9&#45;8097&#45;9f6917c66f16</title>
<ellipse fill="none" stroke="black" cx="137" cy="-123" rx="18" ry="18"/>
</g>
<!-- e290f2e83&#45;3f40&#45;4324&#45;ae7e&#45;df206304c814 -->
<g id="e290f2e83&#45;3f40&#45;4324&#45;ae7e&#45;df206304c814" class="node"><title>e290f2e83&#45;3f40&#45;4324&#45;ae7e&#45;df206304c814</title>
<polygon fill="none" stroke="black" points="294.143,-141 190.952,-141 190.952,-105 294.143,-105 294.143,-141"/>
<text text-anchor="middle" x="242.548" y="-118.8" font-family="Times,serif" font-size="14.00">O_SELECTED</text>
</g>
<!-- e18aaba31&#45;df54&#45;47b9&#45;8097&#45;9f6917c66f16&#45;&gt;e290f2e83&#45;3f40&#45;4324&#45;ae7e&#45;df206304c814 -->
<g id="eef40d8d1&#45;0a12&#45;415e&#45;85ed&#45;29b22beeae18" class="edge"><title>e18aaba31&#45;df54&#45;47b9&#45;8097&#45;9f6917c66f16&#45;&gt;e290f2e83&#45;3f40&#45;4324&#45;ae7e&#45;df206304c814</title>
<path fill="none" stroke="black" d="M155.099,-123C162.354,-123 171.292,-123 180.639,-123"/>
<polygon fill="black" stroke="black" points="180.883,-126.5 190.883,-123 180.883,-119.5 180.883,-126.5"/>
</g>
<!-- e95fda380&#45;8cf1&#45;42fa&#45;9564&#45;e403b7f0098f -->
<g id="e95fda380&#45;8cf1&#45;42fa&#45;9564&#45;e403b7f0098f" class="node"><title>e95fda380&#45;8cf1&#45;42fa&#45;9564&#45;e403b7f0098f</title>
<ellipse fill="none" stroke="black" cx="954.405" cy="-141" rx="18" ry="18"/>
</g>
<!-- e95fda380&#45;8cf1&#45;42fa&#45;9564&#45;e403b7f0098f&#45;&gt;ec0cbe78f&#45;ec72&#45;41d9&#45;b7e7&#45;379065add156 -->
<g id="eb177b2b1&#45;853b&#45;4f62&#45;8ad6&#45;a2915590f453" class="edge"><title>e95fda380&#45;8cf1&#45;42fa&#45;9564&#45;e403b7f0098f&#45;&gt;ec0cbe78f&#45;ec72&#45;41d9&#45;b7e7&#45;379065add156</title>
<path fill="none" stroke="black" d="M970.814,-148.771C979.609,-153.207 990.544,-158.722 999.064,-163.019"/>
<polygon fill="black" stroke="black" points="997.716,-166.259 1008.22,-167.638 1000.87,-160.009 997.716,-166.259"/>
</g>
<!-- eb8c3aa64&#45;4eb5&#45;4f3a&#45;8e05&#45;79fdd6b414ae -->
<g id="eb8c3aa64&#45;4eb5&#45;4f3a&#45;8e05&#45;79fdd6b414ae" class="node"><title>eb8c3aa64&#45;4eb5&#45;4f3a&#45;8e05&#45;79fdd6b414ae</title>
<ellipse fill="none" stroke="black" cx="835.405" cy="-127" rx="18" ry="18"/>
</g>
<!-- e7f4d3bf4&#45;dcf7&#45;42ed&#45;8d63&#45;ac53626feab2 -->
<g id="e7f4d3bf4&#45;dcf7&#45;42ed&#45;8d63&#45;ac53626feab2" class="node"><title>e7f4d3bf4&#45;dcf7&#45;42ed&#45;8d63&#45;ac53626feab2</title>
<polygon fill="#eeeeee" stroke="black" points="900.405,-48 889.405,-48 889.405,-12 900.405,-12 900.405,-48"/>
</g>
<!-- eb8c3aa64&#45;4eb5&#45;4f3a&#45;8e05&#45;79fdd6b414ae&#45;&gt;e7f4d3bf4&#45;dcf7&#45;42ed&#45;8d63&#45;ac53626feab2 -->
<g id="efe74dc94&#45;1d92&#45;4c9c&#45;a2fb&#45;a398ca7c58ca" class="edge"><title>eb8c3aa64&#45;4eb5&#45;4f3a&#45;8e05&#45;79fdd6b414ae&#45;&gt;e7f4d3bf4&#45;dcf7&#45;42ed&#45;8d63&#45;ac53626feab2</title>
<path fill="none" stroke="black" d="M845.39,-111.844C855.885,-94.1386 873.192,-64.943 884.048,-46.6284"/>
<polygon fill="black" stroke="black" points="887.111,-48.3249 889.2,-37.9379 881.09,-44.7554 887.111,-48.3249"/>
</g>
<!-- e0d7959e2&#45;e3e6&#45;42f9&#45;85e8&#45;5aa50cce54cf -->
<g id="e0d7959e2&#45;e3e6&#45;42f9&#45;85e8&#45;5aa50cce54cf" class="node"><title>e0d7959e2&#45;e3e6&#45;42f9&#45;85e8&#45;5aa50cce54cf</title>
<polygon fill="#eeeeee" stroke="black" points="900.405,-152 889.405,-152 889.405,-116 900.405,-116 900.405,-152"/>
</g>
<!-- eb8c3aa64&#45;4eb5&#45;4f3a&#45;8e05&#45;79fdd6b414ae&#45;&gt;e0d7959e2&#45;e3e6&#45;42f9&#45;85e8&#45;5aa50cce54cf -->
<g id="ea7f42523&#45;78c4&#45;42df&#45;97f1&#45;16911805e2f3" class="edge"><title>eb8c3aa64&#45;4eb5&#45;4f3a&#45;8e05&#45;79fdd6b414ae&#45;&gt;e0d7959e2&#45;e3e6&#45;42f9&#45;85e8&#45;5aa50cce54cf</title>
<path fill="none" stroke="black" d="M853.346,-129.062C861.442,-130.048 871.049,-131.217 878.881,-132.171"/>
<polygon fill="black" stroke="black" points="878.628,-135.666 888.978,-133.4 879.474,-128.717 878.628,-135.666"/>
</g>
<!-- e8b5b1350&#45;aeb7&#45;48cb&#45;a2c1&#45;60f196ae9c4b -->
<g id="e8b5b1350&#45;aeb7&#45;48cb&#45;a2c1&#45;60f196ae9c4b" class="node"><title>e8b5b1350&#45;aeb7&#45;48cb&#45;a2c1&#45;60f196ae9c4b</title>
<ellipse fill="none" stroke="black" cx="348.095" cy="-123" rx="18" ry="18"/>
</g>
<!-- e5a8cfb8c&#45;0166&#45;481b&#45;9e70&#45;927c8315299f -->
<g id="e5a8cfb8c&#45;0166&#45;481b&#45;9e70&#45;927c8315299f" class="node"><title>e5a8cfb8c&#45;0166&#45;481b&#45;9e70&#45;927c8315299f</title>
<polygon fill="#eeeeee" stroke="black" points="425.595,-141 414.595,-141 414.595,-105 425.595,-105 425.595,-141"/>
</g>
<!-- e8b5b1350&#45;aeb7&#45;48cb&#45;a2c1&#45;60f196ae9c4b&#45;&gt;e5a8cfb8c&#45;0166&#45;481b&#45;9e70&#45;927c8315299f -->
<g id="e2c7f6b18&#45;4780&#45;47b4&#45;a8d3&#45;4b31c0fb0816" class="edge"><title>e8b5b1350&#45;aeb7&#45;48cb&#45;a2c1&#45;60f196ae9c4b&#45;&gt;e5a8cfb8c&#45;0166&#45;481b&#45;9e70&#45;927c8315299f</title>
<path fill="none" stroke="black" d="M366.399,-123C378.054,-123 393.262,-123 404.343,-123"/>
<polygon fill="black" stroke="black" points="404.384,-126.5 414.384,-123 404.384,-119.5 404.384,-126.5"/>
</g>
<!-- e58349530&#45;af69&#45;4421&#45;88d2&#45;90250298564b -->
<g id="e58349530&#45;af69&#45;4421&#45;88d2&#45;90250298564b" class="node"><title>e58349530&#45;af69&#45;4421&#45;88d2&#45;90250298564b</title>
<ellipse fill="none" stroke="black" cx="492.095" cy="-154" rx="18" ry="18"/>
</g>
<!-- e54dc6709&#45;6476&#45;4966&#45;97e0&#45;ad77a2dd7871 -->
<g id="e54dc6709&#45;6476&#45;4966&#45;97e0&#45;ad77a2dd7871" class="node"><title>e54dc6709&#45;6476&#45;4966&#45;97e0&#45;ad77a2dd7871</title>
<polygon fill="none" stroke="black" points="652.902,-172 555.599,-172 555.599,-136 652.902,-136 652.902,-172"/>
<text text-anchor="middle" x="604.25" y="-149.8" font-family="Times,serif" font-size="14.00">O_CREATED</text>
</g>
<!-- e58349530&#45;af69&#45;4421&#45;88d2&#45;90250298564b&#45;&gt;e54dc6709&#45;6476&#45;4966&#45;97e0&#45;ad77a2dd7871 -->
<g id="e193a1f80&#45;6cce&#45;4537&#45;a45c&#45;5b6826a64d2f" class="edge"><title>e58349530&#45;af69&#45;4421&#45;88d2&#45;90250298564b&#45;&gt;e54dc6709&#45;6476&#45;4966&#45;97e0&#45;ad77a2dd7871</title>
<path fill="none" stroke="black" d="M510.307,-154C519.856,-154 532.349,-154 545.063,-154"/>
<polygon fill="black" stroke="black" points="545.255,-157.5 555.255,-154 545.255,-150.5 545.255,-157.5"/>
</g>
<!-- e60d3bfac&#45;145f&#45;4ab2&#45;a651&#45;806f410a14a0 -->
<g id="e60d3bfac&#45;145f&#45;4ab2&#45;a651&#45;806f410a14a0" class="node"><title>e60d3bfac&#45;145f&#45;4ab2&#45;a651&#45;806f410a14a0</title>
<ellipse fill="none" stroke="black" cx="716.405" cy="-154" rx="18" ry="18"/>
</g>
<!-- e22641bb3&#45;1bba&#45;4c70&#45;b0ec&#45;18ae9b22a5f7 -->
<g id="e22641bb3&#45;1bba&#45;4c70&#45;b0ec&#45;18ae9b22a5f7" class="node"><title>e22641bb3&#45;1bba&#45;4c70&#45;b0ec&#45;18ae9b22a5f7</title>
<polygon fill="#eeeeee" stroke="black" points="781.405,-145 770.405,-145 770.405,-109 781.405,-109 781.405,-145"/>
</g>
<!-- e60d3bfac&#45;145f&#45;4ab2&#45;a651&#45;806f410a14a0&#45;&gt;e22641bb3&#45;1bba&#45;4c70&#45;b0ec&#45;18ae9b22a5f7 -->
<g id="e1fc45c6f&#45;f9c1&#45;4143&#45;98cb&#45;7f11ddbd2ddd" class="edge"><title>e60d3bfac&#45;145f&#45;4ab2&#45;a651&#45;806f410a14a0&#45;&gt;e22641bb3&#45;1bba&#45;4c70&#45;b0ec&#45;18ae9b22a5f7</title>
<path fill="none" stroke="black" d="M733.118,-146.622C741.908,-142.494 752.762,-137.398 761.205,-133.433"/>
<polygon fill="black" stroke="black" points="762.709,-136.594 770.273,-129.175 759.733,-130.258 762.709,-136.594"/>
</g>
<!-- ed6d0d2e4&#45;5418&#45;40f9&#45;a027&#45;6fdb0b3135dd -->
<g id="ed6d0d2e4&#45;5418&#45;40f9&#45;a027&#45;6fdb0b3135dd" class="node"><title>ed6d0d2e4&#45;5418&#45;40f9&#45;a027&#45;6fdb0b3135dd</title>
<ellipse fill="none" stroke="black" cx="492.095" cy="-100" rx="18" ry="18"/>
</g>
<!-- e5025e9f6&#45;0eca&#45;473e&#45;8d58&#45;c01b9e7fe873 -->
<g id="e5025e9f6&#45;0eca&#45;473e&#45;8d58&#45;c01b9e7fe873" class="node"><title>e5025e9f6&#45;0eca&#45;473e&#45;8d58&#45;c01b9e7fe873</title>
<polygon fill="#eeeeee" stroke="black" points="609.75,-118 598.75,-118 598.75,-82 609.75,-82 609.75,-118"/>
</g>
<!-- ed6d0d2e4&#45;5418&#45;40f9&#45;a027&#45;6fdb0b3135dd&#45;&gt;e5025e9f6&#45;0eca&#45;473e&#45;8d58&#45;c01b9e7fe873 -->
<g id="e57ce7f4b&#45;fa0f&#45;404b&#45;a01e&#45;4d16e0f20348" class="edge"><title>ed6d0d2e4&#45;5418&#45;40f9&#45;a027&#45;6fdb0b3135dd&#45;&gt;e5025e9f6&#45;0eca&#45;473e&#45;8d58&#45;c01b9e7fe873</title>
<path fill="none" stroke="black" d="M510.307,-100C531.855,-100 568.391,-100 588.641,-100"/>
<polygon fill="black" stroke="black" points="588.657,-103.5 598.657,-100 588.657,-96.5001 588.657,-103.5"/>
</g>
<!-- e42ace67c&#45;2e82&#45;4dfc&#45;b1f8&#45;5b171c6703ef -->
<g id="e42ace67c&#45;2e82&#45;4dfc&#45;b1f8&#45;5b171c6703ef" class="node"><title>e42ace67c&#45;2e82&#45;4dfc&#45;b1f8&#45;5b171c6703ef</title>
<polygon fill="none" stroke="black" points="662.561,-64 545.94,-64 545.94,-28 662.561,-28 662.561,-64"/>
<text text-anchor="middle" x="604.25" y="-41.8" font-family="Times,serif" font-size="14.00">O_CANCELLED</text>
</g>
<!-- ed6d0d2e4&#45;5418&#45;40f9&#45;a027&#45;6fdb0b3135dd&#45;&gt;e42ace67c&#45;2e82&#45;4dfc&#45;b1f8&#45;5b171c6703ef -->
<g id="e7f84d9c1&#45;a6b0&#45;4319&#45;ac6b&#45;7d5d23c56363" class="edge"><title>ed6d0d2e4&#45;5418&#45;40f9&#45;a027&#45;6fdb0b3135dd&#45;&gt;e42ace67c&#45;2e82&#45;4dfc&#45;b1f8&#45;5b171c6703ef</title>
<path fill="none" stroke="black" d="M508.342,-92.0807C518.901,-86.6339 533.302,-79.2786 546.095,-73 549.051,-71.5495 552.099,-70.0682 555.176,-68.5831"/>
<polygon fill="black" stroke="black" points="556.933,-71.6227 564.437,-64.1442 553.907,-65.3104 556.933,-71.6227"/>
</g>
<!-- ee34a0cac&#45;701c&#45;4098&#45;af16&#45;e44cbccdc9a8 -->
<g id="ee34a0cac&#45;701c&#45;4098&#45;af16&#45;e44cbccdc9a8" class="node"><title>ee34a0cac&#45;701c&#45;4098&#45;af16&#45;e44cbccdc9a8</title>
<ellipse fill="none" stroke="black" cx="716.405" cy="-100" rx="18" ry="18"/>
</g>
<!-- ee34a0cac&#45;701c&#45;4098&#45;af16&#45;e44cbccdc9a8&#45;&gt;e22641bb3&#45;1bba&#45;4c70&#45;b0ec&#45;18ae9b22a5f7 -->
<g id="e91a3263e&#45;7a94&#45;4d79&#45;80e9&#45;ccb9248d3b26" class="edge"><title>ee34a0cac&#45;701c&#45;4098&#45;af16&#45;e44cbccdc9a8&#45;&gt;e22641bb3&#45;1bba&#45;4c70&#45;b0ec&#45;18ae9b22a5f7</title>
<path fill="none" stroke="black" d="M733.118,-107.378C741.908,-111.506 752.762,-116.602 761.205,-120.567"/>
<polygon fill="black" stroke="black" points="759.733,-123.742 770.273,-124.825 762.709,-117.406 759.733,-123.742"/>
</g>
<!-- e75a591f4&#45;cc45&#45;4bf6&#45;95e8&#45;4e94da45beaf -->
<g id="e75a591f4&#45;cc45&#45;4bf6&#45;95e8&#45;4e94da45beaf" class="node"><title>e75a591f4&#45;cc45&#45;4bf6&#45;95e8&#45;4e94da45beaf</title>
<ellipse fill="none" stroke="black" cx="1295.39" cy="-170" rx="18" ry="18"/>
</g>
<!-- eff006568&#45;4bd6&#45;4082&#45;b237&#45;585adc999f10 -->
<g id="eff006568&#45;4bd6&#45;4082&#45;b237&#45;585adc999f10" class="node"><title>eff006568&#45;4bd6&#45;4082&#45;b237&#45;585adc999f10</title>
<polygon fill="#eeeeee" stroke="black" points="1407.61,-242 1396.61,-242 1396.61,-206 1407.61,-206 1407.61,-242"/>
</g>
<!-- e75a591f4&#45;cc45&#45;4bf6&#45;95e8&#45;4e94da45beaf&#45;&gt;eff006568&#45;4bd6&#45;4082&#45;b237&#45;585adc999f10 -->
<g id="e89e03d6b&#45;1c34&#45;4986&#45;bb74&#45;e842320e75a8" class="edge"><title>e75a591f4&#45;cc45&#45;4bf6&#45;95e8&#45;4e94da45beaf&#45;&gt;eff006568&#45;4bd6&#45;4082&#45;b237&#45;585adc999f10</title>
<path fill="none" stroke="black" d="M1311.84,-177.968C1332.2,-188.464 1367.69,-206.766 1387.23,-216.841"/>
<polygon fill="black" stroke="black" points="1385.75,-220.018 1396.24,-221.49 1388.96,-213.796 1385.75,-220.018"/>
</g>
<!-- edf7bf561&#45;53ca&#45;47ec&#45;adf5&#45;2cb4d1693c32 -->
<g id="edf7bf561&#45;53ca&#45;47ec&#45;adf5&#45;2cb4d1693c32" class="node"><title>edf7bf561&#45;53ca&#45;47ec&#45;adf5&#45;2cb4d1693c32</title>
<polygon fill="none" stroke="black" points="1455.04,-188 1349.18,-188 1349.18,-152 1455.04,-152 1455.04,-188"/>
<text text-anchor="middle" x="1402.11" y="-165.8" font-family="Times,serif" font-size="14.00">O_ACCEPTED</text>
</g>
<!-- e75a591f4&#45;cc45&#45;4bf6&#45;95e8&#45;4e94da45beaf&#45;&gt;edf7bf561&#45;53ca&#45;47ec&#45;adf5&#45;2cb4d1693c32 -->
<g id="e5ba16ed4&#45;1d36&#45;4766&#45;a0a5&#45;80a1d084a6dd" class="edge"><title>e75a591f4&#45;cc45&#45;4bf6&#45;95e8&#45;4e94da45beaf&#45;&gt;edf7bf561&#45;53ca&#45;47ec&#45;adf5&#45;2cb4d1693c32</title>
<path fill="none" stroke="black" d="M1313.68,-170C1320.85,-170 1329.64,-170 1338.85,-170"/>
<polygon fill="black" stroke="black" points="1338.96,-173.5 1348.96,-170 1338.96,-166.5 1338.96,-173.5"/>
</g>
<!-- eb6d0a5ee&#45;0910&#45;4577&#45;b768&#45;e8a40c3fbc5a -->
<g id="eb6d0a5ee&#45;0910&#45;4577&#45;b768&#45;e8a40c3fbc5a" class="node"><title>eb6d0a5ee&#45;0910&#45;4577&#45;b768&#45;e8a40c3fbc5a</title>
<polygon fill="none" stroke="black" points="1453.69,-134 1350.53,-134 1350.53,-98 1453.69,-98 1453.69,-134"/>
<text text-anchor="middle" x="1402.11" y="-111.8" font-family="Times,serif" font-size="14.00">O_DECLINED</text>
</g>
<!-- e75a591f4&#45;cc45&#45;4bf6&#45;95e8&#45;4e94da45beaf&#45;&gt;eb6d0a5ee&#45;0910&#45;4577&#45;b768&#45;e8a40c3fbc5a -->
<g id="e86eb953e&#45;04dd&#45;41c4&#45;963b&#45;d413890d93dd" class="edge"><title>e75a591f4&#45;cc45&#45;4bf6&#45;95e8&#45;4e94da45beaf&#45;&gt;eb6d0a5ee&#45;0910&#45;4577&#45;b768&#45;e8a40c3fbc5a</title>
<path fill="none" stroke="black" d="M1311.84,-162.032C1323.73,-155.901 1340.79,-147.106 1356.81,-138.843"/>
<polygon fill="black" stroke="black" points="1358.8,-141.757 1366.08,-134.063 1355.59,-135.536 1358.8,-141.757"/>
</g>
<!-- efe76f37a&#45;c821&#45;4cfe&#45;8dc8&#45;45f4afa741c0&#45;&gt;e2cadd4b5&#45;6112&#45;48ea&#45;a086&#45;20dcc76e62ee -->
<g id="ef18ea047&#45;bfd2&#45;4bb1&#45;8934&#45;d1e7ed4ccd94" class="edge"><title>efe76f37a&#45;c821&#45;4cfe&#45;8dc8&#45;45f4afa741c0&#45;&gt;e2cadd4b5&#45;6112&#45;48ea&#45;a086&#45;20dcc76e62ee</title>
<path fill="none" stroke="black" d="M83.0119,-152.197C89.1959,-155.208 100.766,-160.842 111.52,-166.079"/>
<polygon fill="black" stroke="black" points="110.082,-169.272 120.605,-170.503 113.147,-162.979 110.082,-169.272"/>
</g>
<!-- efe76f37a&#45;c821&#45;4cfe&#45;8dc8&#45;45f4afa741c0&#45;&gt;e18aaba31&#45;df54&#45;47b9&#45;8097&#45;9f6917c66f16 -->
<g id="e38c514af&#45;2477&#45;4d88&#45;b364&#45;54bdef824375" class="edge"><title>efe76f37a&#45;c821&#45;4cfe&#45;8dc8&#45;45f4afa741c0&#45;&gt;e18aaba31&#45;df54&#45;47b9&#45;8097&#45;9f6917c66f16</title>
<path fill="none" stroke="black" d="M83.0119,-147.881C89.0929,-145.026 100.382,-139.725 110.982,-134.748"/>
<polygon fill="black" stroke="black" points="112.79,-137.765 120.354,-130.347 109.815,-131.429 112.79,-137.765"/>
</g>
<!-- ec0cbe78f&#45;ec72&#45;41d9&#45;b7e7&#45;379065add156&#45;&gt;e631f413d&#45;9f34&#45;4a42&#45;93e0&#45;52272432b38d -->
<g id="e0a670376&#45;c9be&#45;4df6&#45;9615&#45;fcc2edd57b99" class="edge"><title>ec0cbe78f&#45;ec72&#45;41d9&#45;b7e7&#45;379065add156&#45;&gt;e631f413d&#45;9f34&#45;4a42&#45;93e0&#45;52272432b38d</title>
<path fill="none" stroke="black" d="M1019.42,-170C1025.08,-170 1035.25,-170 1045.17,-170"/>
<polygon fill="black" stroke="black" points="1045.23,-173.5 1055.23,-170 1045.23,-166.5 1045.23,-173.5"/>
</g>
<!-- e84526b8d&#45;dd3e&#45;4da7&#45;b378&#45;8c2d878770f0&#45;&gt;eec03f460&#45;da4b&#45;425a&#45;856f&#45;7790669a6709 -->
<g id="e6c939391&#45;2f22&#45;4b3a&#45;abcd&#45;68b002c4c9b1" class="edge"><title>e84526b8d&#45;dd3e&#45;4da7&#45;b378&#45;8c2d878770f0&#45;&gt;eec03f460&#45;da4b&#45;425a&#45;856f&#45;7790669a6709</title>
<path fill="none" stroke="black" d="M276.98,-184.238C310.261,-187.461 360.727,-192.348 391.71,-195.348"/>
<polygon fill="black" stroke="black" points="391.506,-198.845 401.797,-196.325 392.181,-191.877 391.506,-198.845"/>
</g>
<!-- e290f2e83&#45;3f40&#45;4324&#45;ae7e&#45;df206304c814&#45;&gt;e8b5b1350&#45;aeb7&#45;48cb&#45;a2c1&#45;60f196ae9c4b -->
<g id="e04fb22ba&#45;7dca&#45;4dd2&#45;b911&#45;0f2ed4c35297" class="edge"><title>e290f2e83&#45;3f40&#45;4324&#45;ae7e&#45;df206304c814&#45;&gt;e8b5b1350&#45;aeb7&#45;48cb&#45;a2c1&#45;60f196ae9c4b</title>
<path fill="none" stroke="black" d="M294.108,-123C303.002,-123 311.945,-123 319.884,-123"/>
<polygon fill="black" stroke="black" points="319.989,-126.5 329.989,-123 319.989,-119.5 319.989,-126.5"/>
</g>
<!-- e5a8cfb8c&#45;0166&#45;481b&#45;9e70&#45;927c8315299f&#45;&gt;e58349530&#45;af69&#45;4421&#45;88d2&#45;90250298564b -->
<g id="eb8b6c389&#45;c2ff&#45;42de&#45;ae23&#45;1eb3624abe1d" class="edge"><title>e5a8cfb8c&#45;0166&#45;481b&#45;9e70&#45;927c8315299f&#45;&gt;e58349530&#45;af69&#45;4421&#45;88d2&#45;90250298564b</title>
<path fill="none" stroke="black" d="M425.688,-125.034C433.822,-128.636 451.303,-136.378 466.147,-142.952"/>
<polygon fill="black" stroke="black" points="464.836,-146.199 475.397,-147.048 467.671,-139.798 464.836,-146.199"/>
</g>
<!-- e5a8cfb8c&#45;0166&#45;481b&#45;9e70&#45;927c8315299f&#45;&gt;ed6d0d2e4&#45;5418&#45;40f9&#45;a027&#45;6fdb0b3135dd -->
<g id="ec16d57a7&#45;cae1&#45;48f6&#45;a619&#45;f252431fb167" class="edge"><title>e5a8cfb8c&#45;0166&#45;481b&#45;9e70&#45;927c8315299f&#45;&gt;ed6d0d2e4&#45;5418&#45;40f9&#45;a027&#45;6fdb0b3135dd</title>
<path fill="none" stroke="black" d="M425.688,-121.491C433.646,-118.876 450.549,-113.322 465.178,-108.516"/>
<polygon fill="black" stroke="black" points="466.397,-111.799 474.805,-105.353 464.212,-105.149 466.397,-111.799"/>
</g>
<!-- e22641bb3&#45;1bba&#45;4c70&#45;b0ec&#45;18ae9b22a5f7&#45;&gt;eb8c3aa64&#45;4eb5&#45;4f3a&#45;8e05&#45;79fdd6b414ae -->
<g id="ecd40ffe9&#45;8769&#45;49bb&#45;ac0d&#45;7c952c5889f3" class="edge"><title>e22641bb3&#45;1bba&#45;4c70&#45;b0ec&#45;18ae9b22a5f7&#45;&gt;eb8c3aa64&#45;4eb5&#45;4f3a&#45;8e05&#45;79fdd6b414ae</title>
<path fill="none" stroke="black" d="M781.417,-127C787.076,-127 797.246,-127 807.173,-127"/>
<polygon fill="black" stroke="black" points="807.231,-130.5 817.231,-127 807.231,-123.5 807.231,-130.5"/>
</g>
<!-- e54dc6709&#45;6476&#45;4966&#45;97e0&#45;ad77a2dd7871&#45;&gt;e60d3bfac&#45;145f&#45;4ab2&#45;a651&#45;806f410a14a0 -->
<g id="edcfecde7&#45;7562&#45;481f&#45;95ba&#45;fd3a1d0560bc" class="edge"><title>e54dc6709&#45;6476&#45;4966&#45;97e0&#45;ad77a2dd7871&#45;&gt;e60d3bfac&#45;145f&#45;4ab2&#45;a651&#45;806f410a14a0</title>
<path fill="none" stroke="black" d="M652.925,-154C664.922,-154 677.397,-154 688.015,-154"/>
<polygon fill="black" stroke="black" points="688.312,-157.5 698.312,-154 688.312,-150.5 688.312,-157.5"/>
</g>
<!-- e5025e9f6&#45;0eca&#45;473e&#45;8d58&#45;c01b9e7fe873&#45;&gt;ee34a0cac&#45;701c&#45;4098&#45;af16&#45;e44cbccdc9a8 -->
<g id="e42a91e95&#45;51f3&#45;4d5b&#45;a465&#45;a527b2825729" class="edge"><title>e5025e9f6&#45;0eca&#45;473e&#45;8d58&#45;c01b9e7fe873&#45;&gt;ee34a0cac&#45;701c&#45;4098&#45;af16&#45;e44cbccdc9a8</title>
<path fill="none" stroke="black" d="M609.984,-100C623.231,-100 661.446,-100 688.026,-100"/>
<polygon fill="black" stroke="black" points="688.254,-103.5 698.254,-100 688.254,-96.5001 688.254,-103.5"/>
</g>
<!-- e42ace67c&#45;2e82&#45;4dfc&#45;b1f8&#45;5b171c6703ef&#45;&gt;ee34a0cac&#45;701c&#45;4098&#45;af16&#45;e44cbccdc9a8 -->
<g id="e409419a8&#45;417c&#45;425d&#45;97f6&#45;4f3bfb994a3e" class="edge"><title>e42ace67c&#45;2e82&#45;4dfc&#45;b1f8&#45;5b171c6703ef&#45;&gt;ee34a0cac&#45;701c&#45;4098&#45;af16&#45;e44cbccdc9a8</title>
<path fill="none" stroke="black" d="M644.063,-64.1442C650.215,-67.0747 656.494,-70.099 662.405,-73 671.8,-77.6108 682.063,-82.8024 691.034,-87.3923"/>
<polygon fill="black" stroke="black" points="689.665,-90.6238 700.159,-92.0807 692.864,-84.3975 689.665,-90.6238"/>
</g>
<!-- e7f4d3bf4&#45;dcf7&#45;42ed&#45;8d63&#45;ac53626feab2&#45;&gt;e18aaba31&#45;df54&#45;47b9&#45;8097&#45;9f6917c66f16 -->
<g id="ea902f46c&#45;3157&#45;4845&#45;940e&#45;cbe5a2368a0e" class="edge"><title>e7f4d3bf4&#45;dcf7&#45;42ed&#45;8d63&#45;ac53626feab2&#45;&gt;e18aaba31&#45;df54&#45;47b9&#45;8097&#45;9f6917c66f16</title>
<path fill="none" stroke="black" d="M889.115,-27.8425C873.389,-20.9637 821.78,-0 776.905,-0 347.095,-0 347.095,-0 347.095,-0 267.219,-0 190.933,-67.5087 156.757,-102.499"/>
<polygon fill="black" stroke="black" points="154.122,-100.19 149.742,-109.837 159.182,-105.027 154.122,-100.19"/>
</g>
<!-- e0d7959e2&#45;e3e6&#45;42f9&#45;85e8&#45;5aa50cce54cf&#45;&gt;e95fda380&#45;8cf1&#45;42fa&#45;9564&#45;e403b7f0098f -->
<g id="eb106535e&#45;3f6c&#45;4989&#45;9167&#45;4f36a400b985" class="edge"><title>e0d7959e2&#45;e3e6&#45;42f9&#45;85e8&#45;5aa50cce54cf&#45;&gt;e95fda380&#45;8cf1&#45;42fa&#45;9564&#45;e403b7f0098f</title>
<path fill="none" stroke="black" d="M900.417,-134.549C906.116,-135.243 916.387,-136.493 926.38,-137.71"/>
<polygon fill="black" stroke="black" points="926.139,-141.206 936.489,-138.941 926.985,-134.258 926.139,-141.206"/>
</g>
<!-- ee5cf25c5&#45;d09d&#45;49ab&#45;9ac7&#45;033cf969c243&#45;&gt;e75a591f4&#45;cc45&#45;4bf6&#45;95e8&#45;4e94da45beaf -->
<g id="e55458819&#45;a7ca&#45;4350&#45;a670&#45;516b654a5255" class="edge"><title>ee5cf25c5&#45;d09d&#45;49ab&#45;9ac7&#45;033cf969c243&#45;&gt;e75a591f4&#45;cc45&#45;4bf6&#45;95e8&#45;4e94da45beaf</title>
<path fill="none" stroke="black" d="M1190.08,-195.84C1203.32,-192.561 1241.76,-183.039 1268.08,-176.518"/>
<polygon fill="black" stroke="black" points="1268.97,-179.903 1277.84,-174.101 1267.29,-173.108 1268.97,-179.903"/>
</g>
<!-- edee460f4&#45;890a&#45;4f05&#45;a9ac&#45;84fbf33b0aec&#45;&gt;e75a591f4&#45;cc45&#45;4bf6&#45;95e8&#45;4e94da45beaf -->
<g id="e4061acf5&#45;a7a6&#45;484d&#45;ac99&#45;072d5b7e3bb5" class="edge"><title>edee460f4&#45;890a&#45;4f05&#45;a9ac&#45;84fbf33b0aec&#45;&gt;e75a591f4&#45;cc45&#45;4bf6&#45;95e8&#45;4e94da45beaf</title>
<path fill="none" stroke="black" d="M1241.49,-156.895C1250.63,-159.159 1259.71,-161.409 1267.7,-163.388"/>
<polygon fill="black" stroke="black" points="1266.94,-166.806 1277.49,-165.813 1268.63,-160.011 1266.94,-166.806"/>
</g>
<!-- eff006568&#45;4bd6&#45;4082&#45;b237&#45;585adc999f10&#45;&gt;eb94db35b&#45;b56c&#45;4f27&#45;8957&#45;e3b1887c31b8 -->
<g id="ea23d4137&#45;429c&#45;4edd&#45;a7e5&#45;447259761f3d" class="edge"><title>eff006568&#45;4bd6&#45;4082&#45;b237&#45;585adc999f10&#45;&gt;eb94db35b&#45;b56c&#45;4f27&#45;8957&#45;e3b1887c31b8</title>
<path fill="none" stroke="black" d="M1407.88,-221.539C1421.01,-214.77 1458.35,-195.513 1483.48,-182.552"/>
<polygon fill="black" stroke="black" points="1485.16,-185.627 1492.44,-177.933 1481.95,-179.405 1485.16,-185.627"/>
</g>
<!-- edf7bf561&#45;53ca&#45;47ec&#45;adf5&#45;2cb4d1693c32&#45;&gt;eb94db35b&#45;b56c&#45;4f27&#45;8957&#45;e3b1887c31b8 -->
<g id="e60d7c745&#45;e8fc&#45;4b49&#45;a9aa&#45;807bb268a3ec" class="edge"><title>edf7bf561&#45;53ca&#45;47ec&#45;adf5&#45;2cb4d1693c32&#45;&gt;eb94db35b&#45;b56c&#45;4f27&#45;8957&#45;e3b1887c31b8</title>
<path fill="none" stroke="black" d="M1454.85,-170C1463.78,-170 1472.73,-170 1480.67,-170"/>
<polygon fill="black" stroke="black" points="1480.76,-173.5 1490.76,-170 1480.76,-166.5 1480.76,-173.5"/>
</g>
<!-- eb6d0a5ee&#45;0910&#45;4577&#45;b768&#45;e8a40c3fbc5a&#45;&gt;eb94db35b&#45;b56c&#45;4f27&#45;8957&#45;e3b1887c31b8 -->
<g id="e4df3be84&#45;86dc&#45;4115&#45;a708&#45;93667f2dc0a1" class="edge"><title>eb6d0a5ee&#45;0910&#45;4577&#45;b768&#45;e8a40c3fbc5a&#45;&gt;eb94db35b&#45;b56c&#45;4f27&#45;8957&#45;e3b1887c31b8</title>
<path fill="none" stroke="black" d="M1438.27,-134.131C1453.09,-141.775 1469.98,-150.484 1483.41,-157.407"/>
<polygon fill="black" stroke="black" points="1482,-160.619 1492.49,-162.091 1485.21,-154.397 1482,-160.619"/>
</g>
</g>
</svg>
