<?xml version="1.0" encoding="UTF-8" standalone="no"?>
<!DOCTYPE svg PUBLIC "-//W3C//DTD SVG 1.1//EN"
 "http://www.w3.org/Graphics/SVG/1.1/DTD/svg11.dtd">
<!-- Generated by graphviz version 2.38.0 (20140413.2041)
 -->
<!-- Title: G Pages: 1 -->
<svg width="807pt" height="252pt"
 viewBox="0.00 0.00 806.63 252.00" xmlns="http://www.w3.org/2000/svg" xmlns:xlink="http://www.w3.org/1999/xlink">
<g id="graph0" class="graph" transform="scale(1 1) rotate(0) translate(4 248)">
<title>G</title>
<polygon fill="white" stroke="none" points="-4,4 -4,-248 802.631,-248 802.631,4 -4,4"/>
<!-- e8489b2ab&#45;fa9c&#45;4956&#45;a086&#45;9e1f551c9ea4 -->
<g id="e8489b2ab&#45;fa9c&#45;4956&#45;a086&#45;9e1f551c9ea4" class="node"><title>e8489b2ab&#45;fa9c&#45;4956&#45;a086&#45;9e1f551c9ea4</title>
<ellipse fill="green" stroke="black" cx="18" cy="-103" rx="18" ry="18"/>
</g>
<!-- e94376162&#45;c414&#45;46ed&#45;9b69&#45;61b11b689ec5 -->
<g id="e94376162&#45;c414&#45;46ed&#45;9b69&#45;61b11b689ec5" class="node"><title>e94376162&#45;c414&#45;46ed&#45;9b69&#45;61b11b689ec5</title>
<polygon fill="#eeeeee" stroke="black" points="108.051,-148 97.0505,-148 97.0505,-112 108.051,-112 108.051,-148"/>
</g>
<!-- e8489b2ab&#45;fa9c&#45;4956&#45;a086&#45;9e1f551c9ea4&#45;&gt;e94376162&#45;c414&#45;46ed&#45;9b69&#45;61b11b689ec5 -->
<g id="e11cdfede&#45;6756&#45;445d&#45;b261&#45;9dd83acaf39f" class="edge"><title>e8489b2ab&#45;fa9c&#45;4956&#45;a086&#45;9e1f551c9ea4&#45;&gt;e94376162&#45;c414&#45;46ed&#45;9b69&#45;61b11b689ec5</title>
<path fill="none" stroke="black" d="M35.3093,-108.334C50.4364,-113.282 72.7299,-120.574 87.1968,-125.305"/>
<polygon fill="black" stroke="black" points="86.2419,-128.675 96.8345,-128.458 88.418,-122.022 86.2419,-128.675"/>
</g>
<!-- e6f0f8ae1&#45;e563&#45;4b0e&#45;bbf6&#45;c5c107d97bce -->
<g id="e6f0f8ae1&#45;e563&#45;4b0e&#45;bbf6&#45;c5c107d97bce" class="node"><title>e6f0f8ae1&#45;e563&#45;4b0e&#45;bbf6&#45;c5c107d97bce</title>
<polygon fill="none" stroke="black" points="133.152,-94 71.9494,-94 71.9494,-58 133.152,-58 133.152,-94"/>
<text text-anchor="middle" x="102.551" y="-71.8" font-family="Times,serif" font-size="14.00">2__start</text>
</g>
<!-- e8489b2ab&#45;fa9c&#45;4956&#45;a086&#45;9e1f551c9ea4&#45;&gt;e6f0f8ae1&#45;e563&#45;4b0e&#45;bbf6&#45;c5c107d97bce -->
<g id="edb52d8a4&#45;cf31&#45;4dfb&#45;a01e&#45;e30e1c7b2f13" class="edge"><title>e8489b2ab&#45;fa9c&#45;4956&#45;a086&#45;9e1f551c9ea4&#45;&gt;e6f0f8ae1&#45;e563&#45;4b0e&#45;bbf6&#45;c5c107d97bce</title>
<path fill="none" stroke="black" d="M35.3093,-97.6657C43.0513,-95.1335 52.6704,-91.9873 62.1566,-88.8846"/>
<polygon fill="black" stroke="black" points="63.4936,-92.1299 71.91,-85.6946 61.3174,-85.4767 63.4936,-92.1299"/>
</g>
<!-- ea1c4c355&#45;8b4b&#45;4a85&#45;a17c&#45;5fa81af6c54b -->
<g id="ea1c4c355&#45;8b4b&#45;4a85&#45;a17c&#45;5fa81af6c54b" class="node"><title>ea1c4c355&#45;8b4b&#45;4a85&#45;a17c&#45;5fa81af6c54b</title>
<ellipse fill="red" stroke="black" cx="780.631" cy="-99" rx="18" ry="18"/>
</g>
<!-- e266d8228&#45;50d0&#45;4dd9&#45;ae93&#45;5be68dc66d88 -->
<g id="e266d8228&#45;50d0&#45;4dd9&#45;ae93&#45;5be68dc66d88" class="node"><title>e266d8228&#45;50d0&#45;4dd9&#45;ae93&#45;5be68dc66d88</title>
<ellipse fill="none" stroke="black" cx="187.101" cy="-103" rx="18" ry="18"/>
</g>
<!-- edf49ff75&#45;bbd7&#45;4d5c&#45;96e8&#45;f0e140babf0d -->
<g id="edf49ff75&#45;bbd7&#45;4d5c&#45;96e8&#45;f0e140babf0d" class="node"><title>edf49ff75&#45;bbd7&#45;4d5c&#45;96e8&#45;f0e140babf0d</title>
<polygon fill="#eeeeee" stroke="black" points="252.101,-121 241.101,-121 241.101,-85 252.101,-85 252.101,-121"/>
</g>
<!-- e266d8228&#45;50d0&#45;4dd9&#45;ae93&#45;5be68dc66d88&#45;&gt;edf49ff75&#45;bbd7&#45;4d5c&#45;96e8&#45;f0e140babf0d -->
<g id="e8d4a1448&#45;fa94&#45;4b0b&#45;a13a&#45;b49ab2082574" class="edge"><title>e266d8228&#45;50d0&#45;4dd9&#45;ae93&#45;5be68dc66d88&#45;&gt;edf49ff75&#45;bbd7&#45;4d5c&#45;96e8&#45;f0e140babf0d</title>
<path fill="none" stroke="black" d="M205.353,-103C213.342,-103 222.749,-103 230.459,-103"/>
<polygon fill="black" stroke="black" points="230.73,-106.5 240.73,-103 230.73,-99.5001 230.73,-106.5"/>
</g>
<!-- e2a26fdaa&#45;ab4f&#45;47e3&#45;8a55&#45;d2216a5d70f2 -->
<g id="e2a26fdaa&#45;ab4f&#45;47e3&#45;8a55&#45;d2216a5d70f2" class="node"><title>e2a26fdaa&#45;ab4f&#45;47e3&#45;8a55&#45;d2216a5d70f2</title>
<ellipse fill="none" stroke="black" cx="306.101" cy="-203" rx="18" ry="18"/>
</g>
<!-- e74781f8f&#45;92bf&#45;4639&#45;a383&#45;f23b40de9314 -->
<g id="e74781f8f&#45;92bf&#45;4639&#45;a383&#45;f23b40de9314" class="node"><title>e74781f8f&#45;92bf&#45;4639&#45;a383&#45;f23b40de9314</title>
<polygon fill="none" stroke="black" points="421.253,-238 360.05,-238 360.05,-202 421.253,-202 421.253,-238"/>
<text text-anchor="middle" x="390.651" y="-215.8" font-family="Times,serif" font-size="14.00">0__start</text>
</g>
<!-- e2a26fdaa&#45;ab4f&#45;47e3&#45;8a55&#45;d2216a5d70f2&#45;&gt;e74781f8f&#45;92bf&#45;4639&#45;a383&#45;f23b40de9314 -->
<g id="e18ae7dca&#45;c8d4&#45;4501&#45;883a&#45;11b4edcb3ce4" class="edge"><title>e2a26fdaa&#45;ab4f&#45;47e3&#45;8a55&#45;d2216a5d70f2&#45;&gt;e74781f8f&#45;92bf&#45;4639&#45;a383&#45;f23b40de9314</title>
<path fill="none" stroke="black" d="M323.806,-206.44C331.418,-208.008 340.782,-209.936 350.035,-211.842"/>
<polygon fill="black" stroke="black" points="349.443,-215.293 359.944,-213.882 350.855,-208.437 349.443,-215.293"/>
</g>
<!-- edf8d2a1c&#45;e9b5&#45;4ccf&#45;9303&#45;40dc14ab8567 -->
<g id="edf8d2a1c&#45;e9b5&#45;4ccf&#45;9303&#45;40dc14ab8567" class="node"><title>edf8d2a1c&#45;e9b5&#45;4ccf&#45;9303&#45;40dc14ab8567</title>
<ellipse fill="none" stroke="black" cx="579.024" cy="-226" rx="18" ry="18"/>
</g>
<!-- e10348c69&#45;0372&#45;4d4e&#45;8d07&#45;f6e9ef157844 -->
<g id="e10348c69&#45;0372&#45;4d4e&#45;8d07&#45;f6e9ef157844" class="node"><title>e10348c69&#45;0372&#45;4d4e&#45;8d07&#45;f6e9ef157844</title>
<polygon fill="#eeeeee" stroke="black" points="726.631,-117 715.631,-117 715.631,-81 726.631,-81 726.631,-117"/>
</g>
<!-- edf8d2a1c&#45;e9b5&#45;4ccf&#45;9303&#45;40dc14ab8567&#45;&gt;e10348c69&#45;0372&#45;4d4e&#45;8d07&#45;f6e9ef157844 -->
<g id="eb95a6450&#45;8330&#45;4350&#45;b686&#45;ddd9b6863a5e" class="edge"><title>edf8d2a1c&#45;e9b5&#45;4ccf&#45;9303&#45;40dc14ab8567&#45;&gt;e10348c69&#45;0372&#45;4d4e&#45;8d07&#45;f6e9ef157844</title>
<path fill="none" stroke="black" d="M594.918,-217.059C615.362,-204.367 652.65,-179.685 679.631,-153 691.348,-141.412 702.413,-126.26 710.007,-114.957"/>
<polygon fill="black" stroke="black" points="712.973,-116.817 715.508,-106.53 707.111,-112.991 712.973,-116.817"/>
</g>
<!-- ec5ba6041&#45;436d&#45;4cab&#45;9761&#45;d62da5759dde -->
<g id="ec5ba6041&#45;436d&#45;4cab&#45;9761&#45;d62da5759dde" class="node"><title>ec5ba6041&#45;436d&#45;4cab&#45;9761&#45;d62da5759dde</title>
<ellipse fill="none" stroke="black" cx="306.101" cy="-126" rx="18" ry="18"/>
</g>
<!-- e25d54d0c&#45;6d9a&#45;4acf&#45;af48&#45;a27d942d408f -->
<g id="e25d54d0c&#45;6d9a&#45;4acf&#45;af48&#45;a27d942d408f" class="node"><title>e25d54d0c&#45;6d9a&#45;4acf&#45;af48&#45;a27d942d408f</title>
<polygon fill="#eeeeee" stroke="black" points="584.524,-190 573.524,-190 573.524,-154 584.524,-154 584.524,-190"/>
</g>
<!-- ec5ba6041&#45;436d&#45;4cab&#45;9761&#45;d62da5759dde&#45;&gt;e25d54d0c&#45;6d9a&#45;4acf&#45;af48&#45;a27d942d408f -->
<g id="ec56c2af4&#45;1e0a&#45;4b01&#45;a7e7&#45;4b2fd5c86a3a" class="edge"><title>ec5ba6041&#45;436d&#45;4cab&#45;9761&#45;d62da5759dde&#45;&gt;e25d54d0c&#45;6d9a&#45;4acf&#45;af48&#45;a27d942d408f</title>
<path fill="none" stroke="black" d="M321.77,-135.419C332.071,-141.535 346.402,-149.075 360.101,-153 434.234,-174.242 527.872,-173.74 563.43,-172.624"/>
<polygon fill="black" stroke="black" points="563.6,-176.12 573.458,-172.238 563.331,-169.125 563.6,-176.12"/>
</g>
<!-- e604e9a25&#45;ec5f&#45;43f6&#45;83a0&#45;9bf4924226ad -->
<g id="e604e9a25&#45;ec5f&#45;43f6&#45;83a0&#45;9bf4924226ad" class="node"><title>e604e9a25&#45;ec5f&#45;43f6&#45;83a0&#45;9bf4924226ad</title>
<polygon fill="none" stroke="black" points="421.253,-144 360.05,-144 360.05,-108 421.253,-108 421.253,-144"/>
<text text-anchor="middle" x="390.651" y="-121.8" font-family="Times,serif" font-size="14.00">1__start</text>
</g>
<!-- ec5ba6041&#45;436d&#45;4cab&#45;9761&#45;d62da5759dde&#45;&gt;e604e9a25&#45;ec5f&#45;43f6&#45;83a0&#45;9bf4924226ad -->
<g id="e7bf44e4f&#45;d3c7&#45;4fdf&#45;93ca&#45;465e734315d8" class="edge"><title>ec5ba6041&#45;436d&#45;4cab&#45;9761&#45;d62da5759dde&#45;&gt;e604e9a25&#45;ec5f&#45;43f6&#45;83a0&#45;9bf4924226ad</title>
<path fill="none" stroke="black" d="M324.206,-126C331.686,-126 340.801,-126 349.824,-126"/>
<polygon fill="black" stroke="black" points="349.88,-129.5 359.88,-126 349.88,-122.5 349.88,-129.5"/>
</g>
<!-- e54ae76e9&#45;6596&#45;48db&#45;8455&#45;38031b14f39a -->
<g id="e54ae76e9&#45;6596&#45;48db&#45;8455&#45;38031b14f39a" class="node"><title>e54ae76e9&#45;6596&#45;48db&#45;8455&#45;38031b14f39a</title>
<ellipse fill="none" stroke="black" cx="661.631" cy="-126" rx="18" ry="18"/>
</g>
<!-- e54ae76e9&#45;6596&#45;48db&#45;8455&#45;38031b14f39a&#45;&gt;e10348c69&#45;0372&#45;4d4e&#45;8d07&#45;f6e9ef157844 -->
<g id="ec6cec6bd&#45;1114&#45;4878&#45;86ec&#45;39e9fcf93204" class="edge"><title>e54ae76e9&#45;6596&#45;48db&#45;8455&#45;38031b14f39a&#45;&gt;e10348c69&#45;0372&#45;4d4e&#45;8d07&#45;f6e9ef157844</title>
<path fill="none" stroke="black" d="M678.343,-118.622C687.134,-114.494 697.988,-109.398 706.431,-105.433"/>
<polygon fill="black" stroke="black" points="707.935,-108.594 715.499,-101.175 704.959,-102.258 707.935,-108.594"/>
</g>
<!-- e72e7fef9&#45;b909&#45;4171&#45;9d31&#45;6893f84a3980 -->
<g id="e72e7fef9&#45;b909&#45;4171&#45;9d31&#45;6893f84a3980" class="node"><title>e72e7fef9&#45;b909&#45;4171&#45;9d31&#45;6893f84a3980</title>
<ellipse fill="none" stroke="black" cx="485.809" cy="-126" rx="18" ry="18"/>
</g>
<!-- e7c83cccb&#45;deab&#45;49ce&#45;ade8&#45;ac829cca0f9f -->
<g id="e7c83cccb&#45;deab&#45;49ce&#45;ade8&#45;ac829cca0f9f" class="node"><title>e7c83cccb&#45;deab&#45;49ce&#45;ade8&#45;ac829cca0f9f</title>
<polygon fill="none" stroke="black" points="607.739,-136 550.309,-136 550.309,-100 607.739,-100 607.739,-136"/>
<text text-anchor="middle" x="579.024" y="-113.8" font-family="Times,serif" font-size="14.00">1__end</text>
</g>
<!-- e72e7fef9&#45;b909&#45;4171&#45;9d31&#45;6893f84a3980&#45;&gt;e7c83cccb&#45;deab&#45;49ce&#45;ade8&#45;ac829cca0f9f -->
<g id="ebc6b9b1a&#45;2858&#45;48ac&#45;8fca&#45;01f39cb0ba58" class="edge"><title>e72e7fef9&#45;b909&#45;4171&#45;9d31&#45;6893f84a3980&#45;&gt;e7c83cccb&#45;deab&#45;49ce&#45;ade8&#45;ac829cca0f9f</title>
<path fill="none" stroke="black" d="M503.966,-124.495C514.126,-123.604 527.423,-122.438 539.941,-121.34"/>
<polygon fill="black" stroke="black" points="540.532,-124.802 550.188,-120.441 539.92,-117.829 540.532,-124.802"/>
</g>
<!-- e3c0060ff&#45;bb51&#45;4c8d&#45;a22b&#45;fe72459fc1f6 -->
<g id="e3c0060ff&#45;bb51&#45;4c8d&#45;a22b&#45;fe72459fc1f6" class="node"><title>e3c0060ff&#45;bb51&#45;4c8d&#45;a22b&#45;fe72459fc1f6</title>
<ellipse fill="none" stroke="black" cx="390.651" cy="-72" rx="18" ry="18"/>
</g>
<!-- e8c42099a&#45;5694&#45;4da9&#45;9581&#45;5baf19b4e74b -->
<g id="e8c42099a&#45;5694&#45;4da9&#45;9581&#45;5baf19b4e74b" class="node"><title>e8c42099a&#45;5694&#45;4da9&#45;9581&#45;5baf19b4e74b</title>
<polygon fill="none" stroke="black" points="514.524,-90 457.094,-90 457.094,-54 514.524,-54 514.524,-90"/>
<text text-anchor="middle" x="485.809" y="-67.8" font-family="Times,serif" font-size="14.00">2__end</text>
</g>
<!-- e3c0060ff&#45;bb51&#45;4c8d&#45;a22b&#45;fe72459fc1f6&#45;&gt;e8c42099a&#45;5694&#45;4da9&#45;9581&#45;5baf19b4e74b -->
<g id="eecde20ca&#45;fbe0&#45;4771&#45;bbe3&#45;33dc466b9f0d" class="edge"><title>e3c0060ff&#45;bb51&#45;4c8d&#45;a22b&#45;fe72459fc1f6&#45;&gt;e8c42099a&#45;5694&#45;4da9&#45;9581&#45;5baf19b4e74b</title>
<path fill="none" stroke="black" d="M408.738,-72C419.349,-72 433.428,-72 446.587,-72"/>
<polygon fill="black" stroke="black" points="446.859,-75.5001 456.859,-72 446.859,-68.5001 446.859,-75.5001"/>
</g>
<!-- ea8c8f01e&#45;9935&#45;477b&#45;89a5&#45;8eee52e3830e -->
<g id="ea8c8f01e&#45;9935&#45;477b&#45;89a5&#45;8eee52e3830e" class="node"><title>ea8c8f01e&#45;9935&#45;477b&#45;89a5&#45;8eee52e3830e</title>
<ellipse fill="none" stroke="black" cx="661.631" cy="-72" rx="18" ry="18"/>
</g>
<!-- ea8c8f01e&#45;9935&#45;477b&#45;89a5&#45;8eee52e3830e&#45;&gt;e10348c69&#45;0372&#45;4d4e&#45;8d07&#45;f6e9ef157844 -->
<g id="e34d51c9e&#45;3188&#45;40ec&#45;9f09&#45;d39995f07763" class="edge"><title>ea8c8f01e&#45;9935&#45;477b&#45;89a5&#45;8eee52e3830e&#45;&gt;e10348c69&#45;0372&#45;4d4e&#45;8d07&#45;f6e9ef157844</title>
<path fill="none" stroke="black" d="M678.343,-79.3779C687.134,-83.5057 697.988,-88.6024 706.431,-92.5669"/>
<polygon fill="black" stroke="black" points="704.959,-95.7424 715.499,-96.8247 707.935,-89.4062 704.959,-95.7424"/>
</g>
<!-- e622e73a8&#45;70cc&#45;4038&#45;9532&#45;de72537789d5 -->
<g id="e622e73a8&#45;70cc&#45;4038&#45;9532&#45;de72537789d5" class="node"><title>e622e73a8&#45;70cc&#45;4038&#45;9532&#45;de72537789d5</title>
<ellipse fill="none" stroke="black" cx="306.101" cy="-26" rx="18" ry="18"/>
</g>
<!-- eaf628fff&#45;1e9a&#45;4c08&#45;a91c&#45;a8d454d38626 -->
<g id="eaf628fff&#45;1e9a&#45;4c08&#45;a91c&#45;a8d454d38626" class="node"><title>eaf628fff&#45;1e9a&#45;4c08&#45;a91c&#45;a8d454d38626</title>
<polygon fill="none" stroke="black" points="514.524,-36 457.094,-36 457.094,-0 514.524,-0 514.524,-36"/>
<text text-anchor="middle" x="485.809" y="-13.8" font-family="Times,serif" font-size="14.00">0__end</text>
</g>
<!-- e622e73a8&#45;70cc&#45;4038&#45;9532&#45;de72537789d5&#45;&gt;eaf628fff&#45;1e9a&#45;4c08&#45;a91c&#45;a8d454d38626 -->
<g id="e775f99ca&#45;42e7&#45;4b21&#45;a550&#45;ac04bd1b1e8d" class="edge"><title>e622e73a8&#45;70cc&#45;4038&#45;9532&#45;de72537789d5&#45;&gt;eaf628fff&#45;1e9a&#45;4c08&#45;a91c&#45;a8d454d38626</title>
<path fill="none" stroke="black" d="M324.14,-25.2329C352.251,-23.9675 409.003,-21.4126 446.967,-19.7036"/>
<polygon fill="black" stroke="black" points="447.304,-23.192 457.137,-19.2457 446.99,-16.1991 447.304,-23.192"/>
</g>
<!-- eb5b1d8e5&#45;4ed6&#45;4653&#45;860f&#45;5658f240cd2b -->
<g id="eb5b1d8e5&#45;4ed6&#45;4653&#45;860f&#45;5658f240cd2b" class="node"><title>eb5b1d8e5&#45;4ed6&#45;4653&#45;860f&#45;5658f240cd2b</title>
<ellipse fill="none" stroke="black" cx="661.631" cy="-18" rx="18" ry="18"/>
</g>
<!-- eb5b1d8e5&#45;4ed6&#45;4653&#45;860f&#45;5658f240cd2b&#45;&gt;e10348c69&#45;0372&#45;4d4e&#45;8d07&#45;f6e9ef157844 -->
<g id="e19627fee&#45;2fdb&#45;4adf&#45;ab3f&#45;6e1b604a83fa" class="edge"><title>eb5b1d8e5&#45;4ed6&#45;4653&#45;860f&#45;5658f240cd2b&#45;&gt;e10348c69&#45;0372&#45;4d4e&#45;8d07&#45;f6e9ef157844</title>
<path fill="none" stroke="black" d="M672.911,-32.4812C683.192,-46.9645 698.939,-69.1465 709.383,-83.8585"/>
<polygon fill="black" stroke="black" points="706.727,-86.1634 715.369,-92.2917 712.435,-82.1114 706.727,-86.1634"/>
</g>
<!-- e94376162&#45;c414&#45;46ed&#45;9b69&#45;61b11b689ec5&#45;&gt;e266d8228&#45;50d0&#45;4dd9&#45;ae93&#45;5be68dc66d88 -->
<g id="ee2efb9dd&#45;f7d6&#45;4a0f&#45;b1a9&#45;00c992b6c64d" class="edge"><title>e94376162&#45;c414&#45;46ed&#45;9b69&#45;61b11b689ec5&#45;&gt;e266d8228&#45;50d0&#45;4dd9&#45;ae93&#45;5be68dc66d88</title>
<path fill="none" stroke="black" d="M108.467,-128.392C118.425,-125.135 141.596,-117.556 160.048,-111.521"/>
<polygon fill="black" stroke="black" points="161.283,-114.8 169.699,-108.365 159.107,-108.147 161.283,-114.8"/>
</g>
<!-- e6f0f8ae1&#45;e563&#45;4b0e&#45;bbf6&#45;c5c107d97bce&#45;&gt;e266d8228&#45;50d0&#45;4dd9&#45;ae93&#45;5be68dc66d88 -->
<g id="ec6df8c6f&#45;e0b2&#45;43e4&#45;9823&#45;4f3caaa0b0a7" class="edge"><title>e6f0f8ae1&#45;e563&#45;4b0e&#45;bbf6&#45;c5c107d97bce&#45;&gt;e266d8228&#45;50d0&#45;4dd9&#45;ae93&#45;5be68dc66d88</title>
<path fill="none" stroke="black" d="M133.353,-85.7476C142.021,-88.5827 151.422,-91.6575 159.854,-94.4154"/>
<polygon fill="black" stroke="black" points="158.952,-97.8027 169.545,-97.5848 161.128,-91.1495 158.952,-97.8027"/>
</g>
<!-- edf49ff75&#45;bbd7&#45;4d5c&#45;96e8&#45;f0e140babf0d&#45;&gt;e2a26fdaa&#45;ab4f&#45;47e3&#45;8a55&#45;d2216a5d70f2 -->
<g id="e036af108&#45;4d02&#45;48c6&#45;bcf1&#45;1abd2662f022" class="edge"><title>edf49ff75&#45;bbd7&#45;4d5c&#45;96e8&#45;f0e140babf0d&#45;&gt;e2a26fdaa&#45;ab4f&#45;47e3&#45;8a55&#45;d2216a5d70f2</title>
<path fill="none" stroke="black" d="M252.113,-110.847C260.452,-125.35 278.587,-156.889 291.308,-179.012"/>
<polygon fill="black" stroke="black" points="288.365,-180.915 296.384,-187.839 294.433,-177.426 288.365,-180.915"/>
</g>
<!-- edf49ff75&#45;bbd7&#45;4d5c&#45;96e8&#45;f0e140babf0d&#45;&gt;ec5ba6041&#45;436d&#45;4cab&#45;9761&#45;d62da5759dde -->
<g id="e54fb7ee0&#45;7280&#45;447f&#45;a695&#45;18fca131de8a" class="edge"><title>edf49ff75&#45;bbd7&#45;4d5c&#45;96e8&#45;f0e140babf0d&#45;&gt;ec5ba6041&#45;436d&#45;4cab&#45;9761&#45;d62da5759dde</title>
<path fill="none" stroke="black" d="M252.113,-104.805C258.153,-107.221 269.332,-111.693 279.871,-115.908"/>
<polygon fill="black" stroke="black" points="278.619,-119.177 289.203,-119.641 281.218,-112.677 278.619,-119.177"/>
</g>
<!-- edf49ff75&#45;bbd7&#45;4d5c&#45;96e8&#45;f0e140babf0d&#45;&gt;e3c0060ff&#45;bb51&#45;4c8d&#45;a22b&#45;fe72459fc1f6 -->
<g id="e53a043b7&#45;d342&#45;4a6a&#45;afce&#45;aa06256e1bba" class="edge"><title>edf49ff75&#45;bbd7&#45;4d5c&#45;96e8&#45;f0e140babf0d&#45;&gt;e3c0060ff&#45;bb51&#45;4c8d&#45;a22b&#45;fe72459fc1f6</title>
<path fill="none" stroke="black" d="M252.327,-101.969C269.255,-98.2745 327.701,-85.5197 362.654,-77.8917"/>
<polygon fill="black" stroke="black" points="363.652,-81.2564 372.676,-75.7047 362.159,-74.4174 363.652,-81.2564"/>
</g>
<!-- edf49ff75&#45;bbd7&#45;4d5c&#45;96e8&#45;f0e140babf0d&#45;&gt;e622e73a8&#45;70cc&#45;4038&#45;9532&#45;de72537789d5 -->
<g id="e0d27921a&#45;9c48&#45;4aa5&#45;887e&#45;b40bd3765d78" class="edge"><title>edf49ff75&#45;bbd7&#45;4d5c&#45;96e8&#45;f0e140babf0d&#45;&gt;e622e73a8&#45;70cc&#45;4038&#45;9532&#45;de72537789d5</title>
<path fill="none" stroke="black" d="M252.113,-96.9579C259.868,-86.5724 276.095,-64.8429 288.56,-48.1499"/>
<polygon fill="black" stroke="black" points="291.493,-50.0731 294.672,-39.9664 285.884,-45.8847 291.493,-50.0731"/>
</g>
<!-- e10348c69&#45;0372&#45;4d4e&#45;8d07&#45;f6e9ef157844&#45;&gt;ea1c4c355&#45;8b4b&#45;4a85&#45;a17c&#45;5fa81af6c54b -->
<g id="e197af8b7&#45;dc84&#45;4ca9&#45;ab73&#45;14a7f722346c" class="edge"><title>e10348c69&#45;0372&#45;4d4e&#45;8d07&#45;f6e9ef157844&#45;&gt;ea1c4c355&#45;8b4b&#45;4a85&#45;a17c&#45;5fa81af6c54b</title>
<path fill="none" stroke="black" d="M726.643,-99C732.302,-99 742.471,-99 752.399,-99"/>
<polygon fill="black" stroke="black" points="752.457,-102.5 762.457,-99 752.457,-95.5001 752.457,-102.5"/>
</g>
<!-- e74781f8f&#45;92bf&#45;4639&#45;a383&#45;f23b40de9314&#45;&gt;edf8d2a1c&#45;e9b5&#45;4ccf&#45;9303&#45;40dc14ab8567 -->
<g id="e501e7230&#45;6520&#45;42ad&#45;b0d8&#45;e1d0dad84a9c" class="edge"><title>e74781f8f&#45;92bf&#45;4639&#45;a383&#45;f23b40de9314&#45;&gt;edf8d2a1c&#45;e9b5&#45;4ccf&#45;9303&#45;40dc14ab8567</title>
<path fill="none" stroke="black" d="M421.595,-220.964C457.249,-222.112 516.289,-224.013 550.733,-225.121"/>
<polygon fill="black" stroke="black" points="550.883,-228.628 560.991,-225.452 551.108,-221.632 550.883,-228.628"/>
</g>
<!-- e25d54d0c&#45;6d9a&#45;4acf&#45;af48&#45;a27d942d408f&#45;&gt;e54ae76e9&#45;6596&#45;48db&#45;8455&#45;38031b14f39a -->
<g id="e3d936675&#45;5d61&#45;4c85&#45;8260&#45;d00a6ae9b099" class="edge"><title>e25d54d0c&#45;6d9a&#45;4acf&#45;af48&#45;a27d942d408f&#45;&gt;e54ae76e9&#45;6596&#45;48db&#45;8455&#45;38031b14f39a</title>
<path fill="none" stroke="black" d="M584.825,-169.26C594.857,-163.535 618.625,-149.972 636.894,-139.546"/>
<polygon fill="black" stroke="black" points="638.64,-142.579 645.591,-134.583 635.171,-136.5 638.64,-142.579"/>
</g>
<!-- e604e9a25&#45;ec5f&#45;43f6&#45;83a0&#45;9bf4924226ad&#45;&gt;e72e7fef9&#45;b909&#45;4171&#45;9d31&#45;6893f84a3980 -->
<g id="e74b78b98&#45;d17a&#45;4da2&#45;a1a3&#45;0b722e92c607" class="edge"><title>e604e9a25&#45;ec5f&#45;43f6&#45;83a0&#45;9bf4924226ad&#45;&gt;e72e7fef9&#45;b909&#45;4171&#45;9d31&#45;6893f84a3980</title>
<path fill="none" stroke="black" d="M421.383,-126C432.924,-126 446.06,-126 457.372,-126"/>
<polygon fill="black" stroke="black" points="457.547,-129.5 467.547,-126 457.547,-122.5 457.547,-129.5"/>
</g>
<!-- e7c83cccb&#45;deab&#45;49ce&#45;ade8&#45;ac829cca0f9f&#45;&gt;e54ae76e9&#45;6596&#45;48db&#45;8455&#45;38031b14f39a -->
<g id="efa33ddc6&#45;c743&#45;46d0&#45;8f52&#45;9729681ccaf2" class="edge"><title>e7c83cccb&#45;deab&#45;49ce&#45;ade8&#45;ac829cca0f9f&#45;&gt;e54ae76e9&#45;6596&#45;48db&#45;8455&#45;38031b14f39a</title>
<path fill="none" stroke="black" d="M607.764,-120.753C615.997,-121.57 625.007,-122.464 633.219,-123.279"/>
<polygon fill="black" stroke="black" points="633.126,-126.787 643.422,-124.292 633.817,-119.821 633.126,-126.787"/>
</g>
<!-- e8c42099a&#45;5694&#45;4da9&#45;9581&#45;5baf19b4e74b&#45;&gt;ea8c8f01e&#45;9935&#45;477b&#45;89a5&#45;8eee52e3830e -->
<g id="ee17ed9ce&#45;8832&#45;4afe&#45;9a54&#45;9d8ac96bed9c" class="edge"><title>e8c42099a&#45;5694&#45;4da9&#45;9581&#45;5baf19b4e74b&#45;&gt;ea8c8f01e&#45;9935&#45;477b&#45;89a5&#45;8eee52e3830e</title>
<path fill="none" stroke="black" d="M514.737,-72C547.328,-72 600.873,-72 633.235,-72"/>
<polygon fill="black" stroke="black" points="633.337,-75.5001 643.337,-72 633.336,-68.5001 633.337,-75.5001"/>
</g>
<!-- eaf628fff&#45;1e9a&#45;4c08&#45;a91c&#45;a8d454d38626&#45;&gt;eb5b1d8e5&#45;4ed6&#45;4653&#45;860f&#45;5658f240cd2b -->
<g id="eba10e1e5&#45;cfa7&#45;44d0&#45;94cb&#45;903d7e7b8cce" class="edge"><title>eaf628fff&#45;1e9a&#45;4c08&#45;a91c&#45;a8d454d38626&#45;&gt;eb5b1d8e5&#45;4ed6&#45;4653&#45;860f&#45;5658f240cd2b</title>
<path fill="none" stroke="black" d="M514.737,-18C547.328,-18 600.873,-18 633.235,-18"/>
<polygon fill="black" stroke="black" points="633.337,-21.5001 643.337,-18 633.336,-14.5001 633.337,-21.5001"/>
</g>
</g>
</svg>
