<?xml version="1.0" encoding="UTF-8" standalone="no"?>
<!DOCTYPE svg PUBLIC "-//W3C//DTD SVG 1.1//EN"
 "http://www.w3.org/Graphics/SVG/1.1/DTD/svg11.dtd">
<!-- Generated by graphviz version 2.38.0 (20140413.2041)
 -->
<!-- Title: G Pages: 1 -->
<svg width="1260pt" height="230pt"
 viewBox="0.00 0.00 1260.48 230.00" xmlns="http://www.w3.org/2000/svg" xmlns:xlink="http://www.w3.org/1999/xlink">
<g id="graph0" class="graph" transform="scale(1 1) rotate(0) translate(4 226)">
<title>G</title>
<polygon fill="white" stroke="none" points="-4,4 -4,-226 1256.48,-226 1256.48,4 -4,4"/>
<!-- e174c5f40&#45;e452&#45;42ba&#45;9c82&#45;93cfdf293bfc -->
<g id="e174c5f40&#45;e452&#45;42ba&#45;9c82&#45;93cfdf293bfc" class="node"><title>e174c5f40&#45;e452&#45;42ba&#45;9c82&#45;93cfdf293bfc</title>
<ellipse fill="green" stroke="black" cx="18" cy="-87" rx="18" ry="18"/>
</g>
<!-- e77661bd4&#45;06c5&#45;4b83&#45;9e1b&#45;d59c45294fa7 -->
<g id="e77661bd4&#45;06c5&#45;4b83&#45;9e1b&#45;d59c45294fa7" class="node"><title>e77661bd4&#45;06c5&#45;4b83&#45;9e1b&#45;d59c45294fa7</title>
<polygon fill="none" stroke="black" points="136.312,-105 71.8959,-105 71.8959,-69 136.312,-69 136.312,-105"/>
<text text-anchor="middle" x="104.104" y="-82.8" font-family="Times,serif" font-size="14.00">A__start</text>
</g>
<!-- e174c5f40&#45;e452&#45;42ba&#45;9c82&#45;93cfdf293bfc&#45;&gt;e77661bd4&#45;06c5&#45;4b83&#45;9e1b&#45;d59c45294fa7 -->
<g id="e5a9ed591&#45;1041&#45;4212&#45;85a5&#45;e09030638286" class="edge"><title>e174c5f40&#45;e452&#45;42ba&#45;9c82&#45;93cfdf293bfc&#45;&gt;e77661bd4&#45;06c5&#45;4b83&#45;9e1b&#45;d59c45294fa7</title>
<path fill="none" stroke="black" d="M36.0197,-87C43.4827,-87 52.5996,-87 61.6776,-87"/>
<polygon fill="black" stroke="black" points="61.8203,-90.5001 71.8203,-87 61.8202,-83.5001 61.8203,-90.5001"/>
</g>
<!-- e65c1baf7&#45;ad8f&#45;4415&#45;97b6&#45;38ca24ca1f6d -->
<g id="e65c1baf7&#45;ad8f&#45;4415&#45;97b6&#45;38ca24ca1f6d" class="node"><title>e65c1baf7&#45;ad8f&#45;4415&#45;97b6&#45;38ca24ca1f6d</title>
<ellipse fill="red" stroke="black" cx="1234.48" cy="-51" rx="18" ry="18"/>
</g>
<!-- ef5c0e03d&#45;bb71&#45;41aa&#45;b497&#45;6fa5ed515cc7 -->
<g id="ef5c0e03d&#45;bb71&#45;41aa&#45;b497&#45;6fa5ed515cc7" class="node"><title>ef5c0e03d&#45;bb71&#45;41aa&#45;b497&#45;6fa5ed515cc7</title>
<ellipse fill="none" stroke="black" cx="190.208" cy="-87" rx="18" ry="18"/>
</g>
<!-- ef8a8aaea&#45;d6c1&#45;4c8c&#45;bbdf&#45;bc84024fdc57 -->
<g id="ef8a8aaea&#45;d6c1&#45;4c8c&#45;bbdf&#45;bc84024fdc57" class="node"><title>ef8a8aaea&#45;d6c1&#45;4c8c&#45;bbdf&#45;bc84024fdc57</title>
<polygon fill="#eeeeee" stroke="black" points="255.208,-105 244.208,-105 244.208,-69 255.208,-69 255.208,-105"/>
</g>
<!-- ef5c0e03d&#45;bb71&#45;41aa&#45;b497&#45;6fa5ed515cc7&#45;&gt;ef8a8aaea&#45;d6c1&#45;4c8c&#45;bbdf&#45;bc84024fdc57 -->
<g id="e4015e671&#45;6e90&#45;403b&#45;98eb&#45;cba9fa6487db" class="edge"><title>ef5c0e03d&#45;bb71&#45;41aa&#45;b497&#45;6fa5ed515cc7&#45;&gt;ef8a8aaea&#45;d6c1&#45;4c8c&#45;bbdf&#45;bc84024fdc57</title>
<path fill="none" stroke="black" d="M208.459,-87C216.448,-87 225.855,-87 233.565,-87"/>
<polygon fill="black" stroke="black" points="233.836,-90.5001 243.836,-87 233.836,-83.5001 233.836,-90.5001"/>
</g>
<!-- ef750274c&#45;ca72&#45;4cb8&#45;95e3&#45;edc7d3e851ea -->
<g id="ef750274c&#45;ca72&#45;4cb8&#45;95e3&#45;edc7d3e851ea" class="node"><title>ef750274c&#45;ca72&#45;4cb8&#45;95e3&#45;edc7d3e851ea</title>
<ellipse fill="none" stroke="black" cx="309.208" cy="-115" rx="18" ry="18"/>
</g>
<!-- ec118c7ef&#45;a766&#45;4a0a&#45;8246&#45;535c43ed826d -->
<g id="ec118c7ef&#45;a766&#45;4a0a&#45;8246&#45;535c43ed826d" class="node"><title>ec118c7ef&#45;a766&#45;4a0a&#45;8246&#45;535c43ed826d</title>
<polygon fill="#eeeeee" stroke="black" points="686.552,-222 675.552,-222 675.552,-186 686.552,-186 686.552,-222"/>
</g>
<!-- ef750274c&#45;ca72&#45;4cb8&#45;95e3&#45;edc7d3e851ea&#45;&gt;ec118c7ef&#45;a766&#45;4a0a&#45;8246&#45;535c43ed826d -->
<g id="e30f8d6fd&#45;02d1&#45;4651&#45;b76b&#45;3a767252c658" class="edge"><title>ef750274c&#45;ca72&#45;4cb8&#45;95e3&#45;edc7d3e851ea&#45;&gt;ec118c7ef&#45;a766&#45;4a0a&#45;8246&#45;535c43ed826d</title>
<path fill="none" stroke="black" d="M325.022,-123.959C335.387,-129.87 349.736,-137.352 363.208,-142 475.812,-180.847 619.809,-197.923 665.479,-202.604"/>
<polygon fill="black" stroke="black" points="665.166,-206.09 675.461,-203.586 665.852,-199.123 665.166,-206.09"/>
</g>
<!-- e63a09afc&#45;a9f8&#45;416a&#45;a0cc&#45;9bd6422fed0f -->
<g id="e63a09afc&#45;a9f8&#45;416a&#45;a0cc&#45;9bd6422fed0f" class="node"><title>e63a09afc&#45;a9f8&#45;416a&#45;a0cc&#45;9bd6422fed0f</title>
<polygon fill="none" stroke="black" points="430.682,-133 363.049,-133 363.049,-97 430.682,-97 430.682,-133"/>
<text text-anchor="middle" x="396.865" y="-110.8" font-family="Times,serif" font-size="14.00">W__start</text>
</g>
<!-- ef750274c&#45;ca72&#45;4cb8&#45;95e3&#45;edc7d3e851ea&#45;&gt;e63a09afc&#45;a9f8&#45;416a&#45;a0cc&#45;9bd6422fed0f -->
<g id="eecbc4b50&#45;39b8&#45;4670&#45;a258&#45;dbe72637b90d" class="edge"><title>ef750274c&#45;ca72&#45;4cb8&#45;95e3&#45;edc7d3e851ea&#45;&gt;e63a09afc&#45;a9f8&#45;416a&#45;a0cc&#45;9bd6422fed0f</title>
<path fill="none" stroke="black" d="M327.542,-115C334.93,-115 343.909,-115 352.896,-115"/>
<polygon fill="black" stroke="black" points="352.962,-118.5 362.962,-115 352.962,-111.5 352.962,-118.5"/>
</g>
<!-- ed46ade6e&#45;f6a4&#45;4811&#45;aa88&#45;4e58fee78317 -->
<g id="ed46ade6e&#45;f6a4&#45;4811&#45;aa88&#45;4e58fee78317" class="node"><title>ed46ade6e&#45;f6a4&#45;4811&#45;aa88&#45;4e58fee78317</title>
<ellipse fill="none" stroke="black" cx="1115.48" cy="-88" rx="18" ry="18"/>
</g>
<!-- ee835b5bb&#45;85de&#45;4f9f&#45;82c2&#45;1046c0dccc7f -->
<g id="ee835b5bb&#45;85de&#45;4f9f&#45;82c2&#45;1046c0dccc7f" class="node"><title>ee835b5bb&#45;85de&#45;4f9f&#45;82c2&#45;1046c0dccc7f</title>
<polygon fill="#eeeeee" stroke="black" points="1180.48,-69 1169.48,-69 1169.48,-33 1180.48,-33 1180.48,-69"/>
</g>
<!-- ed46ade6e&#45;f6a4&#45;4811&#45;aa88&#45;4e58fee78317&#45;&gt;ee835b5bb&#45;85de&#45;4f9f&#45;82c2&#45;1046c0dccc7f -->
<g id="e83953c84&#45;7bcf&#45;4ee7&#45;9feb&#45;b8af7b324ee5" class="edge"><title>ed46ade6e&#45;f6a4&#45;4811&#45;aa88&#45;4e58fee78317&#45;&gt;ee835b5bb&#45;85de&#45;4f9f&#45;82c2&#45;1046c0dccc7f</title>
<path fill="none" stroke="black" d="M1130.99,-78.6633C1140.18,-72.7527 1151.96,-65.1725 1160.86,-59.4421"/>
<polygon fill="black" stroke="black" points="1162.89,-62.3005 1169.4,-53.9459 1159.1,-56.4139 1162.89,-62.3005"/>
</g>
<!-- e278f6ec9&#45;92b9&#45;4956&#45;a0c7&#45;08363f9a9954 -->
<g id="e278f6ec9&#45;92b9&#45;4956&#45;a0c7&#45;08363f9a9954" class="node"><title>e278f6ec9&#45;92b9&#45;4956&#45;a0c7&#45;08363f9a9954</title>
<ellipse fill="none" stroke="black" cx="496.684" cy="-115" rx="18" ry="18"/>
</g>
<!-- eaf463f77&#45;d29a&#45;4dca&#45;b137&#45;70c519ebe9ef -->
<g id="eaf463f77&#45;d29a&#45;4dca&#45;b137&#45;70c519ebe9ef" class="node"><title>eaf463f77&#45;d29a&#45;4dca&#45;b137&#45;70c519ebe9ef</title>
<polygon fill="#eeeeee" stroke="black" points="600.448,-143 589.448,-143 589.448,-107 600.448,-107 600.448,-143"/>
</g>
<!-- e278f6ec9&#45;92b9&#45;4956&#45;a0c7&#45;08363f9a9954&#45;&gt;eaf463f77&#45;d29a&#45;4dca&#45;b137&#45;70c519ebe9ef -->
<g id="e1be26177&#45;2025&#45;423f&#45;86a2&#45;8b497e59e184" class="edge"><title>e278f6ec9&#45;92b9&#45;4956&#45;a0c7&#45;08363f9a9954&#45;&gt;eaf463f77&#45;d29a&#45;4dca&#45;b137&#45;70c519ebe9ef</title>
<path fill="none" stroke="black" d="M514.894,-116.788C533.26,-118.696 562.043,-121.686 579.343,-123.483"/>
<polygon fill="black" stroke="black" points="579.1,-126.976 589.408,-124.528 579.823,-120.014 579.1,-126.976"/>
</g>
<!-- e7d2c7262&#45;98a1&#45;45b3&#45;8efb&#45;2b2ff4538ad1 -->
<g id="e7d2c7262&#45;98a1&#45;45b3&#45;8efb&#45;2b2ff4538ad1" class="node"><title>e7d2c7262&#45;98a1&#45;45b3&#45;8efb&#45;2b2ff4538ad1</title>
<polygon fill="none" stroke="black" points="627.156,-89 562.74,-89 562.74,-53 627.156,-53 627.156,-89"/>
<text text-anchor="middle" x="594.948" y="-66.8" font-family="Times,serif" font-size="14.00">O__start</text>
</g>
<!-- e278f6ec9&#45;92b9&#45;4956&#45;a0c7&#45;08363f9a9954&#45;&gt;e7d2c7262&#45;98a1&#45;45b3&#45;8efb&#45;2b2ff4538ad1 -->
<g id="e2e181cd0&#45;4409&#45;420b&#45;ac6f&#45;da7dc0df9128" class="edge"><title>e278f6ec9&#45;92b9&#45;4956&#45;a0c7&#45;08363f9a9954&#45;&gt;e7d2c7262&#45;98a1&#45;45b3&#45;8efb&#45;2b2ff4538ad1</title>
<path fill="none" stroke="black" d="M513.58,-107.734C524.531,-102.729 539.604,-95.8395 553.739,-89.3787"/>
<polygon fill="black" stroke="black" points="555.199,-92.5595 562.839,-85.2191 552.289,-86.193 555.199,-92.5595"/>
</g>
<!-- e8ee0ebc2&#45;58e2&#45;4b8d&#45;aa44&#45;bc060033591e -->
<g id="e8ee0ebc2&#45;58e2&#45;4b8d&#45;aa44&#45;bc060033591e" class="node"><title>e8ee0ebc2&#45;58e2&#45;4b8d&#45;aa44&#45;bc060033591e</title>
<ellipse fill="none" stroke="black" cx="681.052" cy="-78" rx="18" ry="18"/>
</g>
<!-- ef39fc02b&#45;a5e7&#45;46d0&#45;895b&#45;950ee12caf1a -->
<g id="ef39fc02b&#45;a5e7&#45;46d0&#45;895b&#45;950ee12caf1a" class="node"><title>ef39fc02b&#45;a5e7&#45;46d0&#45;895b&#45;950ee12caf1a</title>
<polygon fill="#eeeeee" stroke="black" points="758.552,-96 747.552,-96 747.552,-60 758.552,-60 758.552,-96"/>
</g>
<!-- e8ee0ebc2&#45;58e2&#45;4b8d&#45;aa44&#45;bc060033591e&#45;&gt;ef39fc02b&#45;a5e7&#45;46d0&#45;895b&#45;950ee12caf1a -->
<g id="ec210c2d0&#45;3aa3&#45;45d4&#45;82f7&#45;f01255db51ef" class="edge"><title>e8ee0ebc2&#45;58e2&#45;4b8d&#45;aa44&#45;bc060033591e&#45;&gt;ef39fc02b&#45;a5e7&#45;46d0&#45;895b&#45;950ee12caf1a</title>
<path fill="none" stroke="black" d="M699.355,-78C711.01,-78 726.218,-78 737.299,-78"/>
<polygon fill="black" stroke="black" points="737.34,-81.5001 747.34,-78 737.34,-74.5001 737.34,-81.5001"/>
</g>
<!-- e1b00b6cd&#45;2322&#45;4d51&#45;a98f&#45;2e4d19cbeeb7 -->
<g id="e1b00b6cd&#45;2322&#45;4d51&#45;a98f&#45;2e4d19cbeeb7" class="node"><title>e1b00b6cd&#45;2322&#45;4d51&#45;a98f&#45;2e4d19cbeeb7</title>
<ellipse fill="none" stroke="black" cx="825.052" cy="-115" rx="18" ry="18"/>
</g>
<!-- e31af1114&#45;9c2c&#45;488e&#45;8c5f&#45;7033c4fec4ce -->
<g id="e31af1114&#45;9c2c&#45;488e&#45;8c5f&#45;7033c4fec4ce" class="node"><title>e31af1114&#45;9c2c&#45;488e&#45;8c5f&#45;7033c4fec4ce</title>
<polygon fill="#eeeeee" stroke="black" points="916.267,-187 905.267,-187 905.267,-151 916.267,-151 916.267,-187"/>
</g>
<!-- e1b00b6cd&#45;2322&#45;4d51&#45;a98f&#45;2e4d19cbeeb7&#45;&gt;e31af1114&#45;9c2c&#45;488e&#45;8c5f&#45;7033c4fec4ce -->
<g id="ed088af69&#45;a33c&#45;4f75&#45;92c4&#45;d085861077c4" class="edge"><title>e1b00b6cd&#45;2322&#45;4d51&#45;a98f&#45;2e4d19cbeeb7&#45;&gt;e31af1114&#45;9c2c&#45;488e&#45;8c5f&#45;7033c4fec4ce</title>
<path fill="none" stroke="black" d="M840.634,-124.406C856.315,-134.521 881.043,-150.472 896.285,-160.304"/>
<polygon fill="black" stroke="black" points="894.793,-163.506 905.094,-165.986 898.588,-157.624 894.793,-163.506"/>
</g>
<!-- e2488f367&#45;ea46&#45;429c&#45;849a&#45;e6c2c6bb689e -->
<g id="e2488f367&#45;ea46&#45;429c&#45;849a&#45;e6c2c6bb689e" class="node"><title>e2488f367&#45;ea46&#45;429c&#45;849a&#45;e6c2c6bb689e</title>
<polygon fill="none" stroke="black" points="941.089,-133 880.445,-133 880.445,-97 941.089,-97 941.089,-133"/>
<text text-anchor="middle" x="910.767" y="-110.8" font-family="Times,serif" font-size="14.00">O__end</text>
</g>
<!-- e1b00b6cd&#45;2322&#45;4d51&#45;a98f&#45;2e4d19cbeeb7&#45;&gt;e2488f367&#45;ea46&#45;429c&#45;849a&#45;e6c2c6bb689e -->
<g id="e4e8cbcad&#45;3efd&#45;482e&#45;b6b0&#45;aee2596af581" class="edge"><title>e1b00b6cd&#45;2322&#45;4d51&#45;a98f&#45;2e4d19cbeeb7&#45;&gt;e2488f367&#45;ea46&#45;429c&#45;849a&#45;e6c2c6bb689e</title>
<path fill="none" stroke="black" d="M843.398,-115C851.276,-115 860.943,-115 870.436,-115"/>
<polygon fill="black" stroke="black" points="870.575,-118.5 880.575,-115 870.575,-111.5 870.575,-118.5"/>
</g>
<!-- e092c531e&#45;0fb9&#45;40a2&#45;833f&#45;a8e5a9cac670 -->
<g id="e092c531e&#45;0fb9&#45;40a2&#45;833f&#45;a8e5a9cac670" class="node"><title>e092c531e&#45;0fb9&#45;40a2&#45;833f&#45;a8e5a9cac670</title>
<ellipse fill="none" stroke="black" cx="996.481" cy="-115" rx="18" ry="18"/>
</g>
<!-- ef3ea44e1&#45;1c3b&#45;4fe5&#45;b88c&#45;82b847eeb62c -->
<g id="ef3ea44e1&#45;1c3b&#45;4fe5&#45;b88c&#45;82b847eeb62c" class="node"><title>ef3ea44e1&#45;1c3b&#45;4fe5&#45;b88c&#45;82b847eeb62c</title>
<polygon fill="#eeeeee" stroke="black" points="1061.48,-106 1050.48,-106 1050.48,-70 1061.48,-70 1061.48,-106"/>
</g>
<!-- e092c531e&#45;0fb9&#45;40a2&#45;833f&#45;a8e5a9cac670&#45;&gt;ef3ea44e1&#45;1c3b&#45;4fe5&#45;b88c&#45;82b847eeb62c -->
<g id="eb35d99de&#45;7620&#45;457f&#45;9c72&#45;1fb3c6830fde" class="edge"><title>e092c531e&#45;0fb9&#45;40a2&#45;833f&#45;a8e5a9cac670&#45;&gt;ef3ea44e1&#45;1c3b&#45;4fe5&#45;b88c&#45;82b847eeb62c</title>
<path fill="none" stroke="black" d="M1013.19,-107.622C1021.98,-103.494 1032.84,-98.3976 1041.28,-94.4331"/>
<polygon fill="black" stroke="black" points="1042.78,-97.5938 1050.35,-90.1753 1039.81,-91.2576 1042.78,-97.5938"/>
</g>
<!-- ee3ac8d9e&#45;4170&#45;46ad&#45;ae52&#45;b1026a8be9d2 -->
<g id="ee3ac8d9e&#45;4170&#45;46ad&#45;ae52&#45;b1026a8be9d2" class="node"><title>ee3ac8d9e&#45;4170&#45;46ad&#45;ae52&#45;b1026a8be9d2</title>
<ellipse fill="none" stroke="black" cx="825.052" cy="-61" rx="18" ry="18"/>
</g>
<!-- e450256e0&#45;98c8&#45;4884&#45;9f15&#45;432c54a571fa -->
<g id="e450256e0&#45;98c8&#45;4884&#45;9f15&#45;432c54a571fa" class="node"><title>e450256e0&#45;98c8&#45;4884&#45;9f15&#45;432c54a571fa</title>
<polygon fill="none" stroke="black" points="942.697,-79 878.836,-79 878.836,-43 942.697,-43 942.697,-79"/>
<text text-anchor="middle" x="910.767" y="-56.8" font-family="Times,serif" font-size="14.00">W__end</text>
</g>
<!-- ee3ac8d9e&#45;4170&#45;46ad&#45;ae52&#45;b1026a8be9d2&#45;&gt;e450256e0&#45;98c8&#45;4884&#45;9f15&#45;432c54a571fa -->
<g id="eb7042348&#45;0a3e&#45;4233&#45;bd88&#45;a377a8588726" class="edge"><title>ee3ac8d9e&#45;4170&#45;46ad&#45;ae52&#45;b1026a8be9d2&#45;&gt;e450256e0&#45;98c8&#45;4884&#45;9f15&#45;432c54a571fa</title>
<path fill="none" stroke="black" d="M843.398,-61C850.844,-61 859.889,-61 868.874,-61"/>
<polygon fill="black" stroke="black" points="868.905,-64.5001 878.905,-61 868.905,-57.5001 868.905,-64.5001"/>
</g>
<!-- e594a98be&#45;5992&#45;4314&#45;91fe&#45;679d2da9ab86 -->
<g id="e594a98be&#45;5992&#45;4314&#45;91fe&#45;679d2da9ab86" class="node"><title>e594a98be&#45;5992&#45;4314&#45;91fe&#45;679d2da9ab86</title>
<ellipse fill="none" stroke="black" cx="996.481" cy="-61" rx="18" ry="18"/>
</g>
<!-- e594a98be&#45;5992&#45;4314&#45;91fe&#45;679d2da9ab86&#45;&gt;ef3ea44e1&#45;1c3b&#45;4fe5&#45;b88c&#45;82b847eeb62c -->
<g id="e296df6e4&#45;ad4d&#45;4caf&#45;b691&#45;c37364551f04" class="edge"><title>e594a98be&#45;5992&#45;4314&#45;91fe&#45;679d2da9ab86&#45;&gt;ef3ea44e1&#45;1c3b&#45;4fe5&#45;b88c&#45;82b847eeb62c</title>
<path fill="none" stroke="black" d="M1013.19,-68.3779C1021.98,-72.5057 1032.84,-77.6024 1041.28,-81.5669"/>
<polygon fill="black" stroke="black" points="1039.81,-84.7424 1050.35,-85.8247 1042.78,-78.4062 1039.81,-84.7424"/>
</g>
<!-- e78f8a128&#45;d367&#45;43f4&#45;974a&#45;65d15fa0ab80 -->
<g id="e78f8a128&#45;d367&#45;43f4&#45;974a&#45;65d15fa0ab80" class="node"><title>e78f8a128&#45;d367&#45;43f4&#45;974a&#45;65d15fa0ab80</title>
<ellipse fill="none" stroke="black" cx="396.865" cy="-48" rx="18" ry="18"/>
</g>
<!-- e9c5b992c&#45;35a8&#45;40d8&#45;b736&#45;9e416290caa2 -->
<g id="e9c5b992c&#45;35a8&#45;40d8&#45;b736&#45;9e416290caa2" class="node"><title>e9c5b992c&#45;35a8&#45;40d8&#45;b736&#45;9e416290caa2</title>
<polygon fill="none" stroke="black" points="527.006,-52 466.362,-52 466.362,-16 527.006,-16 527.006,-52"/>
<text text-anchor="middle" x="496.684" y="-29.8" font-family="Times,serif" font-size="14.00">A__end</text>
</g>
<!-- e78f8a128&#45;d367&#45;43f4&#45;974a&#45;65d15fa0ab80&#45;&gt;e9c5b992c&#45;35a8&#45;40d8&#45;b736&#45;9e416290caa2 -->
<g id="e254d84e1&#45;2053&#45;4338&#45;8665&#45;f3d2c392885a" class="edge"><title>e78f8a128&#45;d367&#45;43f4&#45;974a&#45;65d15fa0ab80&#45;&gt;e9c5b992c&#45;35a8&#45;40d8&#45;b736&#45;9e416290caa2</title>
<path fill="none" stroke="black" d="M414.904,-45.5614C426.268,-43.9349 441.698,-41.7266 456.028,-39.6756"/>
<polygon fill="black" stroke="black" points="456.791,-43.1022 466.194,-38.2206 455.799,-36.1728 456.791,-43.1022"/>
</g>
<!-- eb6e4b6ad&#45;5480&#45;40d0&#45;bd8b&#45;4d5ada96f0f3 -->
<g id="eb6e4b6ad&#45;5480&#45;40d0&#45;bd8b&#45;4d5ada96f0f3" class="node"><title>eb6e4b6ad&#45;5480&#45;40d0&#45;bd8b&#45;4d5ada96f0f3</title>
<ellipse fill="none" stroke="black" cx="753.052" cy="-18" rx="18" ry="18"/>
</g>
<!-- eb6e4b6ad&#45;5480&#45;40d0&#45;bd8b&#45;4d5ada96f0f3&#45;&gt;ee835b5bb&#45;85de&#45;4f9f&#45;82c2&#45;1046c0dccc7f -->
<g id="e36164360&#45;599d&#45;4a34&#45;bece&#45;de6e0dce6edb" class="edge"><title>eb6e4b6ad&#45;5480&#45;40d0&#45;bd8b&#45;4d5ada96f0f3&#45;&gt;ee835b5bb&#45;85de&#45;4f9f&#45;82c2&#45;1046c0dccc7f</title>
<path fill="none" stroke="black" d="M771.332,-17.4498C800.062,-16.5837 859.474,-15 909.767,-15 909.767,-15 909.767,-15 1056.98,-15 1095.71,-15 1138.59,-33.2425 1160.08,-43.7555"/>
<polygon fill="black" stroke="black" points="1158.74,-46.9984 1169.24,-48.411 1161.91,-40.7587 1158.74,-46.9984"/>
</g>
<!-- e77661bd4&#45;06c5&#45;4b83&#45;9e1b&#45;d59c45294fa7&#45;&gt;ef5c0e03d&#45;bb71&#45;41aa&#45;b497&#45;6fa5ed515cc7 -->
<g id="e9df6895c&#45;8b90&#45;4cab&#45;b5d7&#45;aeea15dac101" class="edge"><title>e77661bd4&#45;06c5&#45;4b83&#45;9e1b&#45;d59c45294fa7&#45;&gt;ef5c0e03d&#45;bb71&#45;41aa&#45;b497&#45;6fa5ed515cc7</title>
<path fill="none" stroke="black" d="M136.421,-87C144.734,-87 153.647,-87 161.738,-87"/>
<polygon fill="black" stroke="black" points="161.781,-90.5001 171.781,-87 161.781,-83.5001 161.781,-90.5001"/>
</g>
<!-- ef8a8aaea&#45;d6c1&#45;4c8c&#45;bbdf&#45;bc84024fdc57&#45;&gt;ef750274c&#45;ca72&#45;4cb8&#45;95e3&#45;edc7d3e851ea -->
<g id="e2d8d3ac7&#45;3894&#45;4867&#45;9e8f&#45;8d8239c99db0" class="edge"><title>ef8a8aaea&#45;d6c1&#45;4c8c&#45;bbdf&#45;bc84024fdc57&#45;&gt;ef750274c&#45;ca72&#45;4cb8&#45;95e3&#45;edc7d3e851ea</title>
<path fill="none" stroke="black" d="M255.22,-89.1971C261.403,-92.2084 272.973,-97.8424 283.728,-103.079"/>
<polygon fill="black" stroke="black" points="282.29,-106.272 292.813,-107.503 285.354,-99.9785 282.29,-106.272"/>
</g>
<!-- ef8a8aaea&#45;d6c1&#45;4c8c&#45;bbdf&#45;bc84024fdc57&#45;&gt;e78f8a128&#45;d367&#45;43f4&#45;974a&#45;65d15fa0ab80 -->
<g id="e86dbb39b&#45;6161&#45;419b&#45;ac53&#45;ad81ad0b00b9" class="edge"><title>ef8a8aaea&#45;d6c1&#45;4c8c&#45;bbdf&#45;bc84024fdc57&#45;&gt;e78f8a128&#45;d367&#45;43f4&#45;974a&#45;65d15fa0ab80</title>
<path fill="none" stroke="black" d="M255.211,-85.79C272.284,-81.2029 333.862,-64.6585 369.63,-55.0489"/>
<polygon fill="black" stroke="black" points="370.65,-58.3989 379.399,-52.424 368.834,-51.6386 370.65,-58.3989"/>
</g>
<!-- ee835b5bb&#45;85de&#45;4f9f&#45;82c2&#45;1046c0dccc7f&#45;&gt;e65c1baf7&#45;ad8f&#45;4415&#45;97b6&#45;38ca24ca1f6d -->
<g id="ecf7f9784&#45;e069&#45;4f73&#45;a434&#45;ce238de9ed19" class="edge"><title>ee835b5bb&#45;85de&#45;4f9f&#45;82c2&#45;1046c0dccc7f&#45;&gt;e65c1baf7&#45;ad8f&#45;4415&#45;97b6&#45;38ca24ca1f6d</title>
<path fill="none" stroke="black" d="M1180.49,-51C1186.15,-51 1196.32,-51 1206.25,-51"/>
<polygon fill="black" stroke="black" points="1206.31,-54.5001 1216.31,-51 1206.31,-47.5001 1206.31,-54.5001"/>
</g>
<!-- ec118c7ef&#45;a766&#45;4a0a&#45;8246&#45;535c43ed826d&#45;&gt;ed46ade6e&#45;f6a4&#45;4811&#45;aa88&#45;4e58fee78317 -->
<g id="e63f53409&#45;d6f2&#45;4a27&#45;9ca5&#45;49392d69eb6e" class="edge"><title>ec118c7ef&#45;a766&#45;4a0a&#45;8246&#45;535c43ed826d&#45;&gt;ed46ade6e&#45;f6a4&#45;4811&#45;aa88&#45;4e58fee78317</title>
<path fill="none" stroke="black" d="M686.946,-204.655C705.077,-207.023 770.148,-215 824.052,-215 824.052,-215 824.052,-215 997.481,-215 1051.97,-215 1088.06,-150.981 1104.42,-113.849"/>
<polygon fill="black" stroke="black" points="1107.65,-115.177 1108.33,-104.603 1101.21,-112.45 1107.65,-115.177"/>
</g>
<!-- e63a09afc&#45;a9f8&#45;416a&#45;a0cc&#45;9bd6422fed0f&#45;&gt;e278f6ec9&#45;92b9&#45;4956&#45;a0c7&#45;08363f9a9954 -->
<g id="e9bc396ff&#45;b979&#45;4b8d&#45;b28a&#45;46d246f7f6be" class="edge"><title>e63a09afc&#45;a9f8&#45;416a&#45;a0cc&#45;9bd6422fed0f&#45;&gt;e278f6ec9&#45;92b9&#45;4956&#45;a0c7&#45;08363f9a9954</title>
<path fill="none" stroke="black" d="M430.71,-115C442.948,-115 456.696,-115 468.383,-115"/>
<polygon fill="black" stroke="black" points="468.435,-118.5 478.435,-115 468.435,-111.5 468.435,-118.5"/>
</g>
<!-- eaf463f77&#45;d29a&#45;4dca&#45;b137&#45;70c519ebe9ef&#45;&gt;e8ee0ebc2&#45;58e2&#45;4b8d&#45;aa44&#45;bc060033591e -->
<g id="ebae33f97&#45;c2f0&#45;4a7a&#45;957f&#45;20fe55bbfc57" class="edge"><title>eaf463f77&#45;d29a&#45;4dca&#45;b137&#45;70c519ebe9ef&#45;&gt;e8ee0ebc2&#45;58e2&#45;4b8d&#45;aa44&#45;bc060033591e</title>
<path fill="none" stroke="black" d="M600.47,-122.473C610.733,-116.738 636.402,-102.393 655.835,-91.5333"/>
<polygon fill="black" stroke="black" points="657.757,-94.4688 664.779,-86.5352 654.342,-88.3582 657.757,-94.4688"/>
</g>
<!-- e7d2c7262&#45;98a1&#45;45b3&#45;8efb&#45;2b2ff4538ad1&#45;&gt;e8ee0ebc2&#45;58e2&#45;4b8d&#45;aa44&#45;bc060033591e -->
<g id="e6641ff28&#45;7c84&#45;41b5&#45;86a0&#45;42d01020bdae" class="edge"><title>e7d2c7262&#45;98a1&#45;45b3&#45;8efb&#45;2b2ff4538ad1&#45;&gt;e8ee0ebc2&#45;58e2&#45;4b8d&#45;aa44&#45;bc060033591e</title>
<path fill="none" stroke="black" d="M627.265,-73.6065C635.708,-74.3093 644.77,-75.0635 652.961,-75.7452"/>
<polygon fill="black" stroke="black" points="652.846,-79.2476 663.102,-76.5892 653.427,-72.2718 652.846,-79.2476"/>
</g>
<!-- ef39fc02b&#45;a5e7&#45;46d0&#45;895b&#45;950ee12caf1a&#45;&gt;e1b00b6cd&#45;2322&#45;4d51&#45;a98f&#45;2e4d19cbeeb7 -->
<g id="e997cecf9&#45;0327&#45;42bc&#45;95d0&#45;ebe19b4cd741" class="edge"><title>ef39fc02b&#45;a5e7&#45;46d0&#45;895b&#45;950ee12caf1a&#45;&gt;e1b00b6cd&#45;2322&#45;4d51&#45;a98f&#45;2e4d19cbeeb7</title>
<path fill="none" stroke="black" d="M758.645,-80.4277C766.907,-84.7946 784.811,-94.2584 799.802,-102.182"/>
<polygon fill="black" stroke="black" points="798.17,-105.279 808.647,-106.857 801.442,-99.0898 798.17,-105.279"/>
</g>
<!-- ef39fc02b&#45;a5e7&#45;46d0&#45;895b&#45;950ee12caf1a&#45;&gt;ee3ac8d9e&#45;4170&#45;46ad&#45;ae52&#45;b1026a8be9d2 -->
<g id="ef75790b2&#45;9e58&#45;4ce0&#45;9e22&#45;fae226c28c94" class="edge"><title>ef39fc02b&#45;a5e7&#45;46d0&#45;895b&#45;950ee12caf1a&#45;&gt;ee3ac8d9e&#45;4170&#45;46ad&#45;ae52&#45;b1026a8be9d2</title>
<path fill="none" stroke="black" d="M758.645,-76.8846C766.477,-74.9825 782.975,-70.9758 797.441,-67.4626"/>
<polygon fill="black" stroke="black" points="798.571,-70.7899 807.463,-65.0288 796.919,-63.9877 798.571,-70.7899"/>
</g>
<!-- ef3ea44e1&#45;1c3b&#45;4fe5&#45;b88c&#45;82b847eeb62c&#45;&gt;ed46ade6e&#45;f6a4&#45;4811&#45;aa88&#45;4e58fee78317 -->
<g id="e5f0e0857&#45;8f6b&#45;482b&#45;8740&#45;38051420b12a" class="edge"><title>ef3ea44e1&#45;1c3b&#45;4fe5&#45;b88c&#45;82b847eeb62c&#45;&gt;ed46ade6e&#45;f6a4&#45;4811&#45;aa88&#45;4e58fee78317</title>
<path fill="none" stroke="black" d="M1061.49,-88C1067.15,-88 1077.32,-88 1087.25,-88"/>
<polygon fill="black" stroke="black" points="1087.31,-91.5001 1097.31,-88 1087.31,-84.5001 1087.31,-91.5001"/>
</g>
<!-- e31af1114&#45;9c2c&#45;488e&#45;8c5f&#45;7033c4fec4ce&#45;&gt;e092c531e&#45;0fb9&#45;40a2&#45;833f&#45;a8e5a9cac670 -->
<g id="ec926ff69&#45;e9f2&#45;4673&#45;8484&#45;0180707e9527" class="edge"><title>e31af1114&#45;9c2c&#45;488e&#45;8c5f&#45;7033c4fec4ce&#45;&gt;e092c531e&#45;0fb9&#45;40a2&#45;833f&#45;a8e5a9cac670</title>
<path fill="none" stroke="black" d="M916.267,-166.097C926.646,-159.402 952.856,-142.495 972.301,-129.952"/>
<polygon fill="black" stroke="black" points="974.435,-132.741 980.941,-124.379 970.64,-126.859 974.435,-132.741"/>
</g>
<!-- e2488f367&#45;ea46&#45;429c&#45;849a&#45;e6c2c6bb689e&#45;&gt;e092c531e&#45;0fb9&#45;40a2&#45;833f&#45;a8e5a9cac670 -->
<g id="e15d245b3&#45;251c&#45;4317&#45;a625&#45;414c6c27185d" class="edge"><title>e2488f367&#45;ea46&#45;429c&#45;849a&#45;e6c2c6bb689e&#45;&gt;e092c531e&#45;0fb9&#45;40a2&#45;833f&#45;a8e5a9cac670</title>
<path fill="none" stroke="black" d="M941.046,-115C949.895,-115 959.572,-115 968.28,-115"/>
<polygon fill="black" stroke="black" points="968.3,-118.5 978.3,-115 968.3,-111.5 968.3,-118.5"/>
</g>
<!-- e450256e0&#45;98c8&#45;4884&#45;9f15&#45;432c54a571fa&#45;&gt;e594a98be&#45;5992&#45;4314&#45;91fe&#45;679d2da9ab86 -->
<g id="e0ebbf7ea&#45;5e35&#45;4188&#45;82e0&#45;2961d9b35fd5" class="edge"><title>e450256e0&#45;98c8&#45;4884&#45;9f15&#45;432c54a571fa&#45;&gt;e594a98be&#45;5992&#45;4314&#45;91fe&#45;679d2da9ab86</title>
<path fill="none" stroke="black" d="M942.939,-61C951.121,-61 959.886,-61 967.867,-61"/>
<polygon fill="black" stroke="black" points="968.136,-64.5001 978.135,-61 968.135,-57.5001 968.136,-64.5001"/>
</g>
<!-- e9c5b992c&#45;35a8&#45;40d8&#45;b736&#45;9e416290caa2&#45;&gt;eb6e4b6ad&#45;5480&#45;40d0&#45;bd8b&#45;4d5ada96f0f3 -->
<g id="e1d85c879&#45;bb8b&#45;4b5e&#45;8e78&#45;539e4e222000" class="edge"><title>e9c5b992c&#45;35a8&#45;40d8&#45;b736&#45;9e416290caa2&#45;&gt;eb6e4b6ad&#45;5480&#45;40d0&#45;bd8b&#45;4d5ada96f0f3</title>
<path fill="none" stroke="black" d="M526.863,-32.1646C576.483,-29.0434 676.603,-22.7458 724.847,-19.7112"/>
<polygon fill="black" stroke="black" points="725.098,-23.2024 734.859,-19.0815 724.658,-16.2163 725.098,-23.2024"/>
</g>
</g>
</svg>
