<?xml version="1.0" encoding="UTF-8" standalone="no"?>
<!DOCTYPE svg PUBLIC "-//W3C//DTD SVG 1.1//EN"
 "http://www.w3.org/Graphics/SVG/1.1/DTD/svg11.dtd">
<!-- Generated by graphviz version 2.38.0 (20140413.2041)
 -->
<!-- Title: G Pages: 1 -->
<svg width="2284pt" height="150pt"
 viewBox="0.00 0.00 2283.78 150.00" xmlns="http://www.w3.org/2000/svg" xmlns:xlink="http://www.w3.org/1999/xlink">
<g id="graph0" class="graph" transform="scale(1 1) rotate(0) translate(4 146)">
<title>G</title>
<polygon fill="white" stroke="none" points="-4,4 -4,-146 2279.78,-146 2279.78,4 -4,4"/>
<!-- e8f9255d2&#45;d9ad&#45;41ea&#45;9b04&#45;b9e147056cf0 -->
<g id="e8f9255d2&#45;d9ad&#45;41ea&#45;9b04&#45;b9e147056cf0" class="node"><title>e8f9255d2&#45;d9ad&#45;41ea&#45;9b04&#45;b9e147056cf0</title>
<ellipse fill="green" stroke="black" cx="18" cy="-89" rx="18" ry="18"/>
</g>
<!-- ee8db43d1&#45;5cb1&#45;4a52&#45;9700&#45;00ac067b79f3 -->
<g id="ee8db43d1&#45;5cb1&#45;4a52&#45;9700&#45;00ac067b79f3" class="node"><title>ee8db43d1&#45;5cb1&#45;4a52&#45;9700&#45;00ac067b79f3</title>
<polygon fill="none" stroke="black" points="177.651,-107 71.7824,-107 71.7824,-71 177.651,-71 177.651,-107"/>
<text text-anchor="middle" x="124.717" y="-84.8" font-family="Times,serif" font-size="14.00">A_ACCEPTED</text>
</g>
<!-- e8f9255d2&#45;d9ad&#45;41ea&#45;9b04&#45;b9e147056cf0&#45;&gt;ee8db43d1&#45;5cb1&#45;4a52&#45;9700&#45;00ac067b79f3 -->
<g id="e936429d2&#45;de38&#45;4988&#45;9192&#45;d1c33a793631" class="edge"><title>e8f9255d2&#45;d9ad&#45;41ea&#45;9b04&#45;b9e147056cf0&#45;&gt;ee8db43d1&#45;5cb1&#45;4a52&#45;9700&#45;00ac067b79f3</title>
<path fill="none" stroke="black" d="M36.2918,-89C43.4588,-89 52.2481,-89 61.4617,-89"/>
<polygon fill="black" stroke="black" points="61.5693,-92.5001 71.5693,-89 61.5692,-85.5001 61.5693,-92.5001"/>
</g>
<!-- e8a86235d&#45;90f0&#45;4223&#45;8c86&#45;e5ba1132c76c -->
<g id="e8a86235d&#45;90f0&#45;4223&#45;8c86&#45;e5ba1132c76c" class="node"><title>e8a86235d&#45;90f0&#45;4223&#45;8c86&#45;e5ba1132c76c</title>
<ellipse fill="red" stroke="black" cx="2257.78" cy="-101" rx="18" ry="18"/>
</g>
<!-- e84f62310&#45;a8f1&#45;4fb8&#45;abe0&#45;83e75f454761 -->
<g id="e84f62310&#45;a8f1&#45;4fb8&#45;abe0&#45;83e75f454761" class="node"><title>e84f62310&#45;a8f1&#45;4fb8&#45;abe0&#45;83e75f454761</title>
<ellipse fill="none" stroke="black" cx="231.433" cy="-89" rx="18" ry="18"/>
</g>
<!-- e3a263ee2&#45;1470&#45;48e1&#45;97f8&#45;3da188e65b4e -->
<g id="e3a263ee2&#45;1470&#45;48e1&#45;97f8&#45;3da188e65b4e" class="node"><title>e3a263ee2&#45;1470&#45;48e1&#45;97f8&#45;3da188e65b4e</title>
<polygon fill="#eeeeee" stroke="black" points="296.433,-107 285.433,-107 285.433,-71 296.433,-71 296.433,-107"/>
</g>
<!-- e84f62310&#45;a8f1&#45;4fb8&#45;abe0&#45;83e75f454761&#45;&gt;e3a263ee2&#45;1470&#45;48e1&#45;97f8&#45;3da188e65b4e -->
<g id="e2e837317&#45;d421&#45;4938&#45;a328&#45;ae96052c48e6" class="edge"><title>e84f62310&#45;a8f1&#45;4fb8&#45;abe0&#45;83e75f454761&#45;&gt;e3a263ee2&#45;1470&#45;48e1&#45;97f8&#45;3da188e65b4e</title>
<path fill="none" stroke="black" d="M249.685,-89C257.674,-89 267.081,-89 274.791,-89"/>
<polygon fill="black" stroke="black" points="275.062,-92.5001 285.062,-89 275.062,-85.5001 275.062,-92.5001"/>
</g>
<!-- e4185e002&#45;eb3f&#45;4b14&#45;bcad&#45;43b302705bc6 -->
<g id="e4185e002&#45;eb3f&#45;4b14&#45;bcad&#45;43b302705bc6" class="node"><title>e4185e002&#45;eb3f&#45;4b14&#45;bcad&#45;43b302705bc6</title>
<ellipse fill="none" stroke="black" cx="683.621" cy="-89" rx="18" ry="18"/>
</g>
<!-- e73cf3fad&#45;1d11&#45;4c05&#45;b84d&#45;61cca4b099d4 -->
<g id="e73cf3fad&#45;1d11&#45;4c05&#45;b84d&#45;61cca4b099d4" class="node"><title>e73cf3fad&#45;1d11&#45;4c05&#45;b84d&#45;61cca4b099d4</title>
<polygon fill="none" stroke="black" points="835.098,-107 737.795,-107 737.795,-71 835.098,-71 835.098,-107"/>
<text text-anchor="middle" x="786.447" y="-84.8" font-family="Times,serif" font-size="14.00">O_CREATED</text>
</g>
<!-- e4185e002&#45;eb3f&#45;4b14&#45;bcad&#45;43b302705bc6&#45;&gt;e73cf3fad&#45;1d11&#45;4c05&#45;b84d&#45;61cca4b099d4 -->
<g id="e345f95dd&#45;7945&#45;4a38&#45;9a23&#45;4b4b59b5cedf" class="edge"><title>e4185e002&#45;eb3f&#45;4b14&#45;bcad&#45;43b302705bc6&#45;&gt;e73cf3fad&#45;1d11&#45;4c05&#45;b84d&#45;61cca4b099d4</title>
<path fill="none" stroke="black" d="M701.725,-89C708.987,-89 717.917,-89 727.212,-89"/>
<polygon fill="black" stroke="black" points="727.378,-92.5001 737.378,-89 727.378,-85.5001 727.378,-92.5001"/>
</g>
<!-- ec7f3f4ca&#45;88f1&#45;4f53&#45;9084&#45;44b94d4a1448 -->
<g id="ec7f3f4ca&#45;88f1&#45;4f53&#45;9084&#45;44b94d4a1448" class="node"><title>ec7f3f4ca&#45;88f1&#45;4f53&#45;9084&#45;44b94d4a1448</title>
<ellipse fill="none" stroke="black" cx="350.433" cy="-116" rx="18" ry="18"/>
</g>
<!-- ee4b6b3c5&#45;d65f&#45;4607&#45;888a&#45;a6e22d6d0c23 -->
<g id="ee4b6b3c5&#45;d65f&#45;4607&#45;888a&#45;a6e22d6d0c23" class="node"><title>ee4b6b3c5&#45;d65f&#45;4607&#45;888a&#45;a6e22d6d0c23</title>
<polygon fill="none" stroke="black" points="509.123,-134 405.932,-134 405.932,-98 509.123,-98 509.123,-134"/>
<text text-anchor="middle" x="457.527" y="-111.8" font-family="Times,serif" font-size="14.00">O_SELECTED</text>
</g>
<!-- ec7f3f4ca&#45;88f1&#45;4f53&#45;9084&#45;44b94d4a1448&#45;&gt;ee4b6b3c5&#45;d65f&#45;4607&#45;888a&#45;a6e22d6d0c23 -->
<g id="ef3ae5d75&#45;ddfd&#45;4ded&#45;b1ad&#45;e6eb89dd83b7" class="edge"><title>ec7f3f4ca&#45;88f1&#45;4f53&#45;9084&#45;44b94d4a1448&#45;&gt;ee4b6b3c5&#45;d65f&#45;4607&#45;888a&#45;a6e22d6d0c23</title>
<path fill="none" stroke="black" d="M368.788,-116C376.316,-116 385.629,-116 395.347,-116"/>
<polygon fill="black" stroke="black" points="395.563,-119.5 405.563,-116 395.563,-112.5 395.563,-119.5"/>
</g>
<!-- ef918722c&#45;1c39&#45;4f8e&#45;b89b&#45;bf8023cbb384 -->
<g id="ef918722c&#45;1c39&#45;4f8e&#45;b89b&#45;bf8023cbb384" class="node"><title>ef918722c&#45;1c39&#45;4f8e&#45;b89b&#45;bf8023cbb384</title>
<ellipse fill="none" stroke="black" cx="564.621" cy="-116" rx="18" ry="18"/>
</g>
<!-- eebe3043b&#45;902c&#45;4445&#45;92ec&#45;2b33ffccfcf6 -->
<g id="eebe3043b&#45;902c&#45;4445&#45;92ec&#45;2b33ffccfcf6" class="node"><title>eebe3043b&#45;902c&#45;4445&#45;92ec&#45;2b33ffccfcf6</title>
<polygon fill="#eeeeee" stroke="black" points="629.621,-107 618.621,-107 618.621,-71 629.621,-71 629.621,-107"/>
</g>
<!-- ef918722c&#45;1c39&#45;4f8e&#45;b89b&#45;bf8023cbb384&#45;&gt;eebe3043b&#45;902c&#45;4445&#45;92ec&#45;2b33ffccfcf6 -->
<g id="e789ffcbf&#45;5bc4&#45;4e60&#45;852e&#45;88c0189bd960" class="edge"><title>ef918722c&#45;1c39&#45;4f8e&#45;b89b&#45;bf8023cbb384&#45;&gt;eebe3043b&#45;902c&#45;4445&#45;92ec&#45;2b33ffccfcf6</title>
<path fill="none" stroke="black" d="M581.334,-108.622C590.124,-104.494 600.978,-99.3976 609.421,-95.4331"/>
<polygon fill="black" stroke="black" points="610.925,-98.5938 618.489,-91.1753 607.949,-92.2576 610.925,-98.5938"/>
</g>
<!-- eb0411b05&#45;1cc3&#45;481c&#45;ae41&#45;842e0b4305db -->
<g id="eb0411b05&#45;1cc3&#45;481c&#45;ae41&#45;842e0b4305db" class="node"><title>eb0411b05&#45;1cc3&#45;481c&#45;ae41&#45;842e0b4305db</title>
<ellipse fill="none" stroke="black" cx="350.433" cy="-62" rx="18" ry="18"/>
</g>
<!-- e93901b5e&#45;809e&#45;4589&#45;89eb&#45;5d9a8e8d4236 -->
<g id="e93901b5e&#45;809e&#45;4589&#45;89eb&#45;5d9a8e8d4236" class="node"><title>e93901b5e&#45;809e&#45;4589&#45;89eb&#45;5d9a8e8d4236</title>
<polygon fill="none" stroke="black" points="510.716,-80 404.339,-80 404.339,-44 510.716,-44 510.716,-80"/>
<text text-anchor="middle" x="457.527" y="-57.8" font-family="Times,serif" font-size="14.00">A_FINALIZED</text>
</g>
<!-- eb0411b05&#45;1cc3&#45;481c&#45;ae41&#45;842e0b4305db&#45;&gt;e93901b5e&#45;809e&#45;4589&#45;89eb&#45;5d9a8e8d4236 -->
<g id="e5a9d6229&#45;5545&#45;435a&#45;b93f&#45;16f1cb7a2992" class="edge"><title>eb0411b05&#45;1cc3&#45;481c&#45;ae41&#45;842e0b4305db&#45;&gt;e93901b5e&#45;809e&#45;4589&#45;89eb&#45;5d9a8e8d4236</title>
<path fill="none" stroke="black" d="M368.788,-62C375.98,-62 384.801,-62 394.048,-62"/>
<polygon fill="black" stroke="black" points="394.192,-65.5001 404.192,-62 394.192,-58.5001 394.192,-65.5001"/>
</g>
<!-- e4ea1d788&#45;d3fa&#45;432a&#45;b3e6&#45;fe6b278fff8a -->
<g id="e4ea1d788&#45;d3fa&#45;432a&#45;b3e6&#45;fe6b278fff8a" class="node"><title>e4ea1d788&#45;d3fa&#45;432a&#45;b3e6&#45;fe6b278fff8a</title>
<ellipse fill="none" stroke="black" cx="564.621" cy="-62" rx="18" ry="18"/>
</g>
<!-- e4ea1d788&#45;d3fa&#45;432a&#45;b3e6&#45;fe6b278fff8a&#45;&gt;eebe3043b&#45;902c&#45;4445&#45;92ec&#45;2b33ffccfcf6 -->
<g id="e90f437a7&#45;7b1b&#45;4206&#45;92da&#45;cabfb4a1d334" class="edge"><title>e4ea1d788&#45;d3fa&#45;432a&#45;b3e6&#45;fe6b278fff8a&#45;&gt;eebe3043b&#45;902c&#45;4445&#45;92ec&#45;2b33ffccfcf6</title>
<path fill="none" stroke="black" d="M581.334,-69.3779C590.124,-73.5057 600.978,-78.6024 609.421,-82.5669"/>
<polygon fill="black" stroke="black" points="607.949,-85.7424 618.489,-86.8247 610.925,-79.4062 607.949,-85.7424"/>
</g>
<!-- e9a26d457&#45;6128&#45;4e81&#45;b5bf&#45;70821f9893a5 -->
<g id="e9a26d457&#45;6128&#45;4e81&#45;b5bf&#45;70821f9893a5" class="node"><title>e9a26d457&#45;6128&#45;4e81&#45;b5bf&#45;70821f9893a5</title>
<ellipse fill="none" stroke="black" cx="889.272" cy="-89" rx="18" ry="18"/>
</g>
<!-- ed9450daa&#45;a907&#45;45ad&#45;83f2&#45;04fcd28b0a1c -->
<g id="ed9450daa&#45;a907&#45;45ad&#45;83f2&#45;04fcd28b0a1c" class="node"><title>ed9450daa&#45;a907&#45;45ad&#45;83f2&#45;04fcd28b0a1c</title>
<polygon fill="none" stroke="black" points="1011.42,-107 943.222,-107 943.222,-71 1011.42,-71 1011.42,-107"/>
<text text-anchor="middle" x="977.323" y="-84.8" font-family="Times,serif" font-size="14.00">O_SENT</text>
</g>
<!-- e9a26d457&#45;6128&#45;4e81&#45;b5bf&#45;70821f9893a5&#45;&gt;ed9450daa&#45;a907&#45;45ad&#45;83f2&#45;04fcd28b0a1c -->
<g id="e2d94e119&#45;a7e8&#45;4458&#45;9f1e&#45;efb52c2920a2" class="edge"><title>e9a26d457&#45;6128&#45;4e81&#45;b5bf&#45;70821f9893a5&#45;&gt;ed9450daa&#45;a907&#45;45ad&#45;83f2&#45;04fcd28b0a1c</title>
<path fill="none" stroke="black" d="M907.273,-89C914.675,-89 923.723,-89 932.801,-89"/>
<polygon fill="black" stroke="black" points="932.976,-92.5001 942.976,-89 932.976,-85.5001 932.976,-92.5001"/>
</g>
<!-- e470a2993&#45;6f10&#45;4243&#45;bf98&#45;964222a5fab8 -->
<g id="e470a2993&#45;6f10&#45;4243&#45;bf98&#45;964222a5fab8" class="node"><title>e470a2993&#45;6f10&#45;4243&#45;bf98&#45;964222a5fab8</title>
<ellipse fill="none" stroke="black" cx="1065.37" cy="-89" rx="18" ry="18"/>
</g>
<!-- e49182b39&#45;becc&#45;47d3&#45;a03c&#45;4ea338c83cef -->
<g id="e49182b39&#45;becc&#45;47d3&#45;a03c&#45;4ea338c83cef" class="node"><title>e49182b39&#45;becc&#45;47d3&#45;a03c&#45;4ea338c83cef</title>
<polygon fill="#eeeeee" stroke="black" points="1181.87,-134 1170.87,-134 1170.87,-98 1181.87,-98 1181.87,-134"/>
</g>
<!-- e470a2993&#45;6f10&#45;4243&#45;bf98&#45;964222a5fab8&#45;&gt;e49182b39&#45;becc&#45;47d3&#45;a03c&#45;4ea338c83cef -->
<g id="e41676494&#45;bcf2&#45;4848&#45;ab6e&#45;582332f3eb46" class="edge"><title>e470a2993&#45;6f10&#45;4243&#45;bf98&#45;964222a5fab8&#45;&gt;e49182b39&#45;becc&#45;47d3&#45;a03c&#45;4ea338c83cef</title>
<path fill="none" stroke="black" d="M1082.93,-93.1007C1104.23,-98.3788 1140.9,-107.462 1161.06,-112.455"/>
<polygon fill="black" stroke="black" points="1160.23,-115.856 1170.78,-114.863 1161.91,-109.061 1160.23,-115.856"/>
</g>
<!-- e2b35e395&#45;1e60&#45;4d47&#45;8796&#45;bc92934cfe23 -->
<g id="e2b35e395&#45;1e60&#45;4d47&#45;8796&#45;bc92934cfe23" class="node"><title>e2b35e395&#45;1e60&#45;4d47&#45;8796&#45;bc92934cfe23</title>
<polygon fill="none" stroke="black" points="1233.35,-80 1119.38,-80 1119.38,-44 1233.35,-44 1233.35,-80"/>
<text text-anchor="middle" x="1176.37" y="-57.8" font-family="Times,serif" font-size="14.00">O_SENT_BACK</text>
</g>
<!-- e470a2993&#45;6f10&#45;4243&#45;bf98&#45;964222a5fab8&#45;&gt;e2b35e395&#45;1e60&#45;4d47&#45;8796&#45;bc92934cfe23 -->
<g id="efe271a3a&#45;7e16&#45;4bf9&#45;8a09&#45;0c65d10c72e6" class="edge"><title>e470a2993&#45;6f10&#45;4243&#45;bf98&#45;964222a5fab8&#45;&gt;e2b35e395&#45;1e60&#45;4d47&#45;8796&#45;bc92934cfe23</title>
<path fill="none" stroke="black" d="M1082.93,-84.8993C1090.34,-83.0626 1099.62,-80.7652 1109.41,-78.3396"/>
<polygon fill="black" stroke="black" points="1110.46,-81.6856 1119.32,-75.8837 1108.77,-74.891 1110.46,-81.6856"/>
</g>
<!-- e6a0c478f&#45;e161&#45;42ff&#45;8105&#45;76e6404db05c -->
<g id="e6a0c478f&#45;e161&#45;42ff&#45;8105&#45;76e6404db05c" class="node"><title>e6a0c478f&#45;e161&#45;42ff&#45;8105&#45;76e6404db05c</title>
<ellipse fill="none" stroke="black" cx="1287.36" cy="-89" rx="18" ry="18"/>
</g>
<!-- e4c68d479&#45;dc84&#45;4ca5&#45;be71&#45;4bc0645bf640 -->
<g id="e4c68d479&#45;dc84&#45;4ca5&#45;be71&#45;4bc0645bf640" class="node"><title>e4c68d479&#45;dc84&#45;4ca5&#45;be71&#45;4bc0645bf640</title>
<polygon fill="#eeeeee" stroke="black" points="1411.86,-136 1400.86,-136 1400.86,-100 1411.86,-100 1411.86,-136"/>
</g>
<!-- e6a0c478f&#45;e161&#45;42ff&#45;8105&#45;76e6404db05c&#45;&gt;e4c68d479&#45;dc84&#45;4ca5&#45;be71&#45;4bc0645bf640 -->
<g id="ed4be89cd&#45;b23e&#45;499d&#45;837f&#45;24181e816900" class="edge"><title>e6a0c478f&#45;e161&#45;42ff&#45;8105&#45;76e6404db05c&#45;&gt;e4c68d479&#45;dc84&#45;4ca5&#45;be71&#45;4bc0645bf640</title>
<path fill="none" stroke="black" d="M1305.12,-93.155C1328.16,-98.8637 1369.2,-109.036 1390.93,-114.423"/>
<polygon fill="black" stroke="black" points="1390.23,-117.857 1400.78,-116.865 1391.92,-111.062 1390.23,-117.857"/>
</g>
<!-- ec9e2e1e0&#45;b6f9&#45;4c09&#45;9769&#45;6aff5c6e0490 -->
<g id="ec9e2e1e0&#45;b6f9&#45;4c09&#45;9769&#45;6aff5c6e0490" class="node"><title>ec9e2e1e0&#45;b6f9&#45;4c09&#45;9769&#45;6aff5c6e0490</title>
<polygon fill="#eeeeee" stroke="black" points="1352.36,-84 1341.36,-84 1341.36,-48 1352.36,-48 1352.36,-84"/>
</g>
<!-- e6a0c478f&#45;e161&#45;42ff&#45;8105&#45;76e6404db05c&#45;&gt;ec9e2e1e0&#45;b6f9&#45;4c09&#45;9769&#45;6aff5c6e0490 -->
<g id="e7554c3f9&#45;203b&#45;4d4c&#45;af0c&#45;179d9d2661e4" class="edge"><title>e6a0c478f&#45;e161&#45;42ff&#45;8105&#45;76e6404db05c&#45;&gt;ec9e2e1e0&#45;b6f9&#45;4c09&#45;9769&#45;6aff5c6e0490</title>
<path fill="none" stroke="black" d="M1304.38,-82.5932C1312.97,-79.1572 1323.46,-74.9611 1331.74,-71.6482"/>
<polygon fill="black" stroke="black" points="1333.29,-74.7961 1341.28,-67.8324 1330.69,-68.2967 1333.29,-74.7961"/>
</g>
<!-- e9d2865aa&#45;1aa7&#45;4153&#45;9256&#45;d67b935bd3ad -->
<g id="e9d2865aa&#45;1aa7&#45;4153&#45;9256&#45;d67b935bd3ad" class="node"><title>e9d2865aa&#45;1aa7&#45;4153&#45;9256&#45;d67b935bd3ad</title>
<ellipse fill="none" stroke="black" cx="1778.79" cy="-95" rx="18" ry="18"/>
</g>
<!-- eca90c577&#45;6be1&#45;4037&#45;96c5&#45;89d5f9bbd6e1 -->
<g id="eca90c577&#45;6be1&#45;4037&#45;96c5&#45;89d5f9bbd6e1" class="node"><title>eca90c577&#45;6be1&#45;4037&#45;96c5&#45;89d5f9bbd6e1</title>
<polygon fill="#eeeeee" stroke="black" points="1903.29,-142 1892.29,-142 1892.29,-106 1903.29,-106 1903.29,-142"/>
</g>
<!-- e9d2865aa&#45;1aa7&#45;4153&#45;9256&#45;d67b935bd3ad&#45;&gt;eca90c577&#45;6be1&#45;4037&#45;96c5&#45;89d5f9bbd6e1 -->
<g id="e8ec14043&#45;e449&#45;4b5e&#45;8590&#45;7805e9c4e21c" class="edge"><title>e9d2865aa&#45;1aa7&#45;4153&#45;9256&#45;d67b935bd3ad&#45;&gt;eca90c577&#45;6be1&#45;4037&#45;96c5&#45;89d5f9bbd6e1</title>
<path fill="none" stroke="black" d="M1796.55,-99.155C1819.58,-104.864 1860.62,-115.036 1882.36,-120.423"/>
<polygon fill="black" stroke="black" points="1881.66,-123.857 1892.21,-122.865 1883.34,-117.062 1881.66,-123.857"/>
</g>
<!-- e81e13bb0&#45;99d8&#45;4332&#45;8389&#45;abfac9752521 -->
<g id="e81e13bb0&#45;99d8&#45;4332&#45;8389&#45;abfac9752521" class="node"><title>e81e13bb0&#45;99d8&#45;4332&#45;8389&#45;abfac9752521</title>
<polygon fill="#eeeeee" stroke="black" points="1843.79,-90 1832.79,-90 1832.79,-54 1843.79,-54 1843.79,-90"/>
</g>
<!-- e9d2865aa&#45;1aa7&#45;4153&#45;9256&#45;d67b935bd3ad&#45;&gt;e81e13bb0&#45;99d8&#45;4332&#45;8389&#45;abfac9752521 -->
<g id="e92c3e20a&#45;1cec&#45;4453&#45;8092&#45;958778f3ae7d" class="edge"><title>e9d2865aa&#45;1aa7&#45;4153&#45;9256&#45;d67b935bd3ad&#45;&gt;e81e13bb0&#45;99d8&#45;4332&#45;8389&#45;abfac9752521</title>
<path fill="none" stroke="black" d="M1795.8,-88.5932C1804.39,-85.1572 1814.88,-80.9611 1823.17,-77.6482"/>
<polygon fill="black" stroke="black" points="1824.72,-80.7961 1832.71,-73.8324 1822.12,-74.2967 1824.72,-80.7961"/>
</g>
<!-- ead36d5df&#45;bcaf&#45;472a&#45;a69a&#45;5a4b5f8d0c3d -->
<g id="ead36d5df&#45;bcaf&#45;472a&#45;a69a&#45;5a4b5f8d0c3d" class="node"><title>ead36d5df&#45;bcaf&#45;472a&#45;a69a&#45;5a4b5f8d0c3d</title>
<ellipse fill="none" stroke="black" cx="1659.79" cy="-64" rx="18" ry="18"/>
</g>
<!-- e5e3a6f7c&#45;ab9b&#45;42f0&#45;ba32&#45;9d9b8ef00dde -->
<g id="e5e3a6f7c&#45;ab9b&#45;42f0&#45;ba32&#45;9d9b8ef00dde" class="node"><title>e5e3a6f7c&#45;ab9b&#45;42f0&#45;ba32&#45;9d9b8ef00dde</title>
<polygon fill="#eeeeee" stroke="black" points="1724.79,-36 1713.79,-36 1713.79,-0 1724.79,-0 1724.79,-36"/>
</g>
<!-- ead36d5df&#45;bcaf&#45;472a&#45;a69a&#45;5a4b5f8d0c3d&#45;&gt;e5e3a6f7c&#45;ab9b&#45;42f0&#45;ba32&#45;9d9b8ef00dde -->
<g id="ea6d064f2&#45;4565&#45;47c2&#45;ada9&#45;2d284f9cc14b" class="edge"><title>ead36d5df&#45;bcaf&#45;472a&#45;a69a&#45;5a4b5f8d0c3d&#45;&gt;e5e3a6f7c&#45;ab9b&#45;42f0&#45;ba32&#45;9d9b8ef00dde</title>
<path fill="none" stroke="black" d="M1674.41,-53.0986C1683.88,-45.5268 1696.4,-35.5092 1705.64,-28.1149"/>
<polygon fill="black" stroke="black" points="1707.94,-30.7627 1713.56,-21.7827 1703.56,-25.2966 1707.94,-30.7627"/>
</g>
<!-- e552d9445&#45;ec74&#45;4ea1&#45;8e61&#45;df6cc22e80b4 -->
<g id="e552d9445&#45;ec74&#45;4ea1&#45;8e61&#45;df6cc22e80b4" class="node"><title>e552d9445&#45;ec74&#45;4ea1&#45;8e61&#45;df6cc22e80b4</title>
<polygon fill="#eeeeee" stroke="black" points="1724.79,-90 1713.79,-90 1713.79,-54 1724.79,-54 1724.79,-90"/>
</g>
<!-- ead36d5df&#45;bcaf&#45;472a&#45;a69a&#45;5a4b5f8d0c3d&#45;&gt;e552d9445&#45;ec74&#45;4ea1&#45;8e61&#45;df6cc22e80b4 -->
<g id="e504d2096&#45;1309&#45;40f8&#45;887b&#45;f509d917a9b3" class="edge"><title>ead36d5df&#45;bcaf&#45;472a&#45;a69a&#45;5a4b5f8d0c3d&#45;&gt;e552d9445&#45;ec74&#45;4ea1&#45;8e61&#45;df6cc22e80b4</title>
<path fill="none" stroke="black" d="M1677.73,-66.357C1685.82,-67.4833 1695.43,-68.82 1703.26,-69.9096"/>
<polygon fill="black" stroke="black" points="1702.97,-73.403 1713.36,-71.3145 1703.94,-66.4697 1702.97,-73.403"/>
</g>
<!-- ec041207c&#45;46b5&#45;4621&#45;a013&#45;c9d0aabaacfd -->
<g id="ec041207c&#45;46b5&#45;4621&#45;a013&#45;c9d0aabaacfd" class="node"><title>ec041207c&#45;46b5&#45;4621&#45;a013&#45;c9d0aabaacfd</title>
<ellipse fill="none" stroke="black" cx="1406.36" cy="-64" rx="18" ry="18"/>
</g>
<!-- ecba87495&#45;ace9&#45;46dd&#45;ac9f&#45;cde3444c52e5 -->
<g id="ecba87495&#45;ace9&#45;46dd&#45;ac9f&#45;cde3444c52e5" class="node"><title>ecba87495&#45;ace9&#45;46dd&#45;ac9f&#45;cde3444c52e5</title>
<polygon fill="none" stroke="black" points="1606,-82 1460.15,-82 1460.15,-46 1606,-46 1606,-82"/>
<text text-anchor="middle" x="1533.07" y="-59.8" font-family="Times,serif" font-size="14.00">W_Valideren aanvraag</text>
</g>
<!-- ec041207c&#45;46b5&#45;4621&#45;a013&#45;c9d0aabaacfd&#45;&gt;ecba87495&#45;ace9&#45;46dd&#45;ac9f&#45;cde3444c52e5 -->
<g id="e48ff8a8a&#45;0022&#45;43e2&#45;95ac&#45;a23d12a4ace2" class="edge"><title>ec041207c&#45;46b5&#45;4621&#45;a013&#45;c9d0aabaacfd&#45;&gt;ecba87495&#45;ace9&#45;46dd&#45;ac9f&#45;cde3444c52e5</title>
<path fill="none" stroke="black" d="M1424.44,-64C1431.62,-64 1440.54,-64 1450.14,-64"/>
<polygon fill="black" stroke="black" points="1450.36,-67.5001 1460.36,-64 1450.36,-60.5001 1450.36,-67.5001"/>
</g>
<!-- e6422cda2&#45;62bd&#45;4345&#45;8fe3&#45;83c1fa552513 -->
<g id="e6422cda2&#45;62bd&#45;4345&#45;8fe3&#45;83c1fa552513" class="node"><title>e6422cda2&#45;62bd&#45;4345&#45;8fe3&#45;83c1fa552513</title>
<ellipse fill="none" stroke="black" cx="2138.78" cy="-70" rx="18" ry="18"/>
</g>
<!-- e2cc706fe&#45;6a86&#45;428d&#45;9a66&#45;1b1e9603f835 -->
<g id="e2cc706fe&#45;6a86&#45;428d&#45;9a66&#45;1b1e9603f835" class="node"><title>e2cc706fe&#45;6a86&#45;428d&#45;9a66&#45;1b1e9603f835</title>
<polygon fill="#eeeeee" stroke="black" points="2203.78,-42 2192.78,-42 2192.78,-6 2203.78,-6 2203.78,-42"/>
</g>
<!-- e6422cda2&#45;62bd&#45;4345&#45;8fe3&#45;83c1fa552513&#45;&gt;e2cc706fe&#45;6a86&#45;428d&#45;9a66&#45;1b1e9603f835 -->
<g id="e3de0d224&#45;e2e5&#45;4ad8&#45;87a6&#45;fc76a1ce0c58" class="edge"><title>e6422cda2&#45;62bd&#45;4345&#45;8fe3&#45;83c1fa552513&#45;&gt;e2cc706fe&#45;6a86&#45;428d&#45;9a66&#45;1b1e9603f835</title>
<path fill="none" stroke="black" d="M2153.41,-59.0986C2162.87,-51.5268 2175.39,-41.5092 2184.64,-34.1149"/>
<polygon fill="black" stroke="black" points="2186.93,-36.7627 2192.55,-27.7827 2182.56,-31.2966 2186.93,-36.7627"/>
</g>
<!-- e61c94181&#45;c1d6&#45;4e77&#45;861d&#45;2e720733ebaf -->
<g id="e61c94181&#45;c1d6&#45;4e77&#45;861d&#45;2e720733ebaf" class="node"><title>e61c94181&#45;c1d6&#45;4e77&#45;861d&#45;2e720733ebaf</title>
<polygon fill="#eeeeee" stroke="black" points="2203.78,-96 2192.78,-96 2192.78,-60 2203.78,-60 2203.78,-96"/>
</g>
<!-- e6422cda2&#45;62bd&#45;4345&#45;8fe3&#45;83c1fa552513&#45;&gt;e61c94181&#45;c1d6&#45;4e77&#45;861d&#45;2e720733ebaf -->
<g id="ea284e2bb&#45;110a&#45;46c1&#45;baff&#45;1a4ccffa6537" class="edge"><title>e6422cda2&#45;62bd&#45;4345&#45;8fe3&#45;83c1fa552513&#45;&gt;e61c94181&#45;c1d6&#45;4e77&#45;861d&#45;2e720733ebaf</title>
<path fill="none" stroke="black" d="M2156.72,-72.357C2164.82,-73.4833 2174.42,-74.82 2182.25,-75.9096"/>
<polygon fill="black" stroke="black" points="2181.96,-79.403 2192.35,-77.3145 2182.93,-72.4697 2181.96,-79.403"/>
</g>
<!-- e7539cb6b&#45;7e8c&#45;4f7c&#45;9fcc&#45;204e666d78c9 -->
<g id="e7539cb6b&#45;7e8c&#45;4f7c&#45;9fcc&#45;204e666d78c9" class="node"><title>e7539cb6b&#45;7e8c&#45;4f7c&#45;9fcc&#45;204e666d78c9</title>
<ellipse fill="none" stroke="black" cx="1897.79" cy="-70" rx="18" ry="18"/>
</g>
<!-- eb1ee8cc3&#45;50da&#45;4814&#45;84d6&#45;fe05473c4e91 -->
<g id="eb1ee8cc3&#45;50da&#45;4814&#45;84d6&#45;fe05473c4e91" class="node"><title>eb1ee8cc3&#45;50da&#45;4814&#45;84d6&#45;fe05473c4e91</title>
<polygon fill="none" stroke="black" points="2084.78,-88 1951.79,-88 1951.79,-52 2084.78,-52 2084.78,-88"/>
<text text-anchor="middle" x="2018.28" y="-65.8" font-family="Times,serif" font-size="14.00">W_Nabellen offertes</text>
</g>
<!-- e7539cb6b&#45;7e8c&#45;4f7c&#45;9fcc&#45;204e666d78c9&#45;&gt;eb1ee8cc3&#45;50da&#45;4814&#45;84d6&#45;fe05473c4e91 -->
<g id="ef1e06dc3&#45;58b2&#45;4ec7&#45;927f&#45;aef0f4bc44a1" class="edge"><title>e7539cb6b&#45;7e8c&#45;4f7c&#45;9fcc&#45;204e666d78c9&#45;&gt;eb1ee8cc3&#45;50da&#45;4814&#45;84d6&#45;fe05473c4e91</title>
<path fill="none" stroke="black" d="M1916.02,-70C1923.21,-70 1932.11,-70 1941.62,-70"/>
<polygon fill="black" stroke="black" points="1941.7,-73.5001 1951.7,-70 1941.7,-66.5001 1941.7,-73.5001"/>
</g>
<!-- ee8db43d1&#45;5cb1&#45;4a52&#45;9700&#45;00ac067b79f3&#45;&gt;e84f62310&#45;a8f1&#45;4fb8&#45;abe0&#45;83e75f454761 -->
<g id="e2c878026&#45;8fc8&#45;4296&#45;af45&#45;43904c280b00" class="edge"><title>ee8db43d1&#45;5cb1&#45;4a52&#45;9700&#45;00ac067b79f3&#45;&gt;e84f62310&#45;a8f1&#45;4fb8&#45;abe0&#45;83e75f454761</title>
<path fill="none" stroke="black" d="M177.461,-89C186.389,-89 195.34,-89 203.276,-89"/>
<polygon fill="black" stroke="black" points="203.372,-92.5001 213.372,-89 203.372,-85.5001 203.372,-92.5001"/>
</g>
<!-- e3a263ee2&#45;1470&#45;48e1&#45;97f8&#45;3da188e65b4e&#45;&gt;ec7f3f4ca&#45;88f1&#45;4f53&#45;9084&#45;44b94d4a1448 -->
<g id="e3337480d&#45;b6aa&#45;4e71&#45;90e6&#45;e4dc6703c9ce" class="edge"><title>e3a263ee2&#45;1470&#45;48e1&#45;97f8&#45;3da188e65b4e&#45;&gt;ec7f3f4ca&#45;88f1&#45;4f53&#45;9084&#45;44b94d4a1448</title>
<path fill="none" stroke="black" d="M296.445,-91.1186C302.526,-93.974 313.815,-99.2749 324.415,-104.252"/>
<polygon fill="black" stroke="black" points="323.248,-107.571 333.788,-108.653 326.224,-101.235 323.248,-107.571"/>
</g>
<!-- e3a263ee2&#45;1470&#45;48e1&#45;97f8&#45;3da188e65b4e&#45;&gt;eb0411b05&#45;1cc3&#45;481c&#45;ae41&#45;842e0b4305db -->
<g id="e57f5a6dc&#45;9631&#45;40be&#45;a814&#45;6a81623d0974" class="edge"><title>e3a263ee2&#45;1470&#45;48e1&#45;97f8&#45;3da188e65b4e&#45;&gt;eb0411b05&#45;1cc3&#45;481c&#45;ae41&#45;842e0b4305db</title>
<path fill="none" stroke="black" d="M296.445,-86.8814C302.526,-84.026 313.815,-78.7251 324.415,-73.7476"/>
<polygon fill="black" stroke="black" points="326.224,-76.7652 333.788,-69.3467 323.248,-70.429 326.224,-76.7652"/>
</g>
<!-- eebe3043b&#45;902c&#45;4445&#45;92ec&#45;2b33ffccfcf6&#45;&gt;e4185e002&#45;eb3f&#45;4b14&#45;bcad&#45;43b302705bc6 -->
<g id="e4fd8768e&#45;d55f&#45;42b8&#45;b7a2&#45;75ade224fc3e" class="edge"><title>eebe3043b&#45;902c&#45;4445&#45;92ec&#45;2b33ffccfcf6&#45;&gt;e4185e002&#45;eb3f&#45;4b14&#45;bcad&#45;43b302705bc6</title>
<path fill="none" stroke="black" d="M629.633,-89C635.292,-89 645.462,-89 655.389,-89"/>
<polygon fill="black" stroke="black" points="655.447,-92.5001 665.447,-89 655.447,-85.5001 655.447,-92.5001"/>
</g>
<!-- ee4b6b3c5&#45;d65f&#45;4607&#45;888a&#45;a6e22d6d0c23&#45;&gt;ef918722c&#45;1c39&#45;4f8e&#45;b89b&#45;bf8023cbb384 -->
<g id="e92969edd&#45;cc05&#45;4605&#45;bcad&#45;5df4c1ed14ef" class="edge"><title>ee4b6b3c5&#45;d65f&#45;4607&#45;888a&#45;a6e22d6d0c23&#45;&gt;ef918722c&#45;1c39&#45;4f8e&#45;b89b&#45;bf8023cbb384</title>
<path fill="none" stroke="black" d="M509.227,-116C518.57,-116 527.992,-116 536.307,-116"/>
<polygon fill="black" stroke="black" points="536.502,-119.5 546.502,-116 536.502,-112.5 536.502,-119.5"/>
</g>
<!-- e93901b5e&#45;809e&#45;4589&#45;89eb&#45;5d9a8e8d4236&#45;&gt;e4ea1d788&#45;d3fa&#45;432a&#45;b3e6&#45;fe6b278fff8a -->
<g id="e6dda9678&#45;7228&#45;4769&#45;8ae9&#45;082c2f5f68ee" class="edge"><title>e93901b5e&#45;809e&#45;4589&#45;89eb&#45;5d9a8e8d4236&#45;&gt;e4ea1d788&#45;d3fa&#45;432a&#45;b3e6&#45;fe6b278fff8a</title>
<path fill="none" stroke="black" d="M510.767,-62C519.691,-62 528.628,-62 536.547,-62"/>
<polygon fill="black" stroke="black" points="536.618,-65.5001 546.618,-62 536.618,-58.5001 536.618,-65.5001"/>
</g>
<!-- e73cf3fad&#45;1d11&#45;4c05&#45;b84d&#45;61cca4b099d4&#45;&gt;e9a26d457&#45;6128&#45;4e81&#45;b5bf&#45;70821f9893a5 -->
<g id="e0c4234e4&#45;2793&#45;4755&#45;9d32&#45;aac2d8f99914" class="edge"><title>e73cf3fad&#45;1d11&#45;4c05&#45;b84d&#45;61cca4b099d4&#45;&gt;e9a26d457&#45;6128&#45;4e81&#45;b5bf&#45;70821f9893a5</title>
<path fill="none" stroke="black" d="M835.202,-89C844.02,-89 852.947,-89 860.9,-89"/>
<polygon fill="black" stroke="black" points="861.038,-92.5001 871.038,-89 861.038,-85.5001 861.038,-92.5001"/>
</g>
<!-- ed9450daa&#45;a907&#45;45ad&#45;83f2&#45;04fcd28b0a1c&#45;&gt;e470a2993&#45;6f10&#45;4243&#45;bf98&#45;964222a5fab8 -->
<g id="eb149249c&#45;fd43&#45;4771&#45;9206&#45;d87ed7ae3ce4" class="edge"><title>ed9450daa&#45;a907&#45;45ad&#45;83f2&#45;04fcd28b0a1c&#45;&gt;e470a2993&#45;6f10&#45;4243&#45;bf98&#45;964222a5fab8</title>
<path fill="none" stroke="black" d="M1011.84,-89C1020.14,-89 1028.95,-89 1036.92,-89"/>
<polygon fill="black" stroke="black" points="1037.17,-92.5001 1047.17,-89 1037.17,-85.5001 1037.17,-92.5001"/>
</g>
<!-- e49182b39&#45;becc&#45;47d3&#45;a03c&#45;4ea338c83cef&#45;&gt;e6a0c478f&#45;e161&#45;42ff&#45;8105&#45;76e6404db05c -->
<g id="ebd9e88c5&#45;c6ff&#45;4cd9&#45;9a7c&#45;88a5067e08ff" class="edge"><title>e49182b39&#45;becc&#45;47d3&#45;a03c&#45;4ea338c83cef&#45;&gt;e6a0c478f&#45;e161&#45;42ff&#45;8105&#45;76e6404db05c</title>
<path fill="none" stroke="black" d="M1182.05,-114.84C1195.29,-111.561 1233.72,-102.039 1260.05,-95.5177"/>
<polygon fill="black" stroke="black" points="1260.94,-98.9026 1269.81,-93.1007 1259.26,-92.108 1260.94,-98.9026"/>
</g>
<!-- e2b35e395&#45;1e60&#45;4d47&#45;8796&#45;bc92934cfe23&#45;&gt;e6a0c478f&#45;e161&#45;42ff&#45;8105&#45;76e6404db05c -->
<g id="e8ff50ce5&#45;6b28&#45;4eb7&#45;9df9&#45;f64cb76d88c2" class="edge"><title>e2b35e395&#45;1e60&#45;4d47&#45;8796&#45;bc92934cfe23&#45;&gt;e6a0c478f&#45;e161&#45;42ff&#45;8105&#45;76e6404db05c</title>
<path fill="none" stroke="black" d="M1233.46,-75.8955C1242.6,-78.1595 1251.68,-80.4087 1259.67,-82.388"/>
<polygon fill="black" stroke="black" points="1258.91,-85.8059 1269.46,-84.8132 1260.59,-79.0113 1258.91,-85.8059"/>
</g>
<!-- e4c68d479&#45;dc84&#45;4ca5&#45;be71&#45;4bc0645bf640&#45;&gt;e9d2865aa&#45;1aa7&#45;4153&#45;9256&#45;d67b935bd3ad -->
<g id="ed83c9d9b&#45;23f1&#45;4554&#45;9a88&#45;07d6f6644862" class="edge"><title>e4c68d479&#45;dc84&#45;4ca5&#45;be71&#45;4bc0645bf640&#45;&gt;e9d2865aa&#45;1aa7&#45;4153&#45;9256&#45;d67b935bd3ad</title>
<path fill="none" stroke="black" d="M1412.21,-117.738C1441.48,-116.152 1597.55,-107.609 1724.79,-99 1733.11,-98.4369 1742.16,-97.7728 1750.39,-97.1492"/>
<polygon fill="black" stroke="black" points="1750.9,-100.62 1760.61,-96.3646 1750.37,-93.6408 1750.9,-100.62"/>
</g>
<!-- ec9e2e1e0&#45;b6f9&#45;4c09&#45;9769&#45;6aff5c6e0490&#45;&gt;ec041207c&#45;46b5&#45;4621&#45;a013&#45;c9d0aabaacfd -->
<g id="e1374bfbc&#45;f35f&#45;4425&#45;aacd&#45;557f4c18c12e" class="edge"><title>ec9e2e1e0&#45;b6f9&#45;4c09&#45;9769&#45;6aff5c6e0490&#45;&gt;ec041207c&#45;46b5&#45;4621&#45;a013&#45;c9d0aabaacfd</title>
<path fill="none" stroke="black" d="M1352.37,-65.8431C1358.03,-65.6462 1368.2,-65.2925 1378.13,-64.9472"/>
<polygon fill="black" stroke="black" points="1378.31,-68.443 1388.19,-64.5974 1378.07,-61.4472 1378.31,-68.443"/>
</g>
<!-- ecba87495&#45;ace9&#45;46dd&#45;ac9f&#45;cde3444c52e5&#45;&gt;ead36d5df&#45;bcaf&#45;472a&#45;a69a&#45;5a4b5f8d0c3d -->
<g id="eb752e556&#45;6590&#45;4698&#45;a058&#45;ad4b1eff5d18" class="edge"><title>ecba87495&#45;ace9&#45;46dd&#45;ac9f&#45;cde3444c52e5&#45;&gt;ead36d5df&#45;bcaf&#45;472a&#45;a69a&#45;5a4b5f8d0c3d</title>
<path fill="none" stroke="black" d="M1605.9,-64C1614.88,-64 1623.59,-64 1631.26,-64"/>
<polygon fill="black" stroke="black" points="1631.34,-67.5001 1641.34,-64 1631.34,-60.5001 1631.34,-67.5001"/>
</g>
<!-- e5e3a6f7c&#45;ab9b&#45;42f0&#45;ba32&#45;9d9b8ef00dde&#45;&gt;ec041207c&#45;46b5&#45;4621&#45;a013&#45;c9d0aabaacfd -->
<g id="eeb7886f6&#45;b860&#45;437e&#45;84d4&#45;38b8aa755ec6" class="edge"><title>e5e3a6f7c&#45;ab9b&#45;42f0&#45;ba32&#45;9d9b8ef00dde&#45;&gt;ec041207c&#45;46b5&#45;4621&#45;a013&#45;c9d0aabaacfd</title>
<path fill="none" stroke="black" d="M1713.59,-17.6665C1687.64,-15.9623 1559.39,-9.34163 1460.36,-37 1450.28,-39.8151 1439.88,-44.6327 1430.98,-49.4261"/>
<polygon fill="black" stroke="black" points="1428.98,-46.5392 1422.01,-54.5222 1432.44,-52.6255 1428.98,-46.5392"/>
</g>
<!-- e552d9445&#45;ec74&#45;4ea1&#45;8e61&#45;df6cc22e80b4&#45;&gt;e9d2865aa&#45;1aa7&#45;4153&#45;9256&#45;d67b935bd3ad -->
<g id="ee0a1b125&#45;7d98&#45;4382&#45;9c3c&#45;d4648c6ae8f4" class="edge"><title>e552d9445&#45;ec74&#45;4ea1&#45;8e61&#45;df6cc22e80b4&#45;&gt;e9d2865aa&#45;1aa7&#45;4153&#45;9256&#45;d67b935bd3ad</title>
<path fill="none" stroke="black" d="M1724.8,-73.8048C1730.84,-76.2209 1742.02,-80.6926 1752.56,-84.908"/>
<polygon fill="black" stroke="black" points="1751.3,-88.1766 1761.89,-88.6409 1753.9,-81.6773 1751.3,-88.1766"/>
</g>
<!-- eca90c577&#45;6be1&#45;4037&#45;96c5&#45;89d5f9bbd6e1&#45;&gt;e8a86235d&#45;90f0&#45;4223&#45;8c86&#45;e5ba1132c76c -->
<g id="eab775596&#45;f3cb&#45;4d42&#45;b557&#45;a36b9edb2d6e" class="edge"><title>eca90c577&#45;6be1&#45;4037&#45;96c5&#45;89d5f9bbd6e1&#45;&gt;e8a86235d&#45;90f0&#45;4223&#45;8c86&#45;e5ba1132c76c</title>
<path fill="none" stroke="black" d="M1903.45,-123.733C1931.57,-122.115 2081.52,-113.422 2203.78,-105 2212.1,-104.427 2221.15,-103.76 2229.38,-103.136"/>
<polygon fill="black" stroke="black" points="2229.89,-106.608 2239.6,-102.354 2229.36,-99.6281 2229.89,-106.608"/>
</g>
<!-- e81e13bb0&#45;99d8&#45;4332&#45;8389&#45;abfac9752521&#45;&gt;e7539cb6b&#45;7e8c&#45;4f7c&#45;9fcc&#45;204e666d78c9 -->
<g id="ecdadb492&#45;1a52&#45;4368&#45;81e9&#45;49946950f48f" class="edge"><title>e81e13bb0&#45;99d8&#45;4332&#45;8389&#45;abfac9752521&#45;&gt;e7539cb6b&#45;7e8c&#45;4f7c&#45;9fcc&#45;204e666d78c9</title>
<path fill="none" stroke="black" d="M1843.8,-71.8431C1849.46,-71.6462 1859.63,-71.2925 1869.55,-70.9472"/>
<polygon fill="black" stroke="black" points="1869.74,-74.443 1879.61,-70.5974 1869.5,-67.4472 1869.74,-74.443"/>
</g>
<!-- eb1ee8cc3&#45;50da&#45;4814&#45;84d6&#45;fe05473c4e91&#45;&gt;e6422cda2&#45;62bd&#45;4345&#45;8fe3&#45;83c1fa552513 -->
<g id="e9abab5eb&#45;06fe&#45;4db2&#45;8d77&#45;4fd80832a1d6" class="edge"><title>eb1ee8cc3&#45;50da&#45;4814&#45;84d6&#45;fe05473c4e91&#45;&gt;e6422cda2&#45;62bd&#45;4345&#45;8fe3&#45;83c1fa552513</title>
<path fill="none" stroke="black" d="M2085.11,-70C2094.09,-70 2102.87,-70 2110.6,-70"/>
<polygon fill="black" stroke="black" points="2110.75,-73.5001 2120.75,-70 2110.75,-66.5001 2110.75,-73.5001"/>
</g>
<!-- e2cc706fe&#45;6a86&#45;428d&#45;9a66&#45;1b1e9603f835&#45;&gt;e7539cb6b&#45;7e8c&#45;4f7c&#45;9fcc&#45;204e666d78c9 -->
<g id="e83f679c7&#45;ff04&#45;487c&#45;913e&#45;0c9d3dc93859" class="edge"><title>e2cc706fe&#45;6a86&#45;428d&#45;9a66&#45;1b1e9603f835&#45;&gt;e7539cb6b&#45;7e8c&#45;4f7c&#45;9fcc&#45;204e666d78c9</title>
<path fill="none" stroke="black" d="M2192.48,-23.685C2167.04,-22.1558 2045.61,-16.6085 1951.79,-43 1941.71,-45.8338 1931.31,-50.6553 1922.41,-55.4466"/>
<polygon fill="black" stroke="black" points="1920.41,-52.5583 1913.44,-60.5384 1923.87,-58.646 1920.41,-52.5583"/>
</g>
<!-- e61c94181&#45;c1d6&#45;4e77&#45;861d&#45;2e720733ebaf&#45;&gt;e8a86235d&#45;90f0&#45;4223&#45;8c86&#45;e5ba1132c76c -->
<g id="e95389edd&#45;809d&#45;400b&#45;9e7d&#45;81b91f1e2741" class="edge"><title>e61c94181&#45;c1d6&#45;4e77&#45;861d&#45;2e720733ebaf&#45;&gt;e8a86235d&#45;90f0&#45;4223&#45;8c86&#45;e5ba1132c76c</title>
<path fill="none" stroke="black" d="M2203.79,-79.8048C2209.83,-82.2209 2221.01,-86.6926 2231.55,-90.908"/>
<polygon fill="black" stroke="black" points="2230.3,-94.1766 2240.88,-94.6409 2232.9,-87.6773 2230.3,-94.1766"/>
</g>
</g>
</svg>
