<?xml version="1.0" encoding="UTF-8" standalone="no"?>
<!DOCTYPE svg PUBLIC "-//W3C//DTD SVG 1.1//EN"
 "http://www.w3.org/Graphics/SVG/1.1/DTD/svg11.dtd">
<!-- Generated by graphviz version 2.38.0 (20140413.2041)
 -->
<!-- Title: G Pages: 1 -->
<svg width="1322pt" height="340pt"
 viewBox="0.00 0.00 1321.88 340.00" xmlns="http://www.w3.org/2000/svg" xmlns:xlink="http://www.w3.org/1999/xlink">
<g id="graph0" class="graph" transform="scale(1 1) rotate(0) translate(4 336)">
<title>G</title>
<polygon fill="white" stroke="none" points="-4,4 -4,-336 1317.88,-336 1317.88,4 -4,4"/>
<!-- ed5d96088&#45;e872&#45;462f&#45;b92a&#45;2b6810e5e0fc -->
<g id="ed5d96088&#45;e872&#45;462f&#45;b92a&#45;2b6810e5e0fc" class="node"><title>ed5d96088&#45;e872&#45;462f&#45;b92a&#45;2b6810e5e0fc</title>
<ellipse fill="green" stroke="black" cx="18" cy="-191" rx="18" ry="18"/>
</g>
<!-- eaf0a609f&#45;45a1&#45;451f&#45;863d&#45;902f3b4f469b -->
<g id="eaf0a609f&#45;45a1&#45;451f&#45;863d&#45;902f3b4f469b" class="node"><title>eaf0a609f&#45;45a1&#45;451f&#45;863d&#45;902f3b4f469b</title>
<polygon fill="#eeeeee" stroke="black" points="83,-209 72,-209 72,-173 83,-173 83,-209"/>
</g>
<!-- ed5d96088&#45;e872&#45;462f&#45;b92a&#45;2b6810e5e0fc&#45;&gt;eaf0a609f&#45;45a1&#45;451f&#45;863d&#45;902f3b4f469b -->
<g id="e14c8be90&#45;da0e&#45;4d3a&#45;836a&#45;c7bb0aa7309a" class="edge"><title>ed5d96088&#45;e872&#45;462f&#45;b92a&#45;2b6810e5e0fc&#45;&gt;eaf0a609f&#45;45a1&#45;451f&#45;863d&#45;902f3b4f469b</title>
<path fill="none" stroke="black" d="M36.2519,-191C44.2407,-191 53.6477,-191 61.3576,-191"/>
<polygon fill="black" stroke="black" points="61.6286,-194.5 71.6286,-191 61.6285,-187.5 61.6286,-194.5"/>
</g>
<!-- e55aa4d0a&#45;2cad&#45;40cf&#45;9d77&#45;a5f9bd98ee9d -->
<g id="e55aa4d0a&#45;2cad&#45;40cf&#45;9d77&#45;a5f9bd98ee9d" class="node"><title>e55aa4d0a&#45;2cad&#45;40cf&#45;9d77&#45;a5f9bd98ee9d</title>
<ellipse fill="red" stroke="black" cx="1295.88" cy="-191" rx="18" ry="18"/>
</g>
<!-- e25b0639b&#45;5002&#45;4bd0&#45;80e6&#45;9b300b75c4ad -->
<g id="e25b0639b&#45;5002&#45;4bd0&#45;80e6&#45;9b300b75c4ad" class="node"><title>e25b0639b&#45;5002&#45;4bd0&#45;80e6&#45;9b300b75c4ad</title>
<ellipse fill="none" stroke="black" cx="137" cy="-295" rx="18" ry="18"/>
</g>
<!-- edbda95cd&#45;4371&#45;4f7f&#45;8d24&#45;7330f10e2f73 -->
<g id="edbda95cd&#45;4371&#45;4f7f&#45;8d24&#45;7330f10e2f73" class="node"><title>edbda95cd&#45;4371&#45;4f7f&#45;8d24&#45;7330f10e2f73</title>
<polygon fill="none" stroke="black" points="344.249,-332 225.955,-332 225.955,-296 344.249,-296 344.249,-332"/>
<text text-anchor="middle" x="285.102" y="-309.8" font-family="Times,serif" font-size="14.00">A_REGISTERED</text>
</g>
<!-- e25b0639b&#45;5002&#45;4bd0&#45;80e6&#45;9b300b75c4ad&#45;&gt;edbda95cd&#45;4371&#45;4f7f&#45;8d24&#45;7330f10e2f73 -->
<g id="e7ab32517&#45;7733&#45;49ec&#45;b781&#45;ab9e79360d04" class="edge"><title>e25b0639b&#45;5002&#45;4bd0&#45;80e6&#45;9b300b75c4ad&#45;&gt;edbda95cd&#45;4371&#45;4f7f&#45;8d24&#45;7330f10e2f73</title>
<path fill="none" stroke="black" d="M155.046,-297.217C170.192,-299.187 193.367,-302.2 215.921,-305.133"/>
<polygon fill="black" stroke="black" points="215.496,-308.607 225.864,-306.426 216.399,-301.666 215.496,-308.607"/>
</g>
<!-- e5820ce9e&#45;ea97&#45;48ce&#45;90d5&#45;0735a53fbb7d -->
<g id="e5820ce9e&#45;ea97&#45;48ce&#45;90d5&#45;0735a53fbb7d" class="node"><title>e5820ce9e&#45;ea97&#45;48ce&#45;90d5&#45;0735a53fbb7d</title>
<ellipse fill="none" stroke="black" cx="1104.88" cy="-295" rx="18" ry="18"/>
</g>
<!-- e662968fd&#45;5d55&#45;41ac&#45;b81f&#45;b15e2a0bb66b -->
<g id="e662968fd&#45;5d55&#45;41ac&#45;b81f&#45;b15e2a0bb66b" class="node"><title>e662968fd&#45;5d55&#45;41ac&#45;b81f&#45;b15e2a0bb66b</title>
<polygon fill="#eeeeee" stroke="black" points="1241.88,-209 1230.88,-209 1230.88,-173 1241.88,-173 1241.88,-209"/>
</g>
<!-- e5820ce9e&#45;ea97&#45;48ce&#45;90d5&#45;0735a53fbb7d&#45;&gt;e662968fd&#45;5d55&#45;41ac&#45;b81f&#45;b15e2a0bb66b -->
<g id="ef3a602b3&#45;e76a&#45;4ec8&#45;8c33&#45;a1a1b1b16021" class="edge"><title>e5820ce9e&#45;ea97&#45;48ce&#45;90d5&#45;0735a53fbb7d&#45;&gt;e662968fd&#45;5d55&#45;41ac&#45;b81f&#45;b15e2a0bb66b</title>
<path fill="none" stroke="black" d="M1121.92,-288.44C1140.78,-280.207 1172.35,-264.74 1194.88,-245 1207.13,-234.26 1218.03,-219.254 1225.42,-207.785"/>
<polygon fill="black" stroke="black" points="1228.47,-209.501 1230.76,-199.156 1222.52,-205.817 1228.47,-209.501"/>
</g>
<!-- e647d70a8&#45;7cbe&#45;4135&#45;bbc1&#45;f4ed27af2c80 -->
<g id="e647d70a8&#45;7cbe&#45;4135&#45;bbc1&#45;f4ed27af2c80" class="node"><title>e647d70a8&#45;7cbe&#45;4135&#45;bbc1&#45;f4ed27af2c80</title>
<ellipse fill="none" stroke="black" cx="137" cy="-218" rx="18" ry="18"/>
</g>
<!-- e4b52a0da&#45;7c98&#45;4b62&#45;90d7&#45;7949442b3042 -->
<g id="e4b52a0da&#45;7c98&#45;4b62&#45;90d7&#45;7949442b3042" class="node"><title>e4b52a0da&#45;7c98&#45;4b62&#45;90d7&#45;7949442b3042</title>
<polygon fill="#eeeeee" stroke="black" points="290.602,-278 279.602,-278 279.602,-242 290.602,-242 290.602,-278"/>
</g>
<!-- e647d70a8&#45;7cbe&#45;4135&#45;bbc1&#45;f4ed27af2c80&#45;&gt;e4b52a0da&#45;7c98&#45;4b62&#45;90d7&#45;7949442b3042 -->
<g id="e53447e9e&#45;3b02&#45;44d5&#45;b1fa&#45;7fa109a4a193" class="edge"><title>e647d70a8&#45;7cbe&#45;4135&#45;bbc1&#45;f4ed27af2c80&#45;&gt;e4b52a0da&#45;7c98&#45;4b62&#45;90d7&#45;7949442b3042</title>
<path fill="none" stroke="black" d="M154.476,-222.736C183.209,-230.996 242.032,-247.906 269.44,-255.785"/>
<polygon fill="black" stroke="black" points="268.768,-259.233 279.345,-258.633 270.702,-252.506 268.768,-259.233"/>
</g>
<!-- ec448c8a6&#45;5815&#45;4a15&#45;be69&#45;981b5e62ea57 -->
<g id="ec448c8a6&#45;5815&#45;4a15&#45;be69&#45;981b5e62ea57" class="node"><title>ec448c8a6&#45;5815&#45;4a15&#45;be69&#45;981b5e62ea57</title>
<polygon fill="none" stroke="black" points="379.306,-224 190.898,-224 190.898,-188 379.306,-188 379.306,-224"/>
<text text-anchor="middle" x="285.102" y="-201.8" font-family="Times,serif" font-size="14.00">W_Wijzigen contractgegevens</text>
</g>
<!-- e647d70a8&#45;7cbe&#45;4135&#45;bbc1&#45;f4ed27af2c80&#45;&gt;ec448c8a6&#45;5815&#45;4a15&#45;be69&#45;981b5e62ea57 -->
<g id="e46d96d46&#45;5763&#45;44eb&#45;9a44&#45;20c99836fd45" class="edge"><title>e647d70a8&#45;7cbe&#45;4135&#45;bbc1&#45;f4ed27af2c80&#45;&gt;ec448c8a6&#45;5815&#45;4a15&#45;be69&#45;981b5e62ea57</title>
<path fill="none" stroke="black" d="M155.046,-216.6C162.159,-216.016 171.043,-215.286 180.802,-214.485"/>
<polygon fill="black" stroke="black" points="181.139,-217.969 190.819,-213.662 180.566,-210.992 181.139,-217.969"/>
</g>
<!-- e0f8d50ad&#45;fa10&#45;4a44&#45;b7c3&#45;e49cdcb25097 -->
<g id="e0f8d50ad&#45;fa10&#45;4a44&#45;b7c3&#45;e49cdcb25097" class="node"><title>e0f8d50ad&#45;fa10&#45;4a44&#45;b7c3&#45;e49cdcb25097</title>
<ellipse fill="none" stroke="black" cx="1176.88" cy="-218" rx="18" ry="18"/>
</g>
<!-- e0f8d50ad&#45;fa10&#45;4a44&#45;b7c3&#45;e49cdcb25097&#45;&gt;e662968fd&#45;5d55&#45;41ac&#45;b81f&#45;b15e2a0bb66b -->
<g id="e02d0371f&#45;682c&#45;4927&#45;900c&#45;159a4bd5e519" class="edge"><title>e0f8d50ad&#45;fa10&#45;4a44&#45;b7c3&#45;e49cdcb25097&#45;&gt;e662968fd&#45;5d55&#45;41ac&#45;b81f&#45;b15e2a0bb66b</title>
<path fill="none" stroke="black" d="M1193.59,-210.622C1202.38,-206.494 1213.23,-201.398 1221.68,-197.433"/>
<polygon fill="black" stroke="black" points="1223.18,-200.594 1230.75,-193.175 1220.21,-194.258 1223.18,-200.594"/>
</g>
<!-- ea361cb8e&#45;39e3&#45;4c17&#45;8494&#45;107da1542069 -->
<g id="ea361cb8e&#45;39e3&#45;4c17&#45;8494&#45;107da1542069" class="node"><title>ea361cb8e&#45;39e3&#45;4c17&#45;8494&#45;107da1542069</title>
<ellipse fill="none" stroke="black" cx="467.921" cy="-237" rx="18" ry="18"/>
</g>
<!-- ef7816226&#45;5adb&#45;478f&#45;9e30&#45;b4bdb8692dbb -->
<g id="ef7816226&#45;5adb&#45;478f&#45;9e30&#45;b4bdb8692dbb" class="node"><title>ef7816226&#45;5adb&#45;478f&#45;9e30&#45;b4bdb8692dbb</title>
<polygon fill="#eeeeee" stroke="black" points="662.664,-255 651.664,-255 651.664,-219 662.664,-219 662.664,-255"/>
</g>
<!-- ea361cb8e&#45;39e3&#45;4c17&#45;8494&#45;107da1542069&#45;&gt;ef7816226&#45;5adb&#45;478f&#45;9e30&#45;b4bdb8692dbb -->
<g id="ebca03c9e&#45;5abe&#45;443f&#45;bd59&#45;7b2b16592824" class="edge"><title>ea361cb8e&#45;39e3&#45;4c17&#45;8494&#45;107da1542069&#45;&gt;ef7816226&#45;5adb&#45;478f&#45;9e30&#45;b4bdb8692dbb</title>
<path fill="none" stroke="black" d="M486.201,-237C522.646,-237 606.851,-237 641.183,-237"/>
<polygon fill="black" stroke="black" points="641.394,-240.5 651.394,-237 641.394,-233.5 641.394,-240.5"/>
</g>
<!-- e99c40978&#45;569c&#45;4069&#45;9ade&#45;46c88f966ff6 -->
<g id="e99c40978&#45;569c&#45;4069&#45;9ade&#45;46c88f966ff6" class="node"><title>e99c40978&#45;569c&#45;4069&#45;9ade&#45;46c88f966ff6</title>
<ellipse fill="none" stroke="black" cx="811.69" cy="-268" rx="18" ry="18"/>
</g>
<!-- e41e9625e&#45;90b0&#45;4d7e&#45;8ec9&#45;06ec6d00293c -->
<g id="e41e9625e&#45;90b0&#45;4d7e&#45;8ec9&#45;06ec6d00293c" class="node"><title>e41e9625e&#45;90b0&#45;4d7e&#45;8ec9&#45;06ec6d00293c</title>
<polygon fill="none" stroke="black" points="975.771,-286 868.796,-286 868.796,-250 975.771,-250 975.771,-286"/>
<text text-anchor="middle" x="922.284" y="-263.8" font-family="Times,serif" font-size="14.00">A_APPROVED</text>
</g>
<!-- e99c40978&#45;569c&#45;4069&#45;9ade&#45;46c88f966ff6&#45;&gt;e41e9625e&#45;90b0&#45;4d7e&#45;8ec9&#45;06ec6d00293c -->
<g id="ed1413377&#45;8dc6&#45;4bad&#45;b8e4&#45;fe01ed50ab72" class="edge"><title>e99c40978&#45;569c&#45;4069&#45;9ade&#45;46c88f966ff6&#45;&gt;e41e9625e&#45;90b0&#45;4d7e&#45;8ec9&#45;06ec6d00293c</title>
<path fill="none" stroke="black" d="M830.137,-268C838.134,-268 848.149,-268 858.589,-268"/>
<polygon fill="black" stroke="black" points="858.677,-271.5 868.677,-268 858.676,-264.5 858.677,-271.5"/>
</g>
<!-- e5104920f&#45;937f&#45;4d3a&#45;97ec&#45;4dcc15cee406 -->
<g id="e5104920f&#45;937f&#45;4d3a&#45;97ec&#45;4dcc15cee406" class="node"><title>e5104920f&#45;937f&#45;4d3a&#45;97ec&#45;4dcc15cee406</title>
<ellipse fill="none" stroke="black" cx="1032.88" cy="-268" rx="18" ry="18"/>
</g>
<!-- ef6cdd406&#45;a138&#45;4b52&#45;b5ae&#45;dfcc4dbb2620 -->
<g id="ef6cdd406&#45;a138&#45;4b52&#45;b5ae&#45;dfcc4dbb2620" class="node"><title>ef6cdd406&#45;a138&#45;4b52&#45;b5ae&#45;dfcc4dbb2620</title>
<polygon fill="#eeeeee" stroke="black" points="1110.38,-236 1099.38,-236 1099.38,-200 1110.38,-200 1110.38,-236"/>
</g>
<!-- e5104920f&#45;937f&#45;4d3a&#45;97ec&#45;4dcc15cee406&#45;&gt;ef6cdd406&#45;a138&#45;4b52&#45;b5ae&#45;dfcc4dbb2620 -->
<g id="e37bfb497&#45;c287&#45;490b&#45;b2d9&#45;2ccd4835a4cf" class="edge"><title>e5104920f&#45;937f&#45;4d3a&#45;97ec&#45;4dcc15cee406&#45;&gt;ef6cdd406&#45;a138&#45;4b52&#45;b5ae&#45;dfcc4dbb2620</title>
<path fill="none" stroke="black" d="M1048.04,-257.882C1060.65,-248.875 1078.93,-235.817 1091.1,-227.125"/>
<polygon fill="black" stroke="black" points="1093.22,-229.912 1099.33,-221.252 1089.15,-224.216 1093.22,-229.912"/>
</g>
<!-- ebeb42f12&#45;e95a&#45;463d&#45;83ac&#45;550fa5a2ebd3 -->
<g id="ebeb42f12&#45;e95a&#45;463d&#45;83ac&#45;550fa5a2ebd3" class="node"><title>ebeb42f12&#45;e95a&#45;463d&#45;83ac&#45;550fa5a2ebd3</title>
<ellipse fill="none" stroke="black" cx="811.69" cy="-214" rx="18" ry="18"/>
</g>
<!-- ef77e485c&#45;3c11&#45;4494&#45;ab31&#45;d56faf086bef -->
<g id="ef77e485c&#45;3c11&#45;4494&#45;ab31&#45;d56faf086bef" class="node"><title>ef77e485c&#45;3c11&#45;4494&#45;ab31&#45;d56faf086bef</title>
<polygon fill="none" stroke="black" points="978.972,-232 865.595,-232 865.595,-196 978.972,-196 978.972,-232"/>
<text text-anchor="middle" x="922.284" y="-209.8" font-family="Times,serif" font-size="14.00">A_ACTIVATED</text>
</g>
<!-- ebeb42f12&#45;e95a&#45;463d&#45;83ac&#45;550fa5a2ebd3&#45;&gt;ef77e485c&#45;3c11&#45;4494&#45;ab31&#45;d56faf086bef -->
<g id="ed630637a&#45;c1ed&#45;4dcb&#45;8320&#45;cbd2ab9dadfe" class="edge"><title>ebeb42f12&#45;e95a&#45;463d&#45;83ac&#45;550fa5a2ebd3&#45;&gt;ef77e485c&#45;3c11&#45;4494&#45;ab31&#45;d56faf086bef</title>
<path fill="none" stroke="black" d="M830.137,-214C837.27,-214 846.009,-214 855.223,-214"/>
<polygon fill="black" stroke="black" points="855.354,-217.5 865.354,-214 855.354,-210.5 855.354,-217.5"/>
</g>
<!-- ecbd16d9b&#45;1b25&#45;48bb&#45;9d64&#45;5d9455c7ab23 -->
<g id="ecbd16d9b&#45;1b25&#45;48bb&#45;9d64&#45;5d9455c7ab23" class="node"><title>ecbd16d9b&#45;1b25&#45;48bb&#45;9d64&#45;5d9455c7ab23</title>
<ellipse fill="none" stroke="black" cx="1032.88" cy="-214" rx="18" ry="18"/>
</g>
<!-- ecbd16d9b&#45;1b25&#45;48bb&#45;9d64&#45;5d9455c7ab23&#45;&gt;ef6cdd406&#45;a138&#45;4b52&#45;b5ae&#45;dfcc4dbb2620 -->
<g id="e84805246&#45;ac7b&#45;48c2&#45;bcf7&#45;4ec2b13d787e" class="edge"><title>ecbd16d9b&#45;1b25&#45;48bb&#45;9d64&#45;5d9455c7ab23&#45;&gt;ef6cdd406&#45;a138&#45;4b52&#45;b5ae&#45;dfcc4dbb2620</title>
<path fill="none" stroke="black" d="M1051.18,-214.989C1062.84,-215.655 1078.04,-216.524 1089.12,-217.157"/>
<polygon fill="black" stroke="black" points="1088.98,-220.654 1099.17,-217.731 1089.38,-213.666 1088.98,-220.654"/>
</g>
<!-- e216340fb&#45;620c&#45;4599&#45;9904&#45;b20bac18b247 -->
<g id="e216340fb&#45;620c&#45;4599&#45;9904&#45;b20bac18b247" class="node"><title>e216340fb&#45;620c&#45;4599&#45;9904&#45;b20bac18b247</title>
<ellipse fill="none" stroke="black" cx="137" cy="-164" rx="18" ry="18"/>
</g>
<!-- eba2d77c1&#45;f98c&#45;4e7f&#45;82d7&#45;1f4facbfcb3c -->
<g id="eba2d77c1&#45;f98c&#45;4e7f&#45;82d7&#45;1f4facbfcb3c" class="node"><title>eba2d77c1&#45;f98c&#45;4e7f&#45;82d7&#45;1f4facbfcb3c</title>
<polygon fill="none" stroke="black" points="520.855,-182 414.987,-182 414.987,-146 520.855,-146 520.855,-182"/>
<text text-anchor="middle" x="467.921" y="-159.8" font-family="Times,serif" font-size="14.00">O_ACCEPTED</text>
</g>
<!-- e216340fb&#45;620c&#45;4599&#45;9904&#45;b20bac18b247&#45;&gt;eba2d77c1&#45;f98c&#45;4e7f&#45;82d7&#45;1f4facbfcb3c -->
<g id="e67721fe0&#45;a540&#45;43a1&#45;a438&#45;e45b8c4a972d" class="edge"><title>e216340fb&#45;620c&#45;4599&#45;9904&#45;b20bac18b247&#45;&gt;eba2d77c1&#45;f98c&#45;4e7f&#45;82d7&#45;1f4facbfcb3c</title>
<path fill="none" stroke="black" d="M155.221,-164C201.079,-164 327.9,-164 404.911,-164"/>
<polygon fill="black" stroke="black" points="404.97,-167.5 414.97,-164 404.97,-160.5 404.97,-167.5"/>
</g>
<!-- e7ddef8c6&#45;c668&#45;41dc&#45;91fa&#45;b271a12c83fd -->
<g id="e7ddef8c6&#45;c668&#45;41dc&#45;91fa&#45;b271a12c83fd" class="node"><title>e7ddef8c6&#45;c668&#45;41dc&#45;91fa&#45;b271a12c83fd</title>
<ellipse fill="none" stroke="black" cx="1176.88" cy="-164" rx="18" ry="18"/>
</g>
<!-- e7ddef8c6&#45;c668&#45;41dc&#45;91fa&#45;b271a12c83fd&#45;&gt;e662968fd&#45;5d55&#45;41ac&#45;b81f&#45;b15e2a0bb66b -->
<g id="e3274b888&#45;8edd&#45;4138&#45;bb1c&#45;78466d12c3eb" class="edge"><title>e7ddef8c6&#45;c668&#45;41dc&#45;91fa&#45;b271a12c83fd&#45;&gt;e662968fd&#45;5d55&#45;41ac&#45;b81f&#45;b15e2a0bb66b</title>
<path fill="none" stroke="black" d="M1193.59,-171.378C1202.38,-175.506 1213.23,-180.602 1221.68,-184.567"/>
<polygon fill="black" stroke="black" points="1220.21,-187.742 1230.75,-188.825 1223.18,-181.406 1220.21,-187.742"/>
</g>
<!-- ef885e40f&#45;2017&#45;420b&#45;ab13&#45;76c2e2407fd0 -->
<g id="ef885e40f&#45;2017&#45;420b&#45;ab13&#45;76c2e2407fd0" class="node"><title>ef885e40f&#45;2017&#45;420b&#45;ab13&#45;76c2e2407fd0</title>
<ellipse fill="none" stroke="black" cx="137" cy="-110" rx="18" ry="18"/>
</g>
<!-- e7d49682a&#45;c3fa&#45;4cc4&#45;baf5&#45;44fd08265533 -->
<g id="e7d49682a&#45;c3fa&#45;4cc4&#45;baf5&#45;44fd08265533" class="node"><title>e7d49682a&#45;c3fa&#45;4cc4&#45;baf5&#45;44fd08265533</title>
<polygon fill="#eeeeee" stroke="black" points="662.664,-136 651.664,-136 651.664,-100 662.664,-100 662.664,-136"/>
</g>
<!-- ef885e40f&#45;2017&#45;420b&#45;ab13&#45;76c2e2407fd0&#45;&gt;e7d49682a&#45;c3fa&#45;4cc4&#45;baf5&#45;44fd08265533 -->
<g id="ed380ce4d&#45;d5a4&#45;495f&#45;ac56&#45;29f505f802d7" class="edge"><title>ef885e40f&#45;2017&#45;420b&#45;ab13&#45;76c2e2407fd0&#45;&gt;e7d49682a&#45;c3fa&#45;4cc4&#45;baf5&#45;44fd08265533</title>
<path fill="none" stroke="black" d="M155.24,-110.266C234.921,-111.496 566.798,-116.62 641.282,-117.77"/>
<polygon fill="black" stroke="black" points="641.473,-121.274 651.526,-117.928 641.581,-114.274 641.473,-121.274"/>
</g>
<!-- e76885e2a&#45;1c7a&#45;42b8&#45;9092&#45;b862b8f81c9b -->
<g id="e76885e2a&#45;1c7a&#45;42b8&#45;9092&#45;b862b8f81c9b" class="node"><title>e76885e2a&#45;1c7a&#45;42b8&#45;9092&#45;b862b8f81c9b</title>
<polygon fill="#eeeeee" stroke="black" points="290.602,-84 279.602,-84 279.602,-48 290.602,-48 290.602,-84"/>
</g>
<!-- ef885e40f&#45;2017&#45;420b&#45;ab13&#45;76c2e2407fd0&#45;&gt;e76885e2a&#45;1c7a&#45;42b8&#45;9092&#45;b862b8f81c9b -->
<g id="ee02f60dd&#45;9d2d&#45;429d&#45;90d4&#45;80f5157aca11" class="edge"><title>ef885e40f&#45;2017&#45;420b&#45;ab13&#45;76c2e2407fd0&#45;&gt;e76885e2a&#45;1c7a&#45;42b8&#45;9092&#45;b862b8f81c9b</title>
<path fill="none" stroke="black" d="M154.476,-105.038C183.209,-96.3848 242.032,-78.6699 269.44,-70.4155"/>
<polygon fill="black" stroke="black" points="270.779,-73.6676 279.345,-67.4325 268.761,-66.9649 270.779,-73.6676"/>
</g>
<!-- e0122a833&#45;a6b2&#45;42c7&#45;8920&#45;ac13b5ed57cc -->
<g id="e0122a833&#45;a6b2&#45;42c7&#45;8920&#45;ac13b5ed57cc" class="node"><title>e0122a833&#45;a6b2&#45;42c7&#45;8920&#45;ac13b5ed57cc</title>
<ellipse fill="none" stroke="black" cx="1032.88" cy="-118" rx="18" ry="18"/>
</g>
<!-- e0122a833&#45;a6b2&#45;42c7&#45;8920&#45;ac13b5ed57cc&#45;&gt;e662968fd&#45;5d55&#45;41ac&#45;b81f&#45;b15e2a0bb66b -->
<g id="ed0c13172&#45;719a&#45;480b&#45;aa9c&#45;6b2ca7722564" class="edge"><title>e0122a833&#45;a6b2&#45;42c7&#45;8920&#45;ac13b5ed57cc&#45;&gt;e662968fd&#45;5d55&#45;41ac&#45;b81f&#45;b15e2a0bb66b</title>
<path fill="none" stroke="black" d="M1051.22,-115.817C1082.3,-112.776 1148.53,-110.318 1194.88,-137 1208.66,-144.936 1219.21,-159.634 1226.09,-171.695"/>
<polygon fill="black" stroke="black" points="1223.04,-173.414 1230.8,-180.622 1229.22,-170.145 1223.04,-173.414"/>
</g>
<!-- eb27b7a31&#45;9ba7&#45;4ee9&#45;a487&#45;cd35ea8ed1ab -->
<g id="eb27b7a31&#45;9ba7&#45;4ee9&#45;a487&#45;cd35ea8ed1ab" class="node"><title>eb27b7a31&#45;9ba7&#45;4ee9&#45;a487&#45;cd35ea8ed1ab</title>
<ellipse fill="none" stroke="black" cx="811.69" cy="-64" rx="18" ry="18"/>
</g>
<!-- e5b41802b&#45;067a&#45;4ed9&#45;8af1&#45;177d76b96757 -->
<g id="e5b41802b&#45;067a&#45;4ed9&#45;8af1&#45;177d76b96757" class="node"><title>e5b41802b&#45;067a&#45;4ed9&#45;8af1&#45;177d76b96757</title>
<polygon fill="#eeeeee" stroke="black" points="927.784,-36 916.784,-36 916.784,-0 927.784,-0 927.784,-36"/>
</g>
<!-- eb27b7a31&#45;9ba7&#45;4ee9&#45;a487&#45;cd35ea8ed1ab&#45;&gt;e5b41802b&#45;067a&#45;4ed9&#45;8af1&#45;177d76b96757 -->
<g id="ee6e79a3f&#45;1452&#45;4de7&#45;917a&#45;c1311b9c7d5a" class="edge"><title>eb27b7a31&#45;9ba7&#45;4ee9&#45;a487&#45;cd35ea8ed1ab&#45;&gt;e5b41802b&#45;067a&#45;4ed9&#45;8af1&#45;177d76b96757</title>
<path fill="none" stroke="black" d="M828.713,-57.2125C850.019,-48.1875 887.322,-32.3861 907.456,-23.8572"/>
<polygon fill="black" stroke="black" points="908.822,-27.0796 916.665,-19.9563 906.092,-20.6341 908.822,-27.0796"/>
</g>
<!-- ef3af0380&#45;1c7f&#45;42e3&#45;b04b&#45;5102b69acf49 -->
<g id="ef3af0380&#45;1c7f&#45;42e3&#45;b04b&#45;5102b69acf49" class="node"><title>ef3af0380&#45;1c7f&#45;42e3&#45;b04b&#45;5102b69acf49</title>
<polygon fill="#eeeeee" stroke="black" points="927.784,-90 916.784,-90 916.784,-54 927.784,-54 927.784,-90"/>
</g>
<!-- eb27b7a31&#45;9ba7&#45;4ee9&#45;a487&#45;cd35ea8ed1ab&#45;&gt;ef3af0380&#45;1c7f&#45;42e3&#45;b04b&#45;5102b69acf49 -->
<g id="e161594d7&#45;27be&#45;4368&#45;9dd5&#45;f415968d1b40" class="edge"><title>eb27b7a31&#45;9ba7&#45;4ee9&#45;a487&#45;cd35ea8ed1ab&#45;&gt;ef3af0380&#45;1c7f&#45;42e3&#45;b04b&#45;5102b69acf49</title>
<path fill="none" stroke="black" d="M829.657,-65.25C850.8,-66.8076 886.58,-69.4434 906.599,-70.9182"/>
<polygon fill="black" stroke="black" points="906.526,-74.4222 916.756,-71.6664 907.04,-67.4411 906.526,-74.4222"/>
</g>
<!-- ec6e963de&#45;88ca&#45;412b&#45;90f0&#45;511de37d4210 -->
<g id="ec6e963de&#45;88ca&#45;412b&#45;90f0&#45;511de37d4210" class="node"><title>ec6e963de&#45;88ca&#45;412b&#45;90f0&#45;511de37d4210</title>
<ellipse fill="none" stroke="black" cx="467.921" cy="-64" rx="18" ry="18"/>
</g>
<!-- e9f7f417b&#45;f5d8&#45;46ec&#45;801f&#45;1bd4a8dd7405 -->
<g id="e9f7f417b&#45;f5d8&#45;46ec&#45;801f&#45;1bd4a8dd7405" class="node"><title>e9f7f417b&#45;f5d8&#45;46ec&#45;801f&#45;1bd4a8dd7405</title>
<polygon fill="none" stroke="black" points="757.716,-82 556.612,-82 556.612,-46 757.716,-46 757.716,-82"/>
<text text-anchor="middle" x="657.164" y="-59.8" font-family="Times,serif" font-size="14.00">W_Nabellen incomplete dossiers</text>
</g>
<!-- ec6e963de&#45;88ca&#45;412b&#45;90f0&#45;511de37d4210&#45;&gt;e9f7f417b&#45;f5d8&#45;46ec&#45;801f&#45;1bd4a8dd7405 -->
<g id="ed5e2a8ea&#45;53cd&#45;49db&#45;b93c&#45;ec90cc009bda" class="edge"><title>ec6e963de&#45;88ca&#45;412b&#45;90f0&#45;511de37d4210&#45;&gt;e9f7f417b&#45;f5d8&#45;46ec&#45;801f&#45;1bd4a8dd7405</title>
<path fill="none" stroke="black" d="M486.201,-64C500.697,-64 522.751,-64 546.216,-64"/>
<polygon fill="black" stroke="black" points="546.341,-67.5001 556.341,-64 546.341,-60.5001 546.341,-67.5001"/>
</g>
<!-- eaf0a609f&#45;45a1&#45;451f&#45;863d&#45;902f3b4f469b&#45;&gt;e25b0639b&#45;5002&#45;4bd0&#45;80e6&#45;9b300b75c4ad -->
<g id="e4b88568f&#45;b1cc&#45;46c5&#45;a784&#45;a09e4859e856" class="edge"><title>eaf0a609f&#45;45a1&#45;451f&#45;863d&#45;902f3b4f469b&#45;&gt;e25b0639b&#45;5002&#45;4bd0&#45;80e6&#45;9b300b75c4ad</title>
<path fill="none" stroke="black" d="M83.0119,-199.161C91.4353,-214.396 109.851,-247.705 122.588,-270.743"/>
<polygon fill="black" stroke="black" points="119.587,-272.548 127.489,-279.605 125.713,-269.16 119.587,-272.548"/>
</g>
<!-- eaf0a609f&#45;45a1&#45;451f&#45;863d&#45;902f3b4f469b&#45;&gt;e647d70a8&#45;7cbe&#45;4135&#45;bbc1&#45;f4ed27af2c80 -->
<g id="ecdbc265c&#45;53e5&#45;489f&#45;887f&#45;6c281ad1a409" class="edge"><title>eaf0a609f&#45;45a1&#45;451f&#45;863d&#45;902f3b4f469b&#45;&gt;e647d70a8&#45;7cbe&#45;4135&#45;bbc1&#45;f4ed27af2c80</title>
<path fill="none" stroke="black" d="M83.0119,-193.119C89.0929,-195.974 100.382,-201.275 110.982,-206.252"/>
<polygon fill="black" stroke="black" points="109.815,-209.571 120.354,-210.653 112.79,-203.235 109.815,-209.571"/>
</g>
<!-- eaf0a609f&#45;45a1&#45;451f&#45;863d&#45;902f3b4f469b&#45;&gt;e216340fb&#45;620c&#45;4599&#45;9904&#45;b20bac18b247 -->
<g id="e35bb2f5a&#45;81a3&#45;4510&#45;b327&#45;dd99f962ff98" class="edge"><title>eaf0a609f&#45;45a1&#45;451f&#45;863d&#45;902f3b4f469b&#45;&gt;e216340fb&#45;620c&#45;4599&#45;9904&#45;b20bac18b247</title>
<path fill="none" stroke="black" d="M83.0119,-188.881C89.0929,-186.026 100.382,-180.725 110.982,-175.748"/>
<polygon fill="black" stroke="black" points="112.79,-178.765 120.354,-171.347 109.815,-172.429 112.79,-178.765"/>
</g>
<!-- eaf0a609f&#45;45a1&#45;451f&#45;863d&#45;902f3b4f469b&#45;&gt;ef885e40f&#45;2017&#45;420b&#45;ab13&#45;76c2e2407fd0 -->
<g id="ead08c2b9&#45;be64&#45;40d6&#45;85e9&#45;61572f3608b9" class="edge"><title>eaf0a609f&#45;45a1&#45;451f&#45;863d&#45;902f3b4f469b&#45;&gt;ef885e40f&#45;2017&#45;420b&#45;ab13&#45;76c2e2407fd0</title>
<path fill="none" stroke="black" d="M83.0119,-184.644C90.8125,-173.655 107.183,-150.595 119.676,-132.995"/>
<polygon fill="black" stroke="black" points="122.856,-134.562 125.791,-124.382 117.148,-130.51 122.856,-134.562"/>
</g>
<!-- e662968fd&#45;5d55&#45;41ac&#45;b81f&#45;b15e2a0bb66b&#45;&gt;e55aa4d0a&#45;2cad&#45;40cf&#45;9d77&#45;a5f9bd98ee9d -->
<g id="eba667670&#45;8f49&#45;4279&#45;accb&#45;0e382fc5aece" class="edge"><title>e662968fd&#45;5d55&#45;41ac&#45;b81f&#45;b15e2a0bb66b&#45;&gt;e55aa4d0a&#45;2cad&#45;40cf&#45;9d77&#45;a5f9bd98ee9d</title>
<path fill="none" stroke="black" d="M1241.89,-191C1247.55,-191 1257.72,-191 1267.65,-191"/>
<polygon fill="black" stroke="black" points="1267.7,-194.5 1277.7,-191 1267.7,-187.5 1267.7,-194.5"/>
</g>
<!-- edbda95cd&#45;4371&#45;4f7f&#45;8d24&#45;7330f10e2f73&#45;&gt;e5820ce9e&#45;ea97&#45;48ce&#45;90d5&#45;0735a53fbb7d -->
<g id="e4d79b3b1&#45;a5fa&#45;4aba&#45;abc6&#45;59f2629cbfa1" class="edge"><title>edbda95cd&#45;4371&#45;4f7f&#45;8d24&#45;7330f10e2f73&#45;&gt;e5820ce9e&#45;ea97&#45;48ce&#45;90d5&#45;0735a53fbb7d</title>
<path fill="none" stroke="black" d="M344.428,-314C417.344,-314 545.98,-314 656.164,-314 656.164,-314 656.164,-314 923.284,-314 978.139,-314 1041.86,-305.222 1077.05,-299.599"/>
<polygon fill="black" stroke="black" points="1077.71,-303.038 1087.01,-297.969 1076.58,-296.13 1077.71,-303.038"/>
</g>
<!-- e4b52a0da&#45;7c98&#45;4b62&#45;90d7&#45;7949442b3042&#45;&gt;ea361cb8e&#45;39e3&#45;4c17&#45;8494&#45;107da1542069 -->
<g id="e3183ef5d&#45;fbcb&#45;4519&#45;af0a&#45;2c3a15b7ee6d" class="edge"><title>e4b52a0da&#45;7c98&#45;4b62&#45;90d7&#45;7949442b3042&#45;&gt;ea361cb8e&#45;39e3&#45;4c17&#45;8494&#45;107da1542069</title>
<path fill="none" stroke="black" d="M290.939,-259.385C311.9,-256.719 395.815,-246.045 439.764,-240.454"/>
<polygon fill="black" stroke="black" points="440.284,-243.917 449.762,-239.183 439.4,-236.972 440.284,-243.917"/>
</g>
<!-- ec448c8a6&#45;5815&#45;4a15&#45;be69&#45;981b5e62ea57&#45;&gt;ea361cb8e&#45;39e3&#45;4c17&#45;8494&#45;107da1542069 -->
<g id="e4822e3f4&#45;56a9&#45;4eaf&#45;8d0d&#45;683fa0972ad9" class="edge"><title>ec448c8a6&#45;5815&#45;4a15&#45;be69&#45;981b5e62ea57&#45;&gt;ea361cb8e&#45;39e3&#45;4c17&#45;8494&#45;107da1542069</title>
<path fill="none" stroke="black" d="M379.425,-221.999C401.667,-225.813 423.675,-229.586 440.054,-232.394"/>
<polygon fill="black" stroke="black" points="439.504,-235.85 449.951,-234.091 440.686,-228.951 439.504,-235.85"/>
</g>
<!-- ef7816226&#45;5adb&#45;478f&#45;9e30&#45;b4bdb8692dbb&#45;&gt;e99c40978&#45;569c&#45;4069&#45;9ade&#45;46c88f966ff6 -->
<g id="e59bef0f7&#45;cced&#45;4c70&#45;a988&#45;5b32b99bfdb2" class="edge"><title>ef7816226&#45;5adb&#45;478f&#45;9e30&#45;b4bdb8692dbb&#45;&gt;e99c40978&#45;569c&#45;4069&#45;9ade&#45;46c88f966ff6</title>
<path fill="none" stroke="black" d="M662.896,-237.962C680.927,-241.627 746.201,-254.893 783.695,-262.514"/>
<polygon fill="black" stroke="black" points="783.418,-266.029 793.914,-264.591 784.812,-259.169 783.418,-266.029"/>
</g>
<!-- ef7816226&#45;5adb&#45;478f&#45;9e30&#45;b4bdb8692dbb&#45;&gt;ebeb42f12&#45;e95a&#45;463d&#45;83ac&#45;550fa5a2ebd3 -->
<g id="ec5faf579&#45;8c60&#45;45c8&#45;9c64&#45;c28a6b512412" class="edge"><title>ef7816226&#45;5adb&#45;478f&#45;9e30&#45;b4bdb8692dbb&#45;&gt;ebeb42f12&#45;e95a&#45;463d&#45;83ac&#45;550fa5a2ebd3</title>
<path fill="none" stroke="black" d="M662.896,-236.286C680.881,-233.574 745.87,-223.774 783.409,-218.114"/>
<polygon fill="black" stroke="black" points="784.286,-221.521 793.652,-216.569 783.242,-214.599 784.286,-221.521"/>
</g>
<!-- ef6cdd406&#45;a138&#45;4b52&#45;b5ae&#45;dfcc4dbb2620&#45;&gt;e0f8d50ad&#45;fa10&#45;4a44&#45;b7c3&#45;e49cdcb25097 -->
<g id="eb9a1f45c&#45;55f9&#45;4ad7&#45;b9e8&#45;5e997990e528" class="edge"><title>ef6cdd406&#45;a138&#45;4b52&#45;b5ae&#45;dfcc4dbb2620&#45;&gt;e0f8d50ad&#45;fa10&#45;4a44&#45;b7c3&#45;e49cdcb25097</title>
<path fill="none" stroke="black" d="M1110.47,-218C1118.13,-218 1134.08,-218 1148.31,-218"/>
<polygon fill="black" stroke="black" points="1148.69,-221.5 1158.69,-218 1148.69,-214.5 1148.69,-221.5"/>
</g>
<!-- e41e9625e&#45;90b0&#45;4d7e&#45;8ec9&#45;06ec6d00293c&#45;&gt;e5104920f&#45;937f&#45;4d3a&#45;97ec&#45;4dcc15cee406 -->
<g id="ec0327e45&#45;e762&#45;4f5f&#45;ab76&#45;f147ba10c6ef" class="edge"><title>e41e9625e&#45;90b0&#45;4d7e&#45;8ec9&#45;06ec6d00293c&#45;&gt;e5104920f&#45;937f&#45;4d3a&#45;97ec&#45;4dcc15cee406</title>
<path fill="none" stroke="black" d="M975.99,-268C985.869,-268 995.819,-268 1004.53,-268"/>
<polygon fill="black" stroke="black" points="1004.8,-271.5 1014.8,-268 1004.8,-264.5 1004.8,-271.5"/>
</g>
<!-- ef77e485c&#45;3c11&#45;4494&#45;ab31&#45;d56faf086bef&#45;&gt;ecbd16d9b&#45;1b25&#45;48bb&#45;9d64&#45;5d9455c7ab23 -->
<g id="e3257b6fd&#45;da50&#45;43ca&#45;9b48&#45;5b630f3c6e6c" class="edge"><title>ef77e485c&#45;3c11&#45;4494&#45;ab31&#45;d56faf086bef&#45;&gt;ecbd16d9b&#45;1b25&#45;48bb&#45;9d64&#45;5d9455c7ab23</title>
<path fill="none" stroke="black" d="M979.171,-214C987.931,-214 996.636,-214 1004.37,-214"/>
<polygon fill="black" stroke="black" points="1004.57,-217.5 1014.57,-214 1004.57,-210.5 1004.57,-217.5"/>
</g>
<!-- eba2d77c1&#45;f98c&#45;4e7f&#45;82d7&#45;1f4facbfcb3c&#45;&gt;e7ddef8c6&#45;c668&#45;41dc&#45;91fa&#45;b271a12c83fd -->
<g id="ebf9bc8d2&#45;1315&#45;400f&#45;8af1&#45;0f24f5af35a8" class="edge"><title>eba2d77c1&#45;f98c&#45;4e7f&#45;82d7&#45;1f4facbfcb3c&#45;&gt;e7ddef8c6&#45;c668&#45;41dc&#45;91fa&#45;b271a12c83fd</title>
<path fill="none" stroke="black" d="M520.742,-164C587.702,-164 707.892,-164 810.69,-164 810.69,-164 810.69,-164 1033.88,-164 1073.88,-164 1120.22,-164 1148.8,-164"/>
<polygon fill="black" stroke="black" points="1148.83,-167.5 1158.83,-164 1148.83,-160.5 1148.83,-167.5"/>
</g>
<!-- e7d49682a&#45;c3fa&#45;4cc4&#45;baf5&#45;44fd08265533&#45;&gt;e0122a833&#45;a6b2&#45;42c7&#45;8920&#45;ac13b5ed57cc -->
<g id="ee72873c6&#45;5427&#45;4931&#45;b11a&#45;0d1c4f241473" class="edge"><title>e7d49682a&#45;c3fa&#45;4cc4&#45;baf5&#45;44fd08265533&#45;&gt;e0122a833&#45;a6b2&#45;42c7&#45;8920&#45;ac13b5ed57cc</title>
<path fill="none" stroke="black" d="M662.889,-118C698.477,-118 925.218,-118 1004.53,-118"/>
<polygon fill="black" stroke="black" points="1004.71,-121.5 1014.71,-118 1004.71,-114.5 1004.71,-121.5"/>
</g>
<!-- e76885e2a&#45;1c7a&#45;42b8&#45;9092&#45;b862b8f81c9b&#45;&gt;ec6e963de&#45;88ca&#45;412b&#45;90f0&#45;511de37d4210 -->
<g id="ee20e8441&#45;3203&#45;4505&#45;9bc6&#45;de8b73c2af6c" class="edge"><title>e76885e2a&#45;1c7a&#45;42b8&#45;9092&#45;b862b8f81c9b&#45;&gt;ec6e963de&#45;88ca&#45;412b&#45;90f0&#45;511de37d4210</title>
<path fill="none" stroke="black" d="M290.939,-65.9465C311.856,-65.7151 395.46,-64.7904 439.485,-64.3035"/>
<polygon fill="black" stroke="black" points="439.802,-67.8003 449.762,-64.1898 439.724,-60.8007 439.802,-67.8003"/>
</g>
<!-- e9f7f417b&#45;f5d8&#45;46ec&#45;801f&#45;1bd4a8dd7405&#45;&gt;eb27b7a31&#45;9ba7&#45;4ee9&#45;a487&#45;cd35ea8ed1ab -->
<g id="ebba67eaa&#45;47d9&#45;43c7&#45;8f5b&#45;46f10fa5986b" class="edge"><title>e9f7f417b&#45;f5d8&#45;46ec&#45;801f&#45;1bd4a8dd7405&#45;&gt;eb27b7a31&#45;9ba7&#45;4ee9&#45;a487&#45;cd35ea8ed1ab</title>
<path fill="none" stroke="black" d="M757.771,-64C766.886,-64 775.509,-64 783.045,-64"/>
<polygon fill="black" stroke="black" points="783.239,-67.5001 793.239,-64 783.239,-60.5001 783.239,-67.5001"/>
</g>
<!-- e5b41802b&#45;067a&#45;4ed9&#45;8af1&#45;177d76b96757&#45;&gt;ec6e963de&#45;88ca&#45;412b&#45;90f0&#45;511de37d4210 -->
<g id="ed3f06aaa&#45;309c&#45;49b2&#45;9f9d&#45;ab7a4f45c62a" class="edge"><title>e5b41802b&#45;067a&#45;4ed9&#45;8af1&#45;177d76b96757&#45;&gt;ec6e963de&#45;88ca&#45;412b&#45;90f0&#45;511de37d4210</title>
<path fill="none" stroke="black" d="M916.504,-17.8086C884.838,-16.6311 702.078,-11.2352 556.638,-37 535.459,-40.7517 512.227,-48.0538 494.996,-54.119"/>
<polygon fill="black" stroke="black" points="493.327,-51.0004 485.114,-57.6928 495.708,-57.5831 493.327,-51.0004"/>
</g>
<!-- ef3af0380&#45;1c7f&#45;42e3&#45;b04b&#45;5102b69acf49&#45;&gt;e0122a833&#45;a6b2&#45;42c7&#45;8920&#45;ac13b5ed57cc -->
<g id="efb37163e&#45;974b&#45;4492&#45;b4de&#45;834cdf22e7fc" class="edge"><title>ef3af0380&#45;1c7f&#45;42e3&#45;b04b&#45;5102b69acf49&#45;&gt;e0122a833&#45;a6b2&#45;42c7&#45;8920&#45;ac13b5ed57cc</title>
<path fill="none" stroke="black" d="M927.95,-73.9766C941.269,-79.6185 980.193,-96.1065 1006.44,-107.224"/>
<polygon fill="black" stroke="black" points="1005.22,-110.51 1015.8,-111.188 1007.95,-104.064 1005.22,-110.51"/>
</g>
</g>
</svg>
