<?xml version="1.0" encoding="UTF-8" standalone="no"?>
<!DOCTYPE svg PUBLIC "-//W3C//DTD SVG 1.1//EN"
 "http://www.w3.org/Graphics/SVG/1.1/DTD/svg11.dtd">
<!-- Generated by graphviz version 2.38.0 (20140413.2041)
 -->
<!-- Title: G Pages: 1 -->
<svg width="340pt" height="44pt"
 viewBox="0.00 0.00 340.20 44.00" xmlns="http://www.w3.org/2000/svg" xmlns:xlink="http://www.w3.org/1999/xlink">
<g id="graph0" class="graph" transform="scale(1 1) rotate(0) translate(4 40)">
<title>G</title>
<polygon fill="white" stroke="none" points="-4,4 -4,-40 336.204,-40 336.204,4 -4,4"/>
<!-- e050994db&#45;fb01&#45;4794&#45;b3ad&#45;b1206b9d44c7 -->
<g id="e050994db&#45;fb01&#45;4794&#45;b3ad&#45;b1206b9d44c7" class="node"><title>e050994db&#45;fb01&#45;4794&#45;b3ad&#45;b1206b9d44c7</title>
<ellipse fill="green" stroke="black" cx="18" cy="-18" rx="18" ry="18"/>
</g>
<!-- e5991bc87&#45;8ff4&#45;4fab&#45;a3e0&#45;c0ec5aea4010 -->
<g id="e5991bc87&#45;8ff4&#45;4fab&#45;a3e0&#45;c0ec5aea4010" class="node"><title>e5991bc87&#45;8ff4&#45;4fab&#45;a3e0&#45;c0ec5aea4010</title>
<polygon fill="none" stroke="black" points="260.306,-36 71.8978,-36 71.8978,-0 260.306,-0 260.306,-36"/>
<text text-anchor="middle" x="166.102" y="-13.8" font-family="Times,serif" font-size="14.00">W_Wijzigen contractgegevens</text>
</g>
<!-- e050994db&#45;fb01&#45;4794&#45;b3ad&#45;b1206b9d44c7&#45;&gt;e5991bc87&#45;8ff4&#45;4fab&#45;a3e0&#45;c0ec5aea4010 -->
<g id="efd331b73&#45;0dba&#45;479f&#45;b917&#45;ea9e80233512" class="edge"><title>e050994db&#45;fb01&#45;4794&#45;b3ad&#45;b1206b9d44c7&#45;&gt;e5991bc87&#45;8ff4&#45;4fab&#45;a3e0&#45;c0ec5aea4010</title>
<path fill="none" stroke="black" d="M36.0457,-18C43.1591,-18 52.0431,-18 61.8017,-18"/>
<polygon fill="black" stroke="black" points="61.8189,-21.5001 71.8188,-18 61.8188,-14.5001 61.8189,-21.5001"/>
</g>
<!-- e5be07fc4&#45;d8c1&#45;4a67&#45;9bc2&#45;3f987b927ec5 -->
<g id="e5be07fc4&#45;d8c1&#45;4a67&#45;9bc2&#45;3f987b927ec5" class="node"><title>e5be07fc4&#45;d8c1&#45;4a67&#45;9bc2&#45;3f987b927ec5</title>
<ellipse fill="red" stroke="black" cx="314.204" cy="-18" rx="18" ry="18"/>
</g>
<!-- e5991bc87&#45;8ff4&#45;4fab&#45;a3e0&#45;c0ec5aea4010&#45;&gt;e5be07fc4&#45;d8c1&#45;4a67&#45;9bc2&#45;3f987b927ec5 -->
<g id="e7a33f310&#45;f7e5&#45;40a6&#45;a0fe&#45;027bfc615446" class="edge"><title>e5991bc87&#45;8ff4&#45;4fab&#45;a3e0&#45;c0ec5aea4010&#45;&gt;e5be07fc4&#45;d8c1&#45;4a67&#45;9bc2&#45;3f987b927ec5</title>
<path fill="none" stroke="black" d="M260.458,-18C269.733,-18 278.533,-18 286.194,-18"/>
<polygon fill="black" stroke="black" points="286.194,-21.5001 296.194,-18 286.194,-14.5001 286.194,-21.5001"/>
</g>
</g>
</svg>
